<svg width="20" height="20" viewBox="0 0 20 20" fill="none" xmlns="http://www.w3.org/2000/svg">
<path d="M14.09 1.84767L13.7495 2.51593L14.09 1.84767ZM14.8183 2.57603L14.1501 2.91652L14.8183 2.57603ZM5.91002 1.84767L6.25051 2.51593L5.91002 1.84767ZM5.18166 2.57603L5.84991 2.91652L5.18166 2.57603ZM15 5.91602C14.5858 5.91602 14.25 6.2518 14.25 6.66602C14.25 7.08023 14.5858 7.41602 15 7.41602V6.66602V5.91602ZM5 7.41602C5.41421 7.41602 5.75 7.08023 5.75 6.66602C5.75 6.2518 5.41421 5.91602 5 5.91602V6.66602V7.41602ZM8.33333 4.24935C7.91912 4.24935 7.58333 4.58514 7.58333 4.99935C7.58333 5.41356 7.91912 5.74935 8.33333 5.74935V4.99935V4.24935ZM11.6667 5.74935C12.0809 5.74935 12.4167 5.41356 12.4167 4.99935C12.4167 4.58514 12.0809 4.24935 11.6667 4.24935V4.99935V5.74935ZM8.33333 7.58268C7.91912 7.58268 7.58333 7.91847 7.58333 8.33268C7.58333 8.7469 7.91912 9.08268 8.33333 9.08268V8.33268V7.58268ZM11.6667 9.08268C12.0809 9.08268 12.4167 8.7469 12.4167 8.33268C12.4167 7.91847 12.0809 7.58268 11.6667 7.58268V8.33268V9.08268ZM8.33333 10.916C7.91912 10.916 7.58333 11.2518 7.58333 11.666C7.58333 12.0802 7.91912 12.416 8.33333 12.416V11.666V10.916ZM11.6667 12.416C12.0809 12.416 12.4167 12.0802 12.4167 11.666C12.4167 11.2518 12.0809 10.916 11.6667 10.916V11.666V12.416ZM7.66667 1.66602V2.41602H12.3333V1.66602V0.916016H7.66667V1.66602ZM15 4.33268H14.25V14.9993H15H15.75V4.33268H15ZM15 14.9993V14.2493H5V14.9993V15.7493H15V14.9993ZM5 14.9993H5.75V4.33268H5H4.25V14.9993H5ZM15 14.9993V15.7493H17.5V14.9993V14.2493H15V14.9993ZM5 14.9993V14.2493H2.5V14.9993V15.7493H5V14.9993ZM12.3333 1.66602V2.41602C12.8124 2.41602 13.1266 2.4166 13.3669 2.43623C13.5985 2.45515 13.6946 2.48795 13.7495 2.51593L14.09 1.84767L14.4305 1.17942C14.1289 1.02574 13.8134 0.96771 13.4891 0.941213C13.1735 0.915432 12.7877 0.916016 12.3333 0.916016V1.66602ZM15 4.33268H15.75C15.75 3.87835 15.7506 3.49249 15.7248 3.17694C15.6983 2.85264 15.6403 2.53715 15.4866 2.23554L14.8183 2.57603L14.1501 2.91652C14.1781 2.97143 14.2109 3.06755 14.2298 3.29909C14.2494 3.53939 14.25 3.8536 14.25 4.33268H15ZM14.09 1.84767L13.7495 2.51593C13.922 2.60381 14.0622 2.74404 14.1501 2.91652L14.8183 2.57603L15.4866 2.23554C15.2549 1.78081 14.8852 1.41111 14.4305 1.17942L14.09 1.84767ZM7.66667 1.66602V0.916016C7.21233 0.916016 6.82647 0.915432 6.51093 0.941213C6.18663 0.96771 5.87113 1.02574 5.56952 1.17942L5.91002 1.84767L6.25051 2.51593C6.30542 2.48795 6.40154 2.45515 6.63308 2.43623C6.87337 2.4166 7.18758 2.41602 7.66667 2.41602V1.66602ZM5 4.33268H5.75C5.75 3.8536 5.75058 3.53939 5.77022 3.29909C5.78913 3.06755 5.82193 2.97143 5.84991 2.91652L5.18166 2.57603L4.5134 2.23554C4.35972 2.53715 4.30169 2.85264 4.2752 3.17694C4.24942 3.49249 4.25 3.87835 4.25 4.33268H5ZM5.91002 1.84767L5.56952 1.17942C5.1148 1.41111 4.7451 1.78081 4.5134 2.23554L5.18166 2.57603L5.84991 2.91652C5.93779 2.74404 6.07803 2.60381 6.25051 2.51593L5.91002 1.84767ZM15 6.66602V7.41602H15.8333V6.66602V5.91602H15V6.66602ZM17.5 8.33268H16.75V16.666H17.5H18.25V8.33268H17.5ZM15.8333 18.3327V17.5827H4.16667V18.3327V19.0827H15.8333V18.3327ZM2.5 16.666H3.25V8.33268H2.5H1.75V16.666H2.5ZM4.16667 6.66602V7.41602H5V6.66602V5.91602H4.16667V6.66602ZM2.5 8.33268H3.25C3.25 7.82642 3.66041 7.41602 4.16667 7.41602V6.66602V5.91602C2.83198 5.91602 1.75 6.99799 1.75 8.33268H2.5ZM4.16667 18.3327V17.5827C3.66041 17.5827 3.25 17.1723 3.25 16.666H2.5H1.75C1.75 18.0007 2.83198 19.0827 4.16667 19.0827V18.3327ZM17.5 16.666H16.75C16.75 17.1723 16.3396 17.5827 15.8333 17.5827V18.3327V19.0827C17.168 19.0827 18.25 18.0007 18.25 16.666H17.5ZM15.8333 6.66602V7.41602C16.3396 7.41602 16.75 7.82642 16.75 8.33268H17.5H18.25C18.25 6.99799 17.168 5.91602 15.8333 5.91602V6.66602ZM8.33333 4.99935V5.74935H11.6667V4.99935V4.24935H8.33333V4.99935ZM8.33333 8.33268V9.08268H11.6667V8.33268V7.58268H8.33333V8.33268ZM8.33333 11.666V12.416H11.6667V11.666V10.916H8.33333V11.666Z" fill="#64748B"/>
</svg>
