<svg width="16" height="16" viewBox="0 0 16 16" fill="none" xmlns="http://www.w3.org/2000/svg">
<path d="M4 5.33334C4 4.27248 4.42143 3.25506 5.17157 2.50492C5.92172 1.75477 6.93913 1.33334 8 1.33334C9.06087 1.33334 10.0783 1.75477 10.8284 2.50492C11.5786 3.25506 12 4.27248 12 5.33334C12 10 14 11.3333 14 11.3333H2C2 11.3333 4 10 4 5.33334Z" stroke="#4B5563" stroke-width="1.33333" stroke-linecap="round" stroke-linejoin="round"/>
<path d="M6.8667 14C6.97829 14.203 7.14233 14.3722 7.34169 14.4901C7.54106 14.608 7.76842 14.6702 8.00003 14.6702C8.23165 14.6702 8.45901 14.608 8.65837 14.4901C8.85773 14.3722 9.02178 14.203 9.13337 14" stroke="#4B5563" stroke-width="1.33333" stroke-linecap="round" stroke-linejoin="round"/>
</svg>
