<svg width="16" height="16" viewBox="0 0 16 16" fill="none" xmlns="http://www.w3.org/2000/svg">
<path d="M4 5.33325C4 4.27239 4.42143 3.25497 5.17157 2.50482C5.92172 1.75468 6.93913 1.33325 8 1.33325C9.06087 1.33325 10.0783 1.75468 10.8284 2.50482C11.5786 3.25497 12 4.27239 12 5.33325C12 9.99992 14 11.3333 14 11.3333H2C2 11.3333 4 9.99992 4 5.33325Z" stroke="#676F7E" stroke-width="1.33333" stroke-linecap="round" stroke-linejoin="round"/>
<path d="M6.8667 14C6.97829 14.203 7.14233 14.3722 7.34169 14.4901C7.54106 14.608 7.76842 14.6702 8.00003 14.6702C8.23165 14.6702 8.45901 14.608 8.65837 14.4901C8.85773 14.3722 9.02178 14.203 9.13337 14" stroke="#676F7E" stroke-width="1.33333" stroke-linecap="round" stroke-linejoin="round"/>
</svg>
