<svg width="14" height="14" viewBox="0 0 14 14" fill="none" xmlns="http://www.w3.org/2000/svg">
<path d="M3.5 4.66797C3.5 3.73971 3.86875 2.84947 4.52513 2.19309C5.1815 1.53672 6.07174 1.16797 7 1.16797C7.92826 1.16797 8.8185 1.53672 9.47487 2.19309C10.1313 2.84947 10.5 3.73971 10.5 4.66797C10.5 8.7513 12.25 9.91797 12.25 9.91797H1.75C1.75 9.91797 3.5 8.7513 3.5 4.66797Z" stroke="#FAFAFA" stroke-width="1.16667" stroke-linecap="round" stroke-linejoin="round"/>
<path d="M6.00879 12.25C6.10643 12.4276 6.24997 12.5757 6.42441 12.6789C6.59885 12.782 6.79779 12.8364 7.00046 12.8364C7.20312 12.8364 7.40206 12.782 7.5765 12.6789C7.75094 12.5757 7.89448 12.4276 7.99212 12.25" stroke="#FAFAFA" stroke-width="1.16667" stroke-linecap="round" stroke-linejoin="round"/>
</svg>
