<svg width="20" height="20" viewBox="0 0 20 20" fill="none" xmlns="http://www.w3.org/2000/svg">
<path d="M5 6.66675C5 5.34067 5.52678 4.0689 6.46447 3.13121C7.40215 2.19353 8.67392 1.66675 10 1.66675C11.3261 1.66675 12.5979 2.19353 13.5355 3.13121C14.4732 4.0689 15 5.34067 15 6.66675C15 12.5001 17.5 14.1667 17.5 14.1667H2.5C2.5 14.1667 5 12.5001 5 6.66675Z" stroke="#0B64F4" stroke-width="1.66667" stroke-linecap="round" stroke-linejoin="round"/>
<path d="M8.5835 17.5C8.72298 17.7537 8.92804 17.9653 9.17724 18.1127C9.42644 18.26 9.71065 18.3378 10.0002 18.3378C10.2897 18.3378 10.5739 18.26 10.8231 18.1127C11.0723 17.9653 11.2773 17.7537 11.4168 17.5" stroke="#0B64F4" stroke-width="1.66667" stroke-linecap="round" stroke-linejoin="round"/>
</svg>
