<svg width="20" height="20" viewBox="0 0 20 20" fill="none" xmlns="http://www.w3.org/2000/svg">
<path d="M10.692 1.81827C10.4749 1.71922 10.239 1.66797 10.0004 1.66797C9.76172 1.66797 9.52585 1.71922 9.30871 1.81827L2.16704 5.06827C2.01917 5.13347 1.89344 5.24027 1.80518 5.37565C1.71692 5.51103 1.66992 5.66915 1.66992 5.83077C1.66992 5.99238 1.71692 6.1505 1.80518 6.28589C1.89344 6.42127 2.01917 6.52806 2.16704 6.59327L9.31704 9.8516C9.53418 9.95064 9.77005 10.0019 10.0087 10.0019C10.2474 10.0019 10.4832 9.95064 10.7004 9.8516L17.8504 6.6016C17.9983 6.5364 18.124 6.4296 18.2122 6.29422C18.3005 6.15884 18.3475 6.00071 18.3475 5.8391C18.3475 5.67749 18.3005 5.51936 18.2122 5.38398C18.124 5.2486 17.9983 5.1418 17.8504 5.0766L10.692 1.81827Z" stroke="#10B77F" stroke-width="1.66667" stroke-linecap="round" stroke-linejoin="round"/>
<path d="M18.3337 14.707L10.692 18.1737C10.4749 18.2727 10.239 18.324 10.0003 18.324C9.76167 18.324 9.52579 18.2727 9.30866 18.1737L1.66699 14.707" stroke="#10B77F" stroke-width="1.66667" stroke-linecap="round" stroke-linejoin="round"/>
<path d="M18.3337 10.543L10.692 14.0096C10.4749 14.1087 10.239 14.1599 10.0003 14.1599C9.76167 14.1599 9.52579 14.1087 9.30866 14.0096L1.66699 10.543" stroke="#10B77F" stroke-width="1.66667" stroke-linecap="round" stroke-linejoin="round"/>
</svg>
