<svg width="32" height="32" viewBox="0 0 32 32" fill="none" xmlns="http://www.w3.org/2000/svg">
<path d="M24.0002 2.6665H8.00016C6.5274 2.6665 5.3335 3.86041 5.3335 5.33317V26.6665C5.3335 28.1393 6.5274 29.3332 8.00016 29.3332H24.0002C25.4729 29.3332 26.6668 28.1393 26.6668 26.6665V5.33317C26.6668 3.86041 25.4729 2.6665 24.0002 2.6665Z" stroke="#0F8FFF" stroke-width="2.66667" stroke-linecap="round" stroke-linejoin="round"/>
<path d="M12 29.3333V24H20V29.3333" stroke="#0F8FFF" stroke-width="2.66667" stroke-linecap="round" stroke-linejoin="round"/>
<path d="M10.6665 8H10.6798" stroke="#0F8FFF" stroke-width="2.66667" stroke-linecap="round" stroke-linejoin="round"/>
<path d="M21.3335 8H21.3468" stroke="#0F8FFF" stroke-width="2.66667" stroke-linecap="round" stroke-linejoin="round"/>
<path d="M16 8H16.0133" stroke="#0F8FFF" stroke-width="2.66667" stroke-linecap="round" stroke-linejoin="round"/>
<path d="M16 13.3335H16.0133" stroke="#0F8FFF" stroke-width="2.66667" stroke-linecap="round" stroke-linejoin="round"/>
<path d="M16 18.6665H16.0133" stroke="#0F8FFF" stroke-width="2.66667" stroke-linecap="round" stroke-linejoin="round"/>
<path d="M21.3335 13.3335H21.3468" stroke="#0F8FFF" stroke-width="2.66667" stroke-linecap="round" stroke-linejoin="round"/>
<path d="M21.3335 18.6665H21.3468" stroke="#0F8FFF" stroke-width="2.66667" stroke-linecap="round" stroke-linejoin="round"/>
<path d="M10.6665 13.3335H10.6798" stroke="#0F8FFF" stroke-width="2.66667" stroke-linecap="round" stroke-linejoin="round"/>
<path d="M10.6665 18.6665H10.6798" stroke="#0F8FFF" stroke-width="2.66667" stroke-linecap="round" stroke-linejoin="round"/>
</svg>
