<svg width="20" height="20" viewBox="0 0 20 20" fill="none" xmlns="http://www.w3.org/2000/svg">
<path d="M10.0001 18.3346C14.6025 18.3346 18.3334 14.6037 18.3334 10.0013C18.3334 5.39893 14.6025 1.66797 10.0001 1.66797C5.39771 1.66797 1.66675 5.39893 1.66675 10.0013C1.66675 14.6037 5.39771 18.3346 10.0001 18.3346Z" stroke="#0D8CFF" stroke-width="1.66667" stroke-linecap="round" stroke-linejoin="round"/>
<path d="M10 15C12.7614 15 15 12.7614 15 10C15 7.23858 12.7614 5 10 5C7.23858 5 5 7.23858 5 10C5 12.7614 7.23858 15 10 15Z" stroke="#0D8CFF" stroke-width="1.66667" stroke-linecap="round" stroke-linejoin="round"/>
<path d="M9.99992 11.6654C10.9204 11.6654 11.6666 10.9192 11.6666 9.9987C11.6666 9.07822 10.9204 8.33203 9.99992 8.33203C9.07944 8.33203 8.33325 9.07822 8.33325 9.9987C8.33325 10.9192 9.07944 11.6654 9.99992 11.6654Z" stroke="#0D8CFF" stroke-width="1.66667" stroke-linecap="round" stroke-linejoin="round"/>
</svg>
