<svg width="16" height="16" viewBox="0 0 16 16" fill="none" xmlns="http://www.w3.org/2000/svg">
<path d="M12.6673 11.3334H14.0007C14.4007 11.3334 14.6673 11.0667 14.6673 10.6667V8.66675C14.6673 8.06675 14.2007 7.53342 13.6673 7.40008C12.4673 7.06675 10.6673 6.66675 10.6673 6.66675C10.6673 6.66675 9.80065 5.73341 9.20065 5.13341C8.86732 4.86675 8.46732 4.66675 8.00065 4.66675H3.33398C2.93398 4.66675 2.60065 4.93341 2.40065 5.26675L1.46732 7.20008C1.37904 7.45757 1.33398 7.72788 1.33398 8.00008V10.6667C1.33398 11.0667 1.60065 11.3334 2.00065 11.3334H3.33398" stroke="#2463EB" stroke-width="1.33333" stroke-linecap="round" stroke-linejoin="round"/>
<path d="M4.66732 12.6667C5.4037 12.6667 6.00065 12.0697 6.00065 11.3333C6.00065 10.597 5.4037 10 4.66732 10C3.93094 10 3.33398 10.597 3.33398 11.3333C3.33398 12.0697 3.93094 12.6667 4.66732 12.6667Z" stroke="#2463EB" stroke-width="1.33333" stroke-linecap="round" stroke-linejoin="round"/>
<path d="M6 11.3333H10" stroke="#2463EB" stroke-width="1.33333" stroke-linecap="round" stroke-linejoin="round"/>
<path d="M11.3333 12.6667C12.0697 12.6667 12.6667 12.0697 12.6667 11.3333C12.6667 10.597 12.0697 10 11.3333 10C10.597 10 10 10.597 10 11.3333C10 12.0697 10.597 12.6667 11.3333 12.6667Z" stroke="#2463EB" stroke-width="1.33333" stroke-linecap="round" stroke-linejoin="round"/>
</svg>
