<svg width="12" height="12" viewBox="0 0 12 12" fill="none" xmlns="http://www.w3.org/2000/svg">
<path d="M10.1316 8.79881L6.40158 2.27131C6.32024 2.1278 6.2023 2.00844 6.05978 1.92539C5.91726 1.84234 5.75525 1.79858 5.5903 1.79858C5.42535 1.79858 5.26334 1.84234 5.12082 1.92539C4.9783 2.00844 4.86036 2.1278 4.77903 2.27131L1.04903 8.79881C0.966817 8.94119 0.92371 9.10276 0.924075 9.26717C0.924439 9.43157 0.968261 9.59295 1.0511 9.73496C1.13394 9.87697 1.25285 9.99455 1.39577 10.0758C1.5387 10.157 1.70057 10.199 1.86496 10.1976H9.32496C9.48857 10.1974 9.64925 10.1542 9.79088 10.0723C9.9325 9.99036 10.0501 9.87263 10.1318 9.7309C10.2135 9.58917 10.2565 9.42843 10.2565 9.26482C10.2565 9.10122 10.2134 8.9405 10.1316 8.79881Z" stroke="white" stroke-width="0.9325" stroke-linecap="round" stroke-linejoin="round"/>
<path d="M5.59497 4.60254V6.46712" stroke="white" stroke-width="0.9325" stroke-linecap="round" stroke-linejoin="round"/>
<path d="M5.59497 8.33252H5.59963" stroke="white" stroke-width="0.9325" stroke-linecap="round" stroke-linejoin="round"/>
</svg>
