<svg width="20" height="20" viewBox="0 0 20 20" fill="none" xmlns="http://www.w3.org/2000/svg">
<path d="M18.1085 15L11.4419 3.33333C11.2965 3.07684 11.0857 2.86349 10.831 2.71506C10.5762 2.56662 10.2867 2.48842 9.99185 2.48842C9.69703 2.48842 9.40748 2.56662 9.15275 2.71506C8.89802 2.86349 8.68722 3.07684 8.54185 3.33333L1.87519 15C1.72825 15.2545 1.65121 15.5433 1.65186 15.8371C1.65251 16.1309 1.73083 16.4194 1.87889 16.6732C2.02695 16.927 2.23948 17.1372 2.49493 17.2824C2.75039 17.4276 3.03969 17.5026 3.33352 17.5H16.6669C16.9593 17.4997 17.2465 17.4225 17.4996 17.2761C17.7527 17.1297 17.9629 16.9192 18.1089 16.6659C18.255 16.4126 18.3319 16.1253 18.3318 15.8329C18.3317 15.5405 18.2547 15.2532 18.1085 15Z" stroke="#DC8F09" stroke-width="1.66667" stroke-linecap="round" stroke-linejoin="round"/>
<path d="M10 7.5V10.8333" stroke="#DC8F09" stroke-width="1.66667" stroke-linecap="round" stroke-linejoin="round"/>
<path d="M10 14.1667H10.0083" stroke="#DC8F09" stroke-width="1.66667" stroke-linecap="round" stroke-linejoin="round"/>
</svg>
