<svg width="20" height="20" viewBox="0 0 20 20" fill="none" xmlns="http://www.w3.org/2000/svg">
<path d="M18.1083 15.0001L11.4417 3.33344C11.2963 3.07694 11.0855 2.8636 10.8308 2.71516C10.576 2.56673 10.2865 2.48853 9.99167 2.48853C9.69685 2.48853 9.4073 2.56673 9.15257 2.71516C8.89783 2.8636 8.68703 3.07694 8.54167 3.33344L1.875 15.0001C1.72807 15.2546 1.65103 15.5434 1.65168 15.8372C1.65233 16.131 1.73065 16.4195 1.87871 16.6733C2.02676 16.9271 2.23929 17.1373 2.49475 17.2825C2.7502 17.4277 3.03951 17.5027 3.33334 17.5001H16.6667C16.9591 17.4998 17.2463 17.4226 17.4994 17.2762C17.7525 17.1298 17.9627 16.9193 18.1088 16.666C18.2548 16.4127 18.3317 16.1254 18.3316 15.833C18.3316 15.5406 18.2545 15.2533 18.1083 15.0001Z" stroke="#F59F0A" stroke-width="1.66667" stroke-linecap="round" stroke-linejoin="round"/>
<path d="M10 7.5V10.8333" stroke="#F59F0A" stroke-width="1.66667" stroke-linecap="round" stroke-linejoin="round"/>
<path d="M10 14.1667H10.0083" stroke="#F59F0A" stroke-width="1.66667" stroke-linecap="round" stroke-linejoin="round"/>
</svg>
