<svg width="20" height="20" viewBox="0 0 20 20" fill="none" xmlns="http://www.w3.org/2000/svg">
<path d="M17.5008 10.0016C17.9608 10.0016 18.3383 9.62748 18.2925 9.16998C18.1004 7.25678 17.2526 5.46889 15.8928 4.10941C14.533 2.74993 12.7449 1.90251 10.8317 1.71081C10.3733 1.66498 10 2.04248 10 2.50248V9.16914C10 9.39016 10.0878 9.60212 10.2441 9.7584C10.4004 9.91468 10.6123 10.0025 10.8333 10.0025L17.5008 10.0016Z" stroke="#10B77F" stroke-width="1.66667" stroke-linecap="round" stroke-linejoin="round"/>
<path d="M17.6747 13.2427C17.1445 14.4964 16.3153 15.6012 15.2596 16.4605C14.2038 17.3197 12.9537 17.9072 11.6184 18.1717C10.2831 18.4362 8.90337 18.3695 7.59981 17.9775C6.29624 17.5856 5.10854 16.8803 4.14053 15.9233C3.17253 14.9662 2.4537 13.7867 2.04688 12.4877C1.64006 11.1887 1.55765 9.80978 1.80685 8.47157C2.05605 7.13336 2.62926 5.87656 3.47639 4.81107C4.32351 3.74557 5.41875 2.90381 6.66635 2.35938" stroke="#10B77F" stroke-width="1.66667" stroke-linecap="round" stroke-linejoin="round"/>
</svg>
