<svg width="32" height="32" viewBox="0 0 32 32" fill="none" xmlns="http://www.w3.org/2000/svg">
<path d="M16.7812 16.7812L25.3332 25.3332" stroke="#9333EA" stroke-width="2.66667" stroke-linecap="round" stroke-linejoin="round"/>
<path d="M4.91757 4.04957C4.79615 3.9984 4.66224 3.98459 4.53294 4.0099C4.40364 4.03521 4.28481 4.09848 4.19165 4.19165C4.09848 4.28481 4.03521 4.40364 4.0099 4.53294C3.98459 4.66224 3.9984 4.79615 4.04957 4.91757L12.7162 26.2496C12.7696 26.3786 12.862 26.4877 12.9806 26.5615C13.0992 26.6353 13.2379 26.6701 13.3772 26.6609C13.5166 26.6518 13.6495 26.5993 13.7575 26.5106C13.8654 26.422 13.9428 26.3018 13.9789 26.1669L16.0709 18.0562C16.1822 17.5827 16.421 17.1486 16.7613 16.8011C17.1016 16.4535 17.5305 16.2056 18.0016 16.0842L26.1669 13.9789C26.3025 13.9437 26.4235 13.8667 26.5129 13.7588C26.6022 13.6509 26.6553 13.5176 26.6646 13.3779C26.6739 13.2381 26.6389 13.099 26.5647 12.9802C26.4904 12.8614 26.3806 12.7691 26.2509 12.7162L4.91757 4.04957Z" stroke="#9333EA" stroke-width="2.66667" stroke-linecap="round" stroke-linejoin="round"/>
</svg>
