<svg width="20" height="20" viewBox="0 0 20 20" fill="none" xmlns="http://www.w3.org/2000/svg">
<path d="M11.2502 5.83333C11.4803 5.83333 11.6668 5.64679 11.6668 5.41667C11.6668 5.18655 11.4803 5 11.2502 5C11.02 5 10.8335 5.18655 10.8335 5.41667C10.8335 5.64679 11.02 5.83333 11.2502 5.83333Z" fill="#0B64F4" stroke="#0B64F4" stroke-width="1.66667" stroke-linecap="round" stroke-linejoin="round"/>
<path d="M14.5832 9.16665C14.8133 9.16665 14.9998 8.9801 14.9998 8.74998C14.9998 8.51986 14.8133 8.33331 14.5832 8.33331C14.3531 8.33331 14.1665 8.51986 14.1665 8.74998C14.1665 8.9801 14.3531 9.16665 14.5832 9.16665Z" fill="#0B64F4" stroke="#0B64F4" stroke-width="1.66667" stroke-linecap="round" stroke-linejoin="round"/>
<path d="M7.08317 6.66665C7.31329 6.66665 7.49984 6.4801 7.49984 6.24998C7.49984 6.01986 7.31329 5.83331 7.08317 5.83331C6.85305 5.83331 6.6665 6.01986 6.6665 6.24998C6.6665 6.4801 6.85305 6.66665 7.08317 6.66665Z" fill="#0B64F4" stroke="#0B64F4" stroke-width="1.66667" stroke-linecap="round" stroke-linejoin="round"/>
<path d="M5.41667 10.8333C5.64679 10.8333 5.83333 10.6468 5.83333 10.4167C5.83333 10.1865 5.64679 10 5.41667 10C5.18655 10 5 10.1865 5 10.4167C5 10.6468 5.18655 10.8333 5.41667 10.8333Z" fill="#0B64F4" stroke="#0B64F4" stroke-width="1.66667" stroke-linecap="round" stroke-linejoin="round"/>
<path d="M9.99984 1.66669C5.4165 1.66669 1.6665 5.41669 1.6665 10C1.6665 14.5834 5.4165 18.3334 9.99984 18.3334C10.7715 18.3334 11.3732 17.7117 11.3732 16.9267C11.3732 16.5625 11.2232 16.2309 11.009 15.9892C10.7673 15.7484 10.644 15.4459 10.644 15.0517C10.6408 14.8683 10.6746 14.6861 10.7434 14.516C10.8121 14.346 10.9144 14.1915 11.0441 14.0618C11.1738 13.9321 11.3283 13.8298 11.4984 13.7611C11.6684 13.6923 11.8506 13.6585 12.034 13.6617H13.6973C16.2398 13.6617 18.3265 11.5759 18.3265 9.03335C18.304 5.01002 14.5507 1.66669 9.99984 1.66669Z" stroke="#0B64F4" stroke-width="1.66667" stroke-linecap="round" stroke-linejoin="round"/>
</svg>
