<svg width="20" height="20" viewBox="0 0 20 20" fill="none" xmlns="http://www.w3.org/2000/svg">
<path d="M15.0007 4.16667L12.989 2.15501C12.6765 1.84242 12.2526 1.66677 11.8107 1.66667H5.00065C4.55862 1.66667 4.1347 1.84227 3.82214 2.15483C3.50958 2.46739 3.33398 2.89131 3.33398 3.33334V16.6667C3.33398 17.1087 3.50958 17.5326 3.82214 17.8452C4.1347 18.1577 4.55862 18.3333 5.00065 18.3333H15.0007C15.4427 18.3333 15.8666 18.1577 16.1792 17.8452C16.4917 17.5326 16.6673 17.1087 16.6673 16.6667" stroke="#020817" stroke-width="1.66667" stroke-linecap="round" stroke-linejoin="round"/>
<path d="M17.8148 10.5217C18.1468 10.1897 18.3333 9.73947 18.3333 9.27C18.3333 8.80054 18.1468 8.3503 17.8148 8.01834C17.4829 7.68637 17.0326 7.49988 16.5632 7.49988C16.0937 7.49988 15.6434 7.68637 15.3115 8.01834L11.9698 11.3617C11.7717 11.5597 11.6267 11.8044 11.5482 12.0733L10.8507 14.465C10.8297 14.5367 10.8285 14.6127 10.847 14.6851C10.8656 14.7574 10.9032 14.8235 10.956 14.8763C11.0088 14.9291 11.0749 14.9668 11.1472 14.9853C11.2196 15.0038 11.2956 15.0026 11.3673 14.9817L13.759 14.2842C14.0279 14.2057 14.2726 14.0606 14.4707 13.8625L17.8148 10.5217Z" stroke="#020817" stroke-width="1.66667" stroke-linecap="round" stroke-linejoin="round"/>
<path d="M6.66602 15H7.49935" stroke="#020817" stroke-width="1.66667" stroke-linecap="round" stroke-linejoin="round"/>
</svg>
