<svg width="14" height="14" viewBox="0 0 14 14" fill="none" xmlns="http://www.w3.org/2000/svg">
<g clip-path="url(#clip0_350_54081)">
<path d="M12.8337 7.0013H11.387C11.1321 7.00076 10.884 7.08373 10.6806 7.23753C10.4773 7.39134 10.33 7.6075 10.2612 7.85297L8.89033 12.7296C8.88149 12.7599 8.86307 12.7865 8.83783 12.8055C8.81258 12.8244 8.78188 12.8346 8.75033 12.8346C8.71877 12.8346 8.68807 12.8244 8.66283 12.8055C8.63758 12.7865 8.61916 12.7599 8.61033 12.7296L5.39033 1.27297C5.38149 1.24268 5.36307 1.21607 5.33783 1.19714C5.31258 1.1782 5.28188 1.16797 5.25033 1.16797C5.21877 1.16797 5.18807 1.1782 5.16283 1.19714C5.13758 1.21607 5.11916 1.24268 5.11033 1.27297L3.73949 6.14964C3.67093 6.39414 3.52446 6.6096 3.32233 6.76331C3.12019 6.91702 2.87343 7.00058 2.61949 7.0013H1.16699" stroke="#FAFAFA" stroke-width="1.16667" stroke-linecap="round" stroke-linejoin="round"/>
</g>
<defs>
<clipPath id="clip0_350_54081">
<rect width="14" height="14" fill="white"/>
</clipPath>
</defs>
</svg>
