<svg width="16" height="16" viewBox="0 0 16 16" fill="none" xmlns="http://www.w3.org/2000/svg">
<path d="M6 2H2.66667C2.29848 2 2 2.29848 2 2.66667V7.33333C2 7.70152 2.29848 8 2.66667 8H6C6.36819 8 6.66667 7.70152 6.66667 7.33333V2.66667C6.66667 2.29848 6.36819 2 6 2Z" stroke="#3C83F6" stroke-width="1.33333" stroke-linecap="round" stroke-linejoin="round"/>
<path d="M13.333 2H9.99967C9.63148 2 9.33301 2.29848 9.33301 2.66667V4.66667C9.33301 5.03486 9.63148 5.33333 9.99967 5.33333H13.333C13.7012 5.33333 13.9997 5.03486 13.9997 4.66667V2.66667C13.9997 2.29848 13.7012 2 13.333 2Z" stroke="#3C83F6" stroke-width="1.33333" stroke-linecap="round" stroke-linejoin="round"/>
<path d="M13.333 8H9.99967C9.63148 8 9.33301 8.29848 9.33301 8.66667V13.3333C9.33301 13.7015 9.63148 14 9.99967 14H13.333C13.7012 14 13.9997 13.7015 13.9997 13.3333V8.66667C13.9997 8.29848 13.7012 8 13.333 8Z" stroke="#3C83F6" stroke-width="1.33333" stroke-linecap="round" stroke-linejoin="round"/>
<path d="M6 10.667H2.66667C2.29848 10.667 2 10.9655 2 11.3337V13.3337C2 13.7018 2.29848 14.0003 2.66667 14.0003H6C6.36819 14.0003 6.66667 13.7018 6.66667 13.3337V11.3337C6.66667 10.9655 6.36819 10.667 6 10.667Z" stroke="#3C83F6" stroke-width="1.33333" stroke-linecap="round" stroke-linejoin="round"/>
</svg>
