<svg width="16" height="16" viewBox="0 0 16 16" fill="none" xmlns="http://www.w3.org/2000/svg">
<path d="M9.99984 1.33331H3.99984C3.64622 1.33331 3.30708 1.47379 3.05703 1.72384C2.80698 1.97389 2.6665 2.31302 2.6665 2.66665V13.3333C2.6665 13.6869 2.80698 14.0261 3.05703 14.2761C3.30708 14.5262 3.64622 14.6666 3.99984 14.6666H11.9998C12.3535 14.6666 12.6926 14.5262 12.9426 14.2761C13.1927 14.0261 13.3332 13.6869 13.3332 13.3333V4.66665L9.99984 1.33331Z" stroke="#64748B" stroke-width="1.33333" stroke-linecap="round" stroke-linejoin="round"/>
<path d="M9.3335 1.33331V3.99998C9.3335 4.3536 9.47397 4.69274 9.72402 4.94279C9.97407 5.19284 10.3132 5.33331 10.6668 5.33331H13.3335" stroke="#64748B" stroke-width="1.33333" stroke-linecap="round" stroke-linejoin="round"/>
<path d="M6.66683 6H5.3335" stroke="#64748B" stroke-width="1.33333" stroke-linecap="round" stroke-linejoin="round"/>
<path d="M10.6668 8.66669H5.3335" stroke="#64748B" stroke-width="1.33333" stroke-linecap="round" stroke-linejoin="round"/>
<path d="M10.6668 11.3333H5.3335" stroke="#64748B" stroke-width="1.33333" stroke-linecap="round" stroke-linejoin="round"/>
</svg>
