<svg width="32" height="32" viewBox="0 0 32 32" fill="none" xmlns="http://www.w3.org/2000/svg">
<path d="M15.9997 16.6654C16.3679 16.6654 16.6663 16.3669 16.6663 15.9987C16.6663 15.6305 16.3679 15.332 15.9997 15.332C15.6315 15.332 15.333 15.6305 15.333 15.9987C15.333 16.3669 15.6315 16.6654 15.9997 16.6654Z" stroke="#0F1729" stroke-width="1.33333" stroke-linecap="round" stroke-linejoin="round"/>
<path d="M20.6667 16.6654C21.0349 16.6654 21.3333 16.3669 21.3333 15.9987C21.3333 15.6305 21.0349 15.332 20.6667 15.332C20.2985 15.332 20 15.6305 20 15.9987C20 16.3669 20.2985 16.6654 20.6667 16.6654Z" stroke="#0F1729" stroke-width="1.33333" stroke-linecap="round" stroke-linejoin="round"/>
<path d="M11.3337 16.6654C11.7018 16.6654 12.0003 16.3669 12.0003 15.9987C12.0003 15.6305 11.7018 15.332 11.3337 15.332C10.9655 15.332 10.667 15.6305 10.667 15.9987C10.667 16.3669 10.9655 16.6654 11.3337 16.6654Z" stroke="#0F1729" stroke-width="1.33333" stroke-linecap="round" stroke-linejoin="round"/>
</svg>
