<svg width="16" height="16" viewBox="0 0 16 16" fill="none" xmlns="http://www.w3.org/2000/svg">
<path d="M9.99984 1.33203H3.99984C3.64622 1.33203 3.30708 1.47251 3.05703 1.72256C2.80698 1.9726 2.6665 2.31174 2.6665 2.66536V13.332C2.6665 13.6857 2.80698 14.0248 3.05703 14.2748C3.30708 14.5249 3.64622 14.6654 3.99984 14.6654H11.9998C12.3535 14.6654 12.6926 14.5249 12.9426 14.2748C13.1927 14.0248 13.3332 13.6857 13.3332 13.332V4.66536L9.99984 1.33203Z" stroke="#0F1729" stroke-width="1.33333" stroke-linecap="round" stroke-linejoin="round"/>
<path d="M9.3335 1.33203V3.9987C9.3335 4.35232 9.47397 4.69146 9.72402 4.94151C9.97407 5.19156 10.3132 5.33203 10.6668 5.33203H13.3335" stroke="#0F1729" stroke-width="1.33333" stroke-linecap="round" stroke-linejoin="round"/>
<path d="M8 12V8" stroke="#0F1729" stroke-width="1.33333" stroke-linecap="round" stroke-linejoin="round"/>
<path d="M6 10L8 12L10 10" stroke="#0F1729" stroke-width="1.33333" stroke-linecap="round" stroke-linejoin="round"/>
</svg>
