<svg width="16" height="16" viewBox="0 0 16 16" fill="none" xmlns="http://www.w3.org/2000/svg">
<g clip-path="url(#clip0_2609_19737)">
<path d="M4.66699 12.0013V8.0013C4.66699 7.11725 5.01818 6.2694 5.6433 5.64428C6.26842 5.01916 7.11627 4.66797 8.00033 4.66797C8.88438 4.66797 9.73223 5.01916 10.3573 5.64428C10.9825 6.2694 11.3337 7.11725 11.3337 8.0013V12.0013" stroke="white" stroke-width="1.33333" stroke-linecap="round" stroke-linejoin="round"/>
<path d="M3.33301 14C3.33301 14.1768 3.40325 14.3464 3.52827 14.4714C3.65329 14.5964 3.82286 14.6667 3.99967 14.6667H11.9997C12.1765 14.6667 12.3461 14.5964 12.4711 14.4714C12.5961 14.3464 12.6663 14.1768 12.6663 14V13.3333C12.6663 12.9797 12.5259 12.6406 12.2758 12.3905C12.0258 12.1405 11.6866 12 11.333 12H4.66634C4.31272 12 3.97358 12.1405 3.72353 12.3905C3.47348 12.6406 3.33301 12.9797 3.33301 13.3333V14Z" stroke="white" stroke-width="1.33333" stroke-linecap="round" stroke-linejoin="round"/>
<path d="M14 8H14.6667" stroke="white" stroke-width="1.33333" stroke-linecap="round" stroke-linejoin="round"/>
<path d="M12.3333 3L12 3.33333" stroke="white" stroke-width="1.33333" stroke-linecap="round" stroke-linejoin="round"/>
<path d="M1.33301 8H1.99967" stroke="white" stroke-width="1.33333" stroke-linecap="round" stroke-linejoin="round"/>
<path d="M8 1.33203V1.9987" stroke="white" stroke-width="1.33333" stroke-linecap="round" stroke-linejoin="round"/>
<path d="M3.28613 3.28516L3.75747 3.75649" stroke="white" stroke-width="1.33333" stroke-linecap="round" stroke-linejoin="round"/>
<path d="M8 8V12" stroke="white" stroke-width="1.33333" stroke-linecap="round" stroke-linejoin="round"/>
</g>
<defs>
<clipPath id="clip0_2609_19737">
<rect width="16" height="16" fill="white"/>
</clipPath>
</defs>
</svg>
