<svg width="15" height="18" viewBox="0 0 15 18" fill="none" xmlns="http://www.w3.org/2000/svg">
<mask id="path-1-inside-1_4150_6238" fill="white">
<path d="M14.8125 15.0317C14.8782 15.1051 14.9288 15.1907 14.9614 15.2837C14.994 15.3767 15.008 15.4752 15.0025 15.5736C14.997 15.672 14.9722 15.7683 14.9294 15.8571C14.8867 15.9459 14.8269 16.0254 14.7534 16.091C13.722 17.0147 12.4549 17.6348 11.0927 17.8826C9.73049 18.1305 8.32625 17.9964 7.03554 17.4952C5.74484 16.9941 4.61806 16.1454 3.78002 15.0432C2.94198 13.9411 2.4254 12.6284 2.2875 11.2507H0.75C0.551088 11.2507 0.360322 11.1717 0.21967 11.0311C0.0790178 10.8904 0 10.6996 0 10.5007C0 10.3018 0.0790178 10.111 0.21967 9.97039C0.360322 9.82974 0.551088 9.75072 0.75 9.75072H2.25V8.25072H0.75C0.551088 8.25072 0.360322 8.17171 0.21967 8.03105C0.0790178 7.8904 0 7.69964 0 7.50072C0 7.30181 0.0790178 7.11105 0.21967 6.97039C0.360322 6.82974 0.551088 6.75072 0.75 6.75072H2.2875C2.42578 5.37355 2.94245 4.06151 3.78032 2.95983C4.61819 1.85816 5.74457 1.00982 7.03478 0.508744C8.32499 0.0076654 9.72869 -0.126613 11.0905 0.120774C12.4523 0.36816 13.7191 0.987562 14.7506 1.91041C14.8989 2.04319 14.9884 2.22944 14.9994 2.4282C15.0104 2.62696 14.942 2.82194 14.8092 2.97025C14.6764 3.11857 14.4902 3.20806 14.2914 3.21905C14.0927 3.23004 13.8977 3.16162 13.7494 3.02885C12.9337 2.29993 11.9342 1.80789 10.8591 1.60594C9.78394 1.404 8.67405 1.49982 7.64944 1.88306C6.62484 2.2663 5.7245 2.92237 5.0458 3.78031C4.3671 4.63825 3.93587 5.66542 3.79875 6.75072H9.75C9.94891 6.75072 10.1397 6.82974 10.2803 6.97039C10.421 7.11105 10.5 7.30181 10.5 7.50072C10.5 7.69964 10.421 7.8904 10.2803 8.03105C10.1397 8.17171 9.94891 8.25072 9.75 8.25072H3.75V9.75072H8.25C8.44891 9.75072 8.63968 9.82974 8.78033 9.97039C8.92098 10.111 9 10.3018 9 10.5007C9 10.6996 8.92098 10.8904 8.78033 11.0311C8.63968 11.1717 8.44891 11.2507 8.25 11.2507H3.79875C3.93573 12.3361 4.36685 13.3634 5.04549 14.2215C5.72413 15.0795 6.62445 15.7357 7.64909 16.1191C8.67372 16.5024 9.78366 16.5983 10.8589 16.3964C11.9341 16.1945 12.9336 15.7025 13.7494 14.9735C13.8228 14.9072 13.9087 14.856 14.002 14.823C14.0953 14.79 14.1942 14.7758 14.293 14.7812C14.3919 14.7866 14.4886 14.8115 14.5778 14.8545C14.667 14.8975 14.7467 14.9577 14.8125 15.0317Z"/>
</mask>
<path d="M14.8125 15.0317C14.8782 15.1051 14.9288 15.1907 14.9614 15.2837C14.994 15.3767 15.008 15.4752 15.0025 15.5736C14.997 15.672 14.9722 15.7683 14.9294 15.8571C14.8867 15.9459 14.8269 16.0254 14.7534 16.091C13.722 17.0147 12.4549 17.6348 11.0927 17.8826C9.73049 18.1305 8.32625 17.9964 7.03554 17.4952C5.74484 16.9941 4.61806 16.1454 3.78002 15.0432C2.94198 13.9411 2.4254 12.6284 2.2875 11.2507H0.75C0.551088 11.2507 0.360322 11.1717 0.21967 11.0311C0.0790178 10.8904 0 10.6996 0 10.5007C0 10.3018 0.0790178 10.111 0.21967 9.97039C0.360322 9.82974 0.551088 9.75072 0.75 9.75072H2.25V8.25072H0.75C0.551088 8.25072 0.360322 8.17171 0.21967 8.03105C0.0790178 7.8904 0 7.69964 0 7.50072C0 7.30181 0.0790178 7.11105 0.21967 6.97039C0.360322 6.82974 0.551088 6.75072 0.75 6.75072H2.2875C2.42578 5.37355 2.94245 4.06151 3.78032 2.95983C4.61819 1.85816 5.74457 1.00982 7.03478 0.508744C8.32499 0.0076654 9.72869 -0.126613 11.0905 0.120774C12.4523 0.36816 13.7191 0.987562 14.7506 1.91041C14.8989 2.04319 14.9884 2.22944 14.9994 2.4282C15.0104 2.62696 14.942 2.82194 14.8092 2.97025C14.6764 3.11857 14.4902 3.20806 14.2914 3.21905C14.0927 3.23004 13.8977 3.16162 13.7494 3.02885C12.9337 2.29993 11.9342 1.80789 10.8591 1.60594C9.78394 1.404 8.67405 1.49982 7.64944 1.88306C6.62484 2.2663 5.7245 2.92237 5.0458 3.78031C4.3671 4.63825 3.93587 5.66542 3.79875 6.75072H9.75C9.94891 6.75072 10.1397 6.82974 10.2803 6.97039C10.421 7.11105 10.5 7.30181 10.5 7.50072C10.5 7.69964 10.421 7.8904 10.2803 8.03105C10.1397 8.17171 9.94891 8.25072 9.75 8.25072H3.75V9.75072H8.25C8.44891 9.75072 8.63968 9.82974 8.78033 9.97039C8.92098 10.111 9 10.3018 9 10.5007C9 10.6996 8.92098 10.8904 8.78033 11.0311C8.63968 11.1717 8.44891 11.2507 8.25 11.2507H3.79875C3.93573 12.3361 4.36685 13.3634 5.04549 14.2215C5.72413 15.0795 6.62445 15.7357 7.64909 16.1191C8.67372 16.5024 9.78366 16.5983 10.8589 16.3964C11.9341 16.1945 12.9336 15.7025 13.7494 14.9735C13.8228 14.9072 13.9087 14.856 14.002 14.823C14.0953 14.79 14.1942 14.7758 14.293 14.7812C14.3919 14.7866 14.4886 14.8115 14.5778 14.8545C14.667 14.8975 14.7467 14.9577 14.8125 15.0317Z" fill="#1F2937"/>
<path d="M14.8125 15.0317L13.3181 16.3609L13.3222 16.3655L14.8125 15.0317ZM14.7534 16.091L13.4206 14.5998L13.4192 14.6011L14.7534 16.091ZM2.2875 11.2507L4.27756 11.0515L4.09731 9.25072H2.2875V11.2507ZM2.25 9.75072V11.7507H4.25V9.75072H2.25ZM2.25 8.25072H4.25V6.25072H2.25V8.25072ZM0.21967 8.03105L-1.19454 9.44527L0.21967 8.03105ZM2.2875 6.75072V8.75072H4.09674L4.27749 6.95053L2.2875 6.75072ZM14.7506 1.91041L16.0846 0.420288L16.0841 0.419853L14.7506 1.91041ZM13.7494 3.02885L15.0834 1.53873L15.082 1.53753L13.7494 3.02885ZM3.79875 6.75072L1.81452 6.50003L1.53016 8.75072H3.79875V6.75072ZM10.2803 8.03105L11.6945 9.44527L10.2803 8.03105ZM3.75 8.25072V6.25072H1.75V8.25072H3.75ZM3.75 9.75072H1.75V11.7507H3.75V9.75072ZM3.79875 11.2507V9.25072H1.53048L1.81449 11.5011L3.79875 11.2507ZM13.7494 14.9735L15.082 16.4649L15.09 16.4577L13.7494 14.9735ZM14.8125 15.0317L13.3222 16.3655C13.2127 16.2431 13.1284 16.1003 13.074 15.9454L14.9614 15.2837L16.8488 14.6221C16.7293 14.2811 16.5437 13.9671 16.3028 13.6979L14.8125 15.0317ZM14.9614 15.2837L13.074 15.9454C13.0197 15.7904 12.9964 15.6262 13.0056 15.4623L15.0025 15.5736L16.9994 15.6849C17.0195 15.3242 16.9683 14.963 16.8488 14.6221L14.9614 15.2837ZM15.0025 15.5736L13.0056 15.4623C13.0147 15.2983 13.0561 15.1377 13.1273 14.9897L14.9294 15.8571L16.7316 16.7244C16.8883 16.3989 16.9793 16.0456 16.9994 15.6849L15.0025 15.5736ZM14.9294 15.8571L13.1273 14.9897C13.1985 14.8418 13.2982 14.7093 13.4206 14.5998L14.7534 16.091L16.0862 17.5822C16.3556 17.3415 16.5749 17.05 16.7316 16.7244L14.9294 15.8571ZM14.7534 16.091L13.4192 14.6011C12.6628 15.2784 11.7337 15.7332 10.7347 15.9149L11.0927 17.8826L11.4507 19.8503C13.1762 19.5364 14.7811 18.7509 16.0876 17.581L14.7534 16.091ZM11.0927 17.8826L10.7347 15.9149C9.73575 16.0967 8.70597 15.9983 7.75945 15.6308L7.03554 17.4952L6.31163 19.3596C7.94652 19.9944 9.72523 20.1643 11.4507 19.8503L11.0927 17.8826ZM7.03554 17.4952L7.75945 15.6308C6.81294 15.2633 5.98663 14.641 5.37207 13.8327L3.78002 15.0432L2.18797 16.2538C3.24948 17.6498 4.67674 18.7248 6.31163 19.3596L7.03554 17.4952ZM3.78002 15.0432L5.37207 13.8327C4.75751 13.0244 4.37868 12.0618 4.27756 11.0515L2.2875 11.2507L0.297444 11.4499C0.472116 13.195 1.12645 14.8577 2.18797 16.2538L3.78002 15.0432ZM2.2875 11.2507V9.25072H0.75V11.2507V13.2507H2.2875V11.2507ZM0.75 11.2507V9.25072C1.08152 9.25072 1.39946 9.38242 1.63388 9.61684L0.21967 11.0311L-1.19454 12.4453C-0.678816 12.961 0.0206581 13.2507 0.75 13.2507V11.2507ZM0.21967 11.0311L1.63388 9.61684C1.8683 9.85126 2 10.1692 2 10.5007H0H-2C-2 11.2301 -1.71027 11.9295 -1.19454 12.4453L0.21967 11.0311ZM0 10.5007H2C2 10.8322 1.8683 11.1502 1.63388 11.3846L0.21967 9.97039L-1.19454 8.55618C-1.71027 9.07191 -2 9.77138 -2 10.5007H0ZM0.21967 9.97039L1.63388 11.3846C1.39946 11.619 1.08152 11.7507 0.75 11.7507V9.75072V7.75072C0.0206581 7.75072 -0.678816 8.04045 -1.19454 8.55618L0.21967 9.97039ZM0.75 9.75072V11.7507H2.25V9.75072V7.75072H0.75V9.75072ZM2.25 9.75072H4.25V8.25072H2.25H0.25V9.75072H2.25ZM2.25 8.25072V6.25072H0.75V8.25072V10.2507H2.25V8.25072ZM0.75 8.25072V6.25072C1.08152 6.25072 1.39946 6.38242 1.63388 6.61684L0.21967 8.03105L-1.19454 9.44527C-0.67882 9.96099 0.0206532 10.2507 0.75 10.2507V8.25072ZM0.21967 8.03105L1.63388 6.61684C1.8683 6.85126 2 7.1692 2 7.50072H0H-2C-2 8.23007 -1.71027 8.92954 -1.19454 9.44527L0.21967 8.03105ZM0 7.50072H2C2 7.83225 1.8683 8.15019 1.63388 8.38461L0.21967 6.97039L-1.19454 5.55618C-1.71027 6.0719 -2 6.77138 -2 7.50072H0ZM0.21967 6.97039L1.63388 8.38461C1.39946 8.61903 1.08152 8.75072 0.75 8.75072V6.75072V4.75072C0.0206532 4.75072 -0.67882 5.04046 -1.19454 5.55618L0.21967 6.97039ZM0.75 6.75072V8.75072H2.2875V6.75072V4.75072H0.75V6.75072ZM2.2875 6.75072L4.27749 6.95053C4.3789 5.94061 4.75779 4.97844 5.37223 4.17054L3.78032 2.95983L2.18841 1.74912C1.12711 3.14458 0.472656 4.8065 0.297506 6.55092L2.2875 6.75072ZM3.78032 2.95983L5.37223 4.17054C5.98666 3.36265 6.81268 2.74054 7.75883 2.37308L7.03478 0.508744L6.31073 -1.35559C4.67646 -0.720891 3.24971 0.353665 2.18841 1.74912L3.78032 2.95983ZM7.03478 0.508744L7.75883 2.37308C8.70498 2.00562 9.73437 1.90715 10.733 2.08857L11.0905 0.120774L11.448 -1.84702C9.72301 -2.16038 7.94499 -1.99029 6.31073 -1.35559L7.03478 0.508744ZM11.0905 0.120774L10.733 2.08857C11.7317 2.26998 12.6607 2.72421 13.4171 3.40097L14.7506 1.91041L16.0841 0.419853C14.7775 -0.749088 13.1729 -1.53366 11.448 -1.84702L11.0905 0.120774ZM14.7506 1.91041L13.4166 3.40053C13.1697 3.17951 13.0208 2.86946 13.0025 2.5386L14.9994 2.4282L16.9964 2.3178C16.9561 1.58941 16.6281 0.90686 16.0846 0.420288L14.7506 1.91041ZM14.9994 2.4282L13.0025 2.5386C12.9842 2.20774 13.0981 1.88316 13.3191 1.63626L14.8092 2.97025L16.2993 4.30425C16.7859 3.76073 17.0366 3.04618 16.9964 2.3178L14.9994 2.4282ZM14.8092 2.97025L13.3191 1.63626C13.5401 1.38937 13.8502 1.24039 14.181 1.2221L14.2914 3.21905L14.4018 5.216C15.1302 5.17573 15.8128 4.84776 16.2993 4.30425L14.8092 2.97025ZM14.2914 3.21905L14.181 1.2221C14.5119 1.20381 14.8365 1.3177 15.0834 1.53873L13.7494 3.02885L12.4154 4.51897C12.9589 5.00554 13.6735 5.25627 14.4018 5.216L14.2914 3.21905ZM13.7494 3.02885L15.082 1.53753C13.9944 0.565637 12.6618 -0.0904147 11.2283 -0.35968L10.8591 1.60594L10.4899 3.57157C11.2066 3.7062 11.8729 4.03423 12.4167 4.52017L13.7494 3.02885ZM10.8591 1.60594L11.2283 -0.35968C9.79478 -0.628945 8.31493 -0.501176 6.94878 0.00980867L7.64944 1.88306L8.3501 3.75631C9.03318 3.50082 9.7731 3.43694 10.4899 3.57157L10.8591 1.60594ZM7.64944 1.88306L6.94878 0.00980867C5.58264 0.520794 4.38219 1.39555 3.47726 2.53947L5.0458 3.78031L6.61434 5.02114C7.06681 4.44918 7.66703 4.01181 8.3501 3.75631L7.64944 1.88306ZM5.0458 3.78031L3.47726 2.53947C2.57233 3.68339 1.99736 5.05295 1.81452 6.50003L3.79875 6.75072L5.78298 7.00142C5.87439 6.27788 6.16188 5.59311 6.61434 5.02114L5.0458 3.78031ZM3.79875 6.75072V8.75072H9.75V6.75072V4.75072H3.79875V6.75072ZM9.75 6.75072V8.75072C9.41848 8.75072 9.10054 8.61903 8.86612 8.38461L10.2803 6.97039L11.6945 5.55618C11.1788 5.04045 10.4793 4.75072 9.75 4.75072V6.75072ZM10.2803 6.97039L8.86612 8.38461C8.63169 8.15018 8.5 7.83224 8.5 7.50072H10.5H12.5C12.5 6.77138 12.2103 6.07191 11.6945 5.55618L10.2803 6.97039ZM10.5 7.50072H8.5C8.5 7.16921 8.63169 6.85126 8.86612 6.61684L10.2803 8.03105L11.6945 9.44527C12.2103 8.92954 12.5 8.23007 12.5 7.50072H10.5ZM10.2803 8.03105L8.86612 6.61684C9.10054 6.38242 9.41848 6.25072 9.75 6.25072V8.25072V10.2507C10.4793 10.2507 11.1788 9.96099 11.6945 9.44527L10.2803 8.03105ZM9.75 8.25072V6.25072H3.75V8.25072V10.2507H9.75V8.25072ZM3.75 8.25072H1.75V9.75072H3.75H5.75V8.25072H3.75ZM3.75 9.75072V11.7507H8.25V9.75072V7.75072H3.75V9.75072ZM8.25 9.75072V11.7507C7.91848 11.7507 7.60054 11.619 7.36612 11.3846L8.78033 9.97039L10.1945 8.55618C9.67882 8.04045 8.97934 7.75072 8.25 7.75072V9.75072ZM8.78033 9.97039L7.36612 11.3846C7.1317 11.1502 7 10.8322 7 10.5007H9H11C11 9.77138 10.7103 9.07191 10.1945 8.55618L8.78033 9.97039ZM9 10.5007H7C7 10.1692 7.1317 9.85126 7.36612 9.61684L8.78033 11.0311L10.1945 12.4453C10.7103 11.9295 11 11.2301 11 10.5007H9ZM8.78033 11.0311L7.36612 9.61684C7.60054 9.38242 7.91848 9.25072 8.25 9.25072V11.2507V13.2507C8.97934 13.2507 9.67882 12.961 10.1945 12.4453L8.78033 11.0311ZM8.25 11.2507V9.25072H3.79875V11.2507V13.2507H8.25V11.2507ZM3.79875 11.2507L1.81449 11.5011C1.99713 12.9483 2.57196 14.318 3.47681 15.4621L5.04549 14.2215L6.61417 12.9808C6.16174 12.4088 5.87433 11.7239 5.78301 11.0003L3.79875 11.2507ZM5.04549 14.2215L3.47681 15.4621C4.38166 16.6062 5.58209 17.4811 6.94827 17.9923L7.64909 16.1191L8.3499 14.2459C7.66681 13.9903 7.0666 13.5528 6.61417 12.9808L5.04549 14.2215ZM7.64909 16.1191L6.94827 17.9923C8.31445 18.5034 9.79437 18.6313 11.228 18.362L10.8589 16.3964L10.4898 14.4308C9.77295 14.5654 9.03299 14.5014 8.3499 14.2459L7.64909 16.1191ZM10.8589 16.3964L11.228 18.362C12.6616 18.0928 13.9943 17.4368 15.082 16.4649L13.7494 14.9735L12.4168 13.4822C11.8729 13.9681 11.2066 14.2962 10.4898 14.4308L10.8589 16.3964ZM13.7494 14.9735L15.09 16.4577C14.9676 16.5683 14.8245 16.6535 14.6689 16.7086L14.002 14.823L13.335 12.9375C12.9929 13.0586 12.6781 13.2461 12.4088 13.4893L13.7494 14.9735ZM14.002 14.823L14.6689 16.7086C14.5134 16.7636 14.3486 16.7873 14.1839 16.7782L14.293 14.7812L14.4022 12.7842C14.0399 12.7644 13.6772 12.8165 13.335 12.9375L14.002 14.823ZM14.293 14.7812L14.1839 16.7782C14.0192 16.7692 13.8579 16.7277 13.7093 16.6561L14.5778 14.8545L15.4464 13.053C15.1194 12.8954 14.7646 12.804 14.4022 12.7842L14.293 14.7812ZM14.5778 14.8545L13.7093 16.6561C13.5607 16.5844 13.4277 16.4841 13.3181 16.3609L14.8125 15.0317L16.3069 13.7025C16.0657 13.4313 15.7732 13.2106 15.4464 13.053L14.5778 14.8545Z" fill="#0D8CFF" mask="url(#path-1-inside-1_4150_6238)"/>
</svg>
