<svg width="24" height="24" viewBox="0 0 24 24" fill="none" xmlns="http://www.w3.org/2000/svg">
<path d="M10.0518 3.552C11.3339 3.05406 12.7288 2.92044 14.082 3.16626C15.4353 3.4121 16.6946 4.0275 17.7197 4.94458C17.8586 5.06902 17.9418 5.24373 17.9521 5.42993C17.9625 5.61628 17.8989 5.79967 17.7744 5.93872C17.65 6.07759 17.4752 6.16079 17.2891 6.17114C17.1027 6.18144 16.9193 6.11789 16.7803 5.99341C15.9583 5.25891 14.9515 4.7624 13.8682 4.55884C12.7846 4.35531 11.6654 4.4519 10.6328 4.83813C9.60025 5.22437 8.69277 5.88564 8.00879 6.75024C7.32479 7.61489 6.89015 8.6506 6.75195 9.74438L6.74512 9.79712H12.75C12.9365 9.79712 13.1152 9.87131 13.2471 10.0032C13.3789 10.135 13.4531 10.3138 13.4531 10.5002C13.4531 10.6866 13.3789 10.8655 13.2471 10.9973C13.1152 11.1291 12.9364 11.2034 12.75 11.2034H6.70312V12.7971H11.25C11.4365 12.7971 11.6152 12.8713 11.7471 13.0032C11.8789 13.135 11.9531 13.3138 11.9531 13.5002C11.9531 13.6866 11.8789 13.8655 11.7471 13.9973C11.6152 14.1291 11.4364 14.2034 11.25 14.2034H6.74512L6.75195 14.2561C6.89003 15.3499 7.32489 16.3855 8.00879 17.2502C8.6927 18.1149 9.6003 18.7761 10.6328 19.1624C11.6653 19.5486 12.7837 19.645 13.8672 19.4417C14.9506 19.2382 15.9582 18.7425 16.7803 18.0081H16.7812C16.8501 17.9459 16.9301 17.8974 17.0176 17.8665C17.1049 17.8356 17.1975 17.8224 17.29 17.8274C17.3827 17.8325 17.474 17.8555 17.5576 17.8958C17.6411 17.936 17.7157 17.9926 17.7773 18.0618C17.8389 18.1305 17.8864 18.2111 17.917 18.2981C17.9476 18.3853 17.9612 18.4783 17.9561 18.5706C17.9509 18.6627 17.9267 18.753 17.8867 18.8362C17.8468 18.9191 17.7912 18.9935 17.7227 19.0549H17.7217C16.6967 19.9728 15.4377 20.5899 14.084 20.8362C12.7304 21.0824 11.3352 20.9484 10.0527 20.4504C8.7701 19.9524 7.65018 19.1092 6.81738 18.0139C5.98464 16.9187 5.47102 15.6144 5.33398 14.2454L5.33008 14.2034H3.75C3.56358 14.2034 3.38478 14.1291 3.25293 13.9973C3.12113 13.8655 3.04694 13.6866 3.04688 13.5002C3.04688 13.3138 3.12115 13.135 3.25293 13.0032C3.38479 12.8713 3.56352 12.7971 3.75 12.7971H5.29688V11.2034H3.75C3.56358 11.2034 3.38478 11.1291 3.25293 10.9973C3.12113 10.8655 3.04694 10.6866 3.04688 10.5002C3.04688 10.3138 3.12115 10.135 3.25293 10.0032C3.38479 9.87131 3.56352 9.79712 3.75 9.79712H5.33008L5.33398 9.75513C5.47139 8.38663 5.98482 7.08231 6.81738 5.98755C7.65 4.89278 8.76965 4.04995 10.0518 3.552Z" fill="#64748B" stroke="#64748B" stroke-width="0.09375"/>
</svg>
