<svg width="20" height="20" viewBox="0 0 20 20" fill="none" xmlns="http://www.w3.org/2000/svg">
<path d="M12.5002 1.66663H5.00016C4.55814 1.66663 4.13421 1.84222 3.82165 2.15478C3.50909 2.46734 3.3335 2.89127 3.3335 3.33329V16.6666C3.3335 17.1087 3.50909 17.5326 3.82165 17.8451C4.13421 18.1577 4.55814 18.3333 5.00016 18.3333H15.0002C15.4422 18.3333 15.8661 18.1577 16.1787 17.8451C16.4912 17.5326 16.6668 17.1087 16.6668 16.6666V5.83329L12.5002 1.66663Z" stroke="#676F7E" stroke-width="1.66667" stroke-linecap="round" stroke-linejoin="round"/>
<path d="M11.6665 1.66663V4.99996C11.6665 5.44199 11.8421 5.86591 12.1547 6.17847C12.4672 6.49103 12.8911 6.66663 13.3332 6.66663H16.6665" stroke="#676F7E" stroke-width="1.66667" stroke-linecap="round" stroke-linejoin="round"/>
<path d="M7.5 12.5L9.16667 14.1667L12.5 10.8334" stroke="#676F7E" stroke-width="1.66667" stroke-linecap="round" stroke-linejoin="round"/>
</svg>
