<svg width="16" height="16" viewBox="0 0 16 16" fill="none" xmlns="http://www.w3.org/2000/svg">
<path d="M9.99935 1.33334H3.99935C3.64573 1.33334 3.30659 1.47382 3.05654 1.72387C2.80649 1.97392 2.66602 2.31305 2.66602 2.66668V13.3333C2.66602 13.687 2.80649 14.0261 3.05654 14.2762C3.30659 14.5262 3.64573 14.6667 3.99935 14.6667H11.9993C12.353 14.6667 12.6921 14.5262 12.9422 14.2762C13.1922 14.0261 13.3327 13.687 13.3327 13.3333V4.66668L9.99935 1.33334Z" stroke="#0D8CFF" stroke-width="1.33333" stroke-linecap="round" stroke-linejoin="round"/>
<path d="M9.33398 1.33334V4.00001C9.33398 4.35363 9.47446 4.69277 9.72451 4.94282C9.97456 5.19287 10.3137 5.33334 10.6673 5.33334H13.334" stroke="#0D8CFF" stroke-width="1.33333" stroke-linecap="round" stroke-linejoin="round"/>
<path d="M6.66732 6H5.33398" stroke="#0D8CFF" stroke-width="1.33333" stroke-linecap="round" stroke-linejoin="round"/>
<path d="M10.6673 8.66666H5.33398" stroke="#0D8CFF" stroke-width="1.33333" stroke-linecap="round" stroke-linejoin="round"/>
<path d="M10.6673 11.3333H5.33398" stroke="#0D8CFF" stroke-width="1.33333" stroke-linecap="round" stroke-linejoin="round"/>
</svg>
