<svg width="20" height="20" viewBox="0 0 20 20" fill="none" xmlns="http://www.w3.org/2000/svg">
<path d="M4.375 1.92188H11.875C11.9509 1.92182 12.0265 1.93681 12.0967 1.96582C12.1667 1.99483 12.2305 2.03723 12.2842 2.09082L16.6592 6.46582C16.7128 6.51947 16.7552 6.58326 16.7842 6.65332C16.8132 6.7235 16.8282 6.79906 16.8281 6.875V16.875C16.8281 17.1941 16.7012 17.5 16.4756 17.7256C16.25 17.9512 15.9441 18.0781 15.625 18.0781H4.375C4.05591 18.0781 3.75004 17.9512 3.52441 17.7256C3.29878 17.5 3.17188 17.1941 3.17188 16.875V3.125C3.17188 2.80591 3.29878 2.50004 3.52441 2.27441C3.75004 2.04878 4.05591 1.92188 4.375 1.92188ZM4.32812 16.9219H15.6719V7.45312H11.875C11.7217 7.45312 11.5742 7.3926 11.4658 7.28418C11.3574 7.17576 11.2969 7.02833 11.2969 6.875V3.07812H4.32812V16.9219ZM7.5 12.5469H12.5C12.6533 12.5469 12.8008 12.6074 12.9092 12.7158C13.0176 12.8242 13.0781 12.9717 13.0781 13.125C13.0781 13.2783 13.0176 13.4258 12.9092 13.5342C12.8008 13.6426 12.6533 13.7031 12.5 13.7031H7.5C7.34667 13.7031 7.19924 13.6426 7.09082 13.5342C6.9824 13.4258 6.92188 13.2783 6.92188 13.125C6.92188 12.9717 6.9824 12.8242 7.09082 12.7158C7.19924 12.6074 7.34667 12.5469 7.5 12.5469ZM7.5 10.0469H12.5C12.6533 10.0469 12.8008 10.1074 12.9092 10.2158C13.0176 10.3242 13.0781 10.4717 13.0781 10.625C13.0781 10.7783 13.0176 10.9258 12.9092 11.0342C12.8008 11.1426 12.6533 11.2031 12.5 11.2031H7.5C7.34667 11.2031 7.19924 11.1426 7.09082 11.0342C6.9824 10.9258 6.92188 10.7783 6.92188 10.625C6.92188 10.4717 6.9824 10.3242 7.09082 10.2158C7.19924 10.1074 7.34667 10.0469 7.5 10.0469ZM12.4531 6.29688H14.8545L12.4531 3.89551V6.29688Z" fill="#9CA3AF" stroke="#9CA3AF" stroke-width="0.09375"/>
</svg>
