<svg width="20" height="20" viewBox="0 0 20 20" fill="none" xmlns="http://www.w3.org/2000/svg">
<path d="M12.4997 1.66797H4.99967C4.55765 1.66797 4.13372 1.84356 3.82116 2.15612C3.5086 2.46868 3.33301 2.89261 3.33301 3.33464V16.668C3.33301 17.11 3.5086 17.5339 3.82116 17.8465C4.13372 18.159 4.55765 18.3346 4.99967 18.3346H14.9997C15.4417 18.3346 15.8656 18.159 16.1782 17.8465C16.4907 17.5339 16.6663 17.11 16.6663 16.668V5.83464L12.4997 1.66797Z" stroke="#7C3BED" stroke-width="1.66667" stroke-linecap="round" stroke-linejoin="round"/>
<path d="M11.667 1.66797V5.0013C11.667 5.44333 11.8426 5.86725 12.1551 6.17981C12.4677 6.49237 12.8916 6.66797 13.3337 6.66797H16.667" stroke="#7C3BED" stroke-width="1.66667" stroke-linecap="round" stroke-linejoin="round"/>
<path d="M7.5 12.4987L9.16667 14.1654L12.5 10.832" stroke="#7C3BED" stroke-width="1.66667" stroke-linecap="round" stroke-linejoin="round"/>
</svg>
