<svg width="20" height="20" viewBox="0 0 20 20" fill="none" xmlns="http://www.w3.org/2000/svg">
<path d="M8.3329 1.66797V7.94047C8.33314 8.19964 8.27294 8.4553 8.15707 8.68714L3.9329 17.1263C3.86866 17.2538 3.83824 17.3956 3.84457 17.5383C3.8509 17.6809 3.89376 17.8195 3.96905 17.9408C4.04434 18.0621 4.14952 18.162 4.27452 18.231C4.39952 18.2999 4.54014 18.3356 4.6829 18.3346H15.3162C15.459 18.3356 15.5996 18.2999 15.7246 18.231C15.8496 18.162 15.9548 18.0621 16.0301 17.9408C16.1054 17.8195 16.1482 17.6809 16.1546 17.5383C16.1609 17.3956 16.1305 17.2538 16.0662 17.1263L11.8421 8.68714C11.7262 8.4553 11.666 8.19964 11.6662 7.94047V1.66797" stroke="#F97415" stroke-width="1.66667" stroke-linecap="round" stroke-linejoin="round"/>
<path d="M7.08301 1.66797H12.9163" stroke="#F97415" stroke-width="1.66667" stroke-linecap="round" stroke-linejoin="round"/>
<path d="M5.83301 13.332H14.1663" stroke="#F97415" stroke-width="1.66667" stroke-linecap="round" stroke-linejoin="round"/>
</svg>
