<svg width="20" height="20" viewBox="0 0 20 20" fill="none" xmlns="http://www.w3.org/2000/svg">
<path d="M9.99954 8.33301C9.55752 8.33301 9.13359 8.5086 8.82103 8.82116C8.50847 9.13372 8.33288 9.55765 8.33288 9.99967C8.33288 10.8497 8.24954 12.0913 8.11621 13.333" stroke="#65758B" stroke-width="1.66667" stroke-linecap="round" stroke-linejoin="round"/>
<path d="M11.6663 10.9336C11.6663 12.9169 11.6663 16.2503 10.833 18.3336" stroke="#65758B" stroke-width="1.66667" stroke-linecap="round" stroke-linejoin="round"/>
<path d="M14.4082 17.5167C14.5082 17.0167 14.7665 15.6 14.8249 15" stroke="#65758B" stroke-width="1.66667" stroke-linecap="round" stroke-linejoin="round"/>
<path d="M1.66699 10.0003C1.66699 8.2513 2.2173 6.54662 3.23997 5.12774C4.26264 3.70886 5.70583 2.64772 7.36509 2.09463C9.02436 1.54154 10.8156 1.52454 12.4851 2.04605C14.1545 2.56755 15.6176 3.60111 16.667 5.00033" stroke="#65758B" stroke-width="1.66667" stroke-linecap="round" stroke-linejoin="round"/>
<path d="M1.66699 13.333H1.67533" stroke="#65758B" stroke-width="1.66667" stroke-linecap="round" stroke-linejoin="round"/>
<path d="M18.167 13.333C18.3337 11.6663 18.2762 8.87134 18.167 8.33301" stroke="#65758B" stroke-width="1.66667" stroke-linecap="round" stroke-linejoin="round"/>
<path d="M4.16699 16.2497C4.58366 14.9997 5.00033 12.4997 5.00033 9.99967C4.99948 9.43206 5.0953 8.86845 5.28366 8.33301" stroke="#65758B" stroke-width="1.66667" stroke-linecap="round" stroke-linejoin="round"/>
<path d="M7.20801 18.3337C7.38301 17.7837 7.58301 17.2337 7.68301 16.667" stroke="#65758B" stroke-width="1.66667" stroke-linecap="round" stroke-linejoin="round"/>
<path d="M7.5 5.66694C8.26033 5.22797 9.12285 4.99693 10.0008 4.99707C10.8788 4.99721 11.7412 5.22852 12.5014 5.66774C13.2616 6.10697 13.8927 6.73861 14.3313 7.49915C14.7699 8.2597 15.0006 9.12232 15 10.0003V11.6669" stroke="#65758B" stroke-width="1.66667" stroke-linecap="round" stroke-linejoin="round"/>
</svg>
