<svg width="20" height="20" viewBox="0 0 20 20" fill="none" xmlns="http://www.w3.org/2000/svg">
<path d="M16.666 16.6667C17.108 16.6667 17.532 16.4911 17.8445 16.1785C18.1571 15.866 18.3327 15.442 18.3327 15V6.66667C18.3327 6.22464 18.1571 5.80072 17.8445 5.48816C17.532 5.17559 17.108 5 16.666 5H10.0827C9.80394 5.00273 9.52897 4.93551 9.28293 4.80448C9.03689 4.67346 8.82765 4.48281 8.67435 4.25L7.99935 3.25C7.84759 3.01956 7.64099 2.8304 7.3981 2.6995C7.1552 2.56859 6.88361 2.50005 6.60768 2.5H3.33268C2.89065 2.5 2.46673 2.67559 2.15417 2.98816C1.84161 3.30072 1.66602 3.72464 1.66602 4.16667V15C1.66602 15.442 1.84161 15.866 2.15417 16.1785C2.46673 16.4911 2.89065 16.6667 3.33268 16.6667H16.666Z" stroke="#10B77F" stroke-width="1.66667" stroke-linecap="round" stroke-linejoin="round"/>
<path d="M7.5 10.8337L9.16667 12.5003L12.5 9.16699" stroke="#10B77F" stroke-width="1.66667" stroke-linecap="round" stroke-linejoin="round"/>
</svg>
