<svg width="20" height="20" viewBox="0 0 20 20" fill="none" xmlns="http://www.w3.org/2000/svg">
<path d="M16.6667 6.66669H3.33333C2.8731 6.66669 2.5 7.03978 2.5 7.50002V9.16669C2.5 9.62692 2.8731 10 3.33333 10H16.6667C17.1269 10 17.5 9.62692 17.5 9.16669V7.50002C17.5 7.03978 17.1269 6.66669 16.6667 6.66669Z" stroke="#9CA3AF" stroke-width="1.66667" stroke-linecap="round" stroke-linejoin="round"/>
<path d="M10 6.66669V17.5" stroke="#9CA3AF" stroke-width="1.66667" stroke-linecap="round" stroke-linejoin="round"/>
<path d="M15.8333 10V15.8333C15.8333 16.2754 15.6577 16.6993 15.3452 17.0118C15.0326 17.3244 14.6087 17.5 14.1667 17.5H5.83333C5.3913 17.5 4.96738 17.3244 4.65482 17.0118C4.34226 16.6993 4.16666 16.2754 4.16666 15.8333V10" stroke="#9CA3AF" stroke-width="1.66667" stroke-linecap="round" stroke-linejoin="round"/>
<path d="M6.25 6.66666C5.69746 6.66666 5.16756 6.44717 4.77686 6.05647C4.38616 5.66577 4.16666 5.13587 4.16666 4.58333C4.16666 4.0308 4.38616 3.50089 4.77686 3.11019C5.16756 2.71949 5.69746 2.5 6.25 2.5C7.0539 2.48599 7.84169 2.87605 8.51061 3.6193C9.17954 4.36255 9.69856 5.4245 10 6.66666C10.3014 5.4245 10.8205 4.36255 11.4894 3.6193C12.1583 2.87605 12.9461 2.48599 13.75 2.5C14.3025 2.5 14.8324 2.71949 15.2231 3.11019C15.6138 3.50089 15.8333 4.0308 15.8333 4.58333C15.8333 5.13587 15.6138 5.66577 15.2231 6.05647C14.8324 6.44717 14.3025 6.66666 13.75 6.66666" stroke="#9CA3AF" stroke-width="1.66667" stroke-linecap="round" stroke-linejoin="round"/>
</svg>
