<svg width="68" height="33" viewBox="0 0 68 33" fill="none" xmlns="http://www.w3.org/2000/svg">
<path d="M0 14.52C0 12.3109 1.79086 10.52 4 10.52C6.20914 10.52 8 12.3109 8 14.52V32H0V14.52Z" fill="#91CCFF"/>
<path d="M12 11.17C12 8.96084 13.7909 7.16998 16 7.16998C18.2091 7.16998 20 8.96084 20 11.17V32H12V11.17Z" fill="#91CCFF"/>
<path d="M24 13.08C24 10.8709 25.7909 9.08002 28 9.08002C30.2091 9.08002 32 10.8709 32 13.08V32H24V13.08Z" fill="#91CCFF"/>
<path d="M36 6.88C36 4.67086 37.7909 2.88 40 2.88C42.2091 2.88 44 4.67087 44 6.88V32.01H36V6.88Z" fill="#91CCFF"/>
<path d="M48 9.72998C48 7.52084 49.7909 5.72998 52 5.72998C54.2091 5.72998 56 7.52084 56 9.72998V32H48V9.72998Z" fill="#91CCFF"/>
<path d="M60 4C60 1.79086 61.7909 0 64 0C66.2091 0 68 1.79086 68 4V32H60V4Z" fill="#91CCFF"/>
</svg>
