<svg width="20" height="20" viewBox="0 0 20 20" fill="none" xmlns="http://www.w3.org/2000/svg">
<path d="M10.0003 18.3333C14.6027 18.3333 18.3337 14.6024 18.3337 9.99999C18.3337 5.39762 14.6027 1.66666 10.0003 1.66666C5.39795 1.66666 1.66699 5.39762 1.66699 9.99999C1.66699 14.6024 5.39795 18.3333 10.0003 18.3333Z" stroke="#65758B" stroke-width="1.66667" stroke-linecap="round" stroke-linejoin="round"/>
<path d="M10 15C12.7614 15 15 12.7614 15 10C15 7.23858 12.7614 5 10 5C7.23858 5 5 7.23858 5 10C5 12.7614 7.23858 15 10 15Z" stroke="#65758B" stroke-width="1.66667" stroke-linecap="round" stroke-linejoin="round"/>
<path d="M9.99967 11.6667C10.9201 11.6667 11.6663 10.9205 11.6663 10C11.6663 9.07954 10.9201 8.33334 9.99967 8.33334C9.0792 8.33334 8.33301 9.07954 8.33301 10C8.33301 10.9205 9.0792 11.6667 9.99967 11.6667Z" stroke="#65758B" stroke-width="1.66667" stroke-linecap="round" stroke-linejoin="round"/>
</svg>
