<svg width="19" height="17" viewBox="0 0 19 17" fill="none" xmlns="http://www.w3.org/2000/svg">
<path d="M14.75 0.75H3.41667C2.48325 0.75 2.01654 0.75 1.66002 0.931656C1.34641 1.09144 1.09144 1.34641 0.931656 1.66002C0.75 2.01654 0.75 2.48325 0.75 3.41667V14.6713C0.75 15.0285 0.75 15.2071 0.825226 15.3146C0.890914 15.4085 0.992387 15.4713 1.10577 15.488C1.22803 15.5061 1.3768 15.4363 1.66047 15.2948L1.66051 15.2947C1.68067 15.2847 1.69075 15.2796 1.70072 15.2741C1.70954 15.2692 1.71833 15.2639 1.72684 15.2585C1.73645 15.2523 1.74576 15.2457 1.76438 15.2326L4.91989 13.0032C5.22818 12.7853 5.38232 12.6764 5.55048 12.5992C5.69972 12.5307 5.85684 12.4808 6.01828 12.4506C6.20019 12.4167 6.38892 12.4167 6.76639 12.4167H14.75C15.6834 12.4167 16.1501 12.4167 16.5067 12.235C16.8203 12.0752 17.0752 11.8203 17.235 11.5067C17.4167 11.1501 17.4167 10.6834 17.4167 9.75V3.41667C17.4167 2.48325 17.4167 2.01654 17.235 1.66002C17.0752 1.34641 16.8203 1.09144 16.5067 0.931656C16.1501 0.75 15.6834 0.75 14.75 0.75Z" stroke="#64748B" stroke-width="1.5"/>
</svg>
