<svg width="14" height="14" viewBox="0 0 14 14" fill="none" xmlns="http://www.w3.org/2000/svg">
<path d="M0 7.0013H4.66667M4.66667 7.0013C4.66667 6.38246 4.9125 5.78897 5.35008 5.35139C5.78767 4.9138 6.38116 4.66797 7 4.66797C7.61884 4.66797 8.21233 4.9138 8.64992 5.35139C9.0875 5.78897 9.33333 6.38246 9.33333 7.0013M4.66667 7.0013C4.66667 7.62014 4.9125 8.21363 5.35008 8.65122C5.78767 9.0888 6.38116 9.33464 7 9.33464C7.61884 9.33464 8.21233 9.0888 8.64992 8.65122C9.0875 8.21363 9.33333 7.62014 9.33333 7.0013M9.33333 7.0013H14" stroke="#10B77F" stroke-width="1.75"/>
</svg>
