<svg width="20" height="20" viewBox="0 0 20 20" fill="none" xmlns="http://www.w3.org/2000/svg">
<path d="M18.3337 9.99935H16.267C15.9028 9.99857 15.5484 10.1171 15.2579 10.3368C14.9675 10.5565 14.757 10.8653 14.6587 11.216L12.7003 18.1827C12.6877 18.226 12.6614 18.264 12.6253 18.291C12.5893 18.3181 12.5454 18.3327 12.5003 18.3327C12.4552 18.3327 12.4114 18.3181 12.3753 18.291C12.3393 18.264 12.3129 18.226 12.3003 18.1827L7.70033 1.81602C7.6877 1.77274 7.66139 1.73473 7.62533 1.70768C7.58926 1.68064 7.5454 1.66602 7.50033 1.66602C7.45525 1.66602 7.41139 1.68064 7.37533 1.70768C7.33926 1.73473 7.31295 1.77274 7.30033 1.81602L5.34199 8.78268C5.24405 9.13198 5.03481 9.43978 4.74605 9.65936C4.45728 9.87894 4.10476 9.99831 3.74199 9.99935H1.66699" stroke="#64748B" stroke-width="1.66667" stroke-linecap="round" stroke-linejoin="round"/>
</svg>
