<svg width="16" height="16" viewBox="0 0 16 16" fill="none" xmlns="http://www.w3.org/2000/svg">
<path d="M14.2799 7.28134C14.3992 7.22869 14.5005 7.14218 14.5712 7.03254C14.6418 6.9229 14.6788 6.79493 14.6774 6.6645C14.6761 6.53406 14.6365 6.40689 14.5636 6.29873C14.4907 6.19057 14.3876 6.10617 14.2672 6.056L8.5532 3.45334C8.37949 3.3741 8.19079 3.3331 7.99987 3.3331C7.80894 3.3331 7.62024 3.3741 7.44653 3.45334L1.7332 6.05334C1.61451 6.10532 1.51354 6.19076 1.44264 6.29921C1.37174 6.40767 1.33398 6.53443 1.33398 6.664C1.33398 6.79358 1.37174 6.92034 1.44264 7.02879C1.51354 7.13725 1.61451 7.22269 1.7332 7.27467L7.44653 9.88C7.62024 9.95924 7.80894 10.0002 7.99987 10.0002C8.19079 10.0002 8.37949 9.95924 8.5532 9.88L14.2799 7.28134Z" stroke="#9CA3AF" stroke-width="1.33333" stroke-linecap="round" stroke-linejoin="round"/>
<path d="M14.667 6.66666V10.6667" stroke="#9CA3AF" stroke-width="1.33333" stroke-linecap="round" stroke-linejoin="round"/>
<path d="M4 8.33334V10.6667C4 11.1971 4.42143 11.7058 5.17157 12.0809C5.92172 12.456 6.93913 12.6667 8 12.6667C9.06087 12.6667 10.0783 12.456 10.8284 12.0809C11.5786 11.7058 12 11.1971 12 10.6667V8.33334" stroke="#9CA3AF" stroke-width="1.33333" stroke-linecap="round" stroke-linejoin="round"/>
</svg>
