<svg width="20" height="20" viewBox="0 0 20 20" fill="none" xmlns="http://www.w3.org/2000/svg">
<path d="M5.99968 1.66602L5.99968 2.41602L5.99968 1.66602ZM16.6663 4.33268H15.9163V4.33268H16.6663ZM16.6663 15.666H17.4163V15.666H16.6663ZM16.4847 17.4227L17.1529 17.7632V17.7632L16.4847 17.4227ZM13.9997 18.3327V17.5827V17.5827V18.3327ZM15.7563 18.151L16.0968 18.8193H16.0968L15.7563 18.151ZM15.7563 1.84767L16.0968 1.17942V1.17942L15.7563 1.84767ZM16.4847 2.57603L15.8164 2.91653V2.91653L16.4847 2.57603ZM4.24302 1.84767L4.58352 2.51593V2.51593L4.24302 1.84767ZM3.33301 4.33268H2.58301H3.33301ZM3.51466 2.57603L4.18292 2.91652H4.18292L3.51466 2.57603ZM2.58301 13.3327C2.58301 13.7469 2.91879 14.0827 3.33301 14.0827C3.74722 14.0827 4.08301 13.7469 4.08301 13.3327H3.33301H2.58301ZM8.33301 17.5827C7.91879 17.5827 7.58301 17.9185 7.58301 18.3327C7.58301 18.7469 7.91879 19.0827 8.33301 19.0827V18.3327V17.5827ZM3.47527 13.4749L4.0056 12.9446V12.9446L3.47527 13.4749ZM8.19075 18.1904L7.66042 18.7208V18.7208L8.19075 18.1904ZM3.53419 13.3327L3.53419 14.0827H3.53419V13.3327ZM7.49968 13.3327V12.5827V12.5827V13.3327ZM8.33301 14.166H7.58301V14.166H8.33301ZM8.33301 18.1315H9.08301V18.1315H8.33301ZM13.333 10.7493C13.7472 10.7493 14.083 10.4136 14.083 9.99935C14.083 9.58513 13.7472 9.24935 13.333 9.24935V9.99935V10.7493ZM6.66634 9.24935C6.25213 9.24935 5.91634 9.58513 5.91634 9.99935C5.91634 10.4136 6.25213 10.7493 6.66634 10.7493V9.99935V9.24935ZM13.333 14.0827C13.7472 14.0827 14.083 13.7469 14.083 13.3327C14.083 12.9185 13.7472 12.5827 13.333 12.5827V13.3327V14.0827ZM11.6663 12.5827C11.2521 12.5827 10.9163 12.9185 10.9163 13.3327C10.9163 13.7469 11.2521 14.0827 11.6663 14.0827V13.3327V12.5827ZM13.333 7.41602C13.7472 7.41602 14.083 7.08023 14.083 6.66602C14.083 6.2518 13.7472 5.91602 13.333 5.91602V6.66602V7.41602ZM6.66634 5.91602C6.25213 5.91602 5.91634 6.2518 5.91634 6.66602C5.91634 7.08023 6.25213 7.41602 6.66634 7.41602V6.66602V5.91602ZM5.99968 1.66602L5.99968 2.41602L13.9997 2.41602V1.66602V0.916016L5.99968 0.916016V1.66602ZM16.6663 4.33268H15.9163V15.666H16.6663H17.4163V4.33268H16.6663ZM16.6663 15.666H15.9163C15.9163 16.1451 15.9158 16.4593 15.8961 16.6996C15.8772 16.9311 15.8444 17.0273 15.8164 17.0822L16.4847 17.4227L17.1529 17.7632C17.3066 17.4616 17.3646 17.1461 17.3911 16.8218C17.4169 16.5062 17.4163 16.1204 17.4163 15.666H16.6663ZM13.9997 18.3327V19.0827C14.454 19.0827 14.8399 19.0833 15.1554 19.0575C15.4797 19.031 15.7952 18.973 16.0968 18.8193L15.7563 18.151L15.4158 17.4828C15.3609 17.5107 15.2648 17.5435 15.0333 17.5625C14.793 17.5821 14.4788 17.5827 13.9997 17.5827V18.3327ZM16.4847 17.4227L15.8164 17.0822C15.7285 17.2547 15.5883 17.3949 15.4158 17.4828L15.7563 18.151L16.0968 18.8193C16.5515 18.5876 16.9212 18.2179 17.1529 17.7632L16.4847 17.4227ZM13.9997 1.66602V2.41602C14.4788 2.41602 14.793 2.4166 15.0333 2.43623C15.2648 2.45515 15.3609 2.48795 15.4158 2.51593L15.7563 1.84767L16.0968 1.17942C15.7952 1.02574 15.4797 0.967711 15.1554 0.941214C14.8399 0.915433 14.454 0.916016 13.9997 0.916016V1.66602ZM16.6663 4.33268H17.4163C17.4163 3.87835 17.4169 3.49249 17.3911 3.17695C17.3646 2.85265 17.3066 2.53715 17.1529 2.23554L16.4847 2.57603L15.8164 2.91653C15.8444 2.97143 15.8772 3.06755 15.8961 3.29909C15.9158 3.53939 15.9163 3.8536 15.9163 4.33268H16.6663ZM15.7563 1.84767L15.4158 2.51593C15.5883 2.60381 15.7285 2.74404 15.8164 2.91653L16.4847 2.57603L17.1529 2.23554C16.9212 1.78081 16.5515 1.41111 16.0968 1.17942L15.7563 1.84767ZM5.99968 1.66602V0.916016C5.54534 0.916016 5.15948 0.915432 4.84394 0.941213C4.51964 0.96771 4.20414 1.02574 3.90253 1.17942L4.24302 1.84767L4.58352 2.51593C4.63843 2.48795 4.73455 2.45515 4.96609 2.43623C5.20638 2.4166 5.52059 2.41602 5.99968 2.41602L5.99968 1.66602ZM3.33301 4.33268L4.08301 4.33268C4.08301 3.8536 4.08359 3.53939 4.10322 3.29909C4.12214 3.06755 4.15494 2.97143 4.18292 2.91652L3.51466 2.57603L2.84641 2.23554C2.69273 2.53715 2.6347 2.85264 2.60821 3.17694C2.58243 3.49249 2.58301 3.87835 2.58301 4.33268H3.33301ZM4.24302 1.84767L3.90253 1.17942C3.44781 1.41111 3.0781 1.78081 2.84641 2.23554L3.51466 2.57603L4.18292 2.91652C4.2708 2.74404 4.41104 2.60381 4.58352 2.51593L4.24302 1.84767ZM3.33301 13.3327H4.08301L4.08301 4.33268L3.33301 4.33268H2.58301L2.58301 13.3327H3.33301ZM13.9997 18.3327V17.5827H8.33301V18.3327V19.0827H13.9997V18.3327ZM3.47527 13.4749L2.94494 14.0053L7.66042 18.7208L8.19075 18.1904L8.72108 17.6601L4.0056 12.9446L3.47527 13.4749ZM3.53419 13.3327V14.0827H7.49968V13.3327V12.5827H3.53419V13.3327ZM8.33301 14.166H7.58301V18.1315H8.33301H9.08301V14.166H8.33301ZM7.49968 13.3327L7.49968 14.0827C7.5457 14.0827 7.58301 14.12 7.58301 14.166H8.33301H9.08301C9.08301 13.2916 8.37413 12.5827 7.49968 12.5827V13.3327ZM8.19075 18.1904L7.66042 18.7208C8.18539 19.2457 9.08301 18.8739 9.08301 18.1315H8.33301H7.58301C7.58301 17.5376 8.3011 17.2401 8.72108 17.6601L8.19075 18.1904ZM3.47527 13.4749L4.0056 12.9446C4.42557 13.3646 4.12813 14.0827 3.53419 14.0827L3.53419 13.3327L3.53419 12.5827C2.79177 12.5827 2.41997 13.4803 2.94494 14.0053L3.47527 13.4749ZM13.333 9.99935V9.24935H6.66634V9.99935V10.7493H13.333V9.99935ZM13.333 13.3327V12.5827H11.6663V13.3327V14.0827H13.333V13.3327ZM13.333 6.66602V5.91602H6.66634V6.66602V7.41602H13.333V6.66602Z" fill="#64748B"/>
</svg>
