<svg width="16" height="16" viewBox="0 0 16 16" fill="none" xmlns="http://www.w3.org/2000/svg">
<path d="M1.72416 11.6091C1.4741 11.8591 1.33357 12.1982 1.3335 12.5518V13.9998C1.3335 14.1766 1.40373 14.3462 1.52876 14.4712C1.65378 14.5962 1.82335 14.6664 2.00016 14.6664H4.00016C4.17697 14.6664 4.34654 14.5962 4.47157 14.4712C4.59659 14.3462 4.66683 14.1766 4.66683 13.9998V13.3331C4.66683 13.1563 4.73707 12.9867 4.86209 12.8617C4.98712 12.7367 5.15669 12.6664 5.3335 12.6664H6.00016C6.17697 12.6664 6.34654 12.5962 6.47157 12.4712C6.59659 12.3462 6.66683 12.1766 6.66683 11.9998V11.3331C6.66683 11.1563 6.73707 10.9867 6.86209 10.8617C6.98712 10.7367 7.15669 10.6664 7.3335 10.6664H7.44816C7.80176 10.6664 8.14084 10.5258 8.39083 10.2758L8.9335 9.73312C9.86005 10.0559 10.8687 10.0546 11.7945 9.72962C12.7202 9.40459 13.5083 8.77501 14.0297 7.94387C14.5512 7.11272 14.7751 6.12923 14.6649 5.15427C14.5547 4.17932 14.1169 3.27062 13.4231 2.57683C12.7293 1.88304 11.8206 1.44524 10.8457 1.33504C9.87071 1.22484 8.88722 1.44878 8.05608 1.97021C7.22494 2.49164 6.59536 3.2797 6.27033 4.20546C5.9453 5.13123 5.94407 6.13989 6.26683 7.06645L1.72416 11.6091Z" stroke="#0F1729" stroke-width="1.33333" stroke-linecap="round" stroke-linejoin="round"/>
<path d="M10.9998 5.33366C11.1839 5.33366 11.3332 5.18442 11.3332 5.00033C11.3332 4.81623 11.1839 4.66699 10.9998 4.66699C10.8157 4.66699 10.6665 4.81623 10.6665 5.00033C10.6665 5.18442 10.8157 5.33366 10.9998 5.33366Z" fill="#0F1729" stroke="#0F1729" stroke-width="1.33333" stroke-linecap="round" stroke-linejoin="round"/>
</svg>
