<svg width="16" height="16" viewBox="0 0 16 16" fill="none" xmlns="http://www.w3.org/2000/svg">
<path d="M3.00008 10.9983C2.00008 11.8383 1.66675 14.3316 1.66675 14.3316C1.66675 14.3316 4.16008 13.9983 5.00008 12.9983C5.47341 12.4383 5.46675 11.5783 4.94008 11.0583C4.68095 10.8109 4.33961 10.668 3.98157 10.6569C3.62352 10.6459 3.274 10.7674 3.00008 10.9983Z" stroke="white" stroke-width="1.33333" stroke-linecap="round" stroke-linejoin="round"/>
<path d="M8 9.99886L6 7.99886C6.35476 7.07848 6.80147 6.19624 7.33333 5.36553C8.11012 4.12352 9.19175 3.1009 10.4753 2.39492C11.7589 1.68895 13.2018 1.32311 14.6667 1.3322C14.6667 3.14553 14.1467 6.3322 10.6667 8.66553C9.82459 9.19801 8.93123 9.64469 8 9.99886Z" stroke="white" stroke-width="1.33333" stroke-linecap="round" stroke-linejoin="round"/>
<path d="M6.00008 7.99839H2.66675C2.66675 7.99839 3.03341 5.97839 4.00008 5.33172C5.08008 4.61172 7.33341 5.33172 7.33341 5.33172" stroke="white" stroke-width="1.33333" stroke-linecap="round" stroke-linejoin="round"/>
<path d="M8 10.0013V13.3346C8 13.3346 10.02 12.968 10.6667 12.0013C11.3867 10.9213 10.6667 8.66797 10.6667 8.66797" stroke="white" stroke-width="1.33333" stroke-linecap="round" stroke-linejoin="round"/>
</svg>
