<svg width="12" height="12" viewBox="0 0 12 12" fill="none" xmlns="http://www.w3.org/2000/svg">
<path d="M4.5 8.5H3.5C2.83696 8.5 2.20107 8.23661 1.73223 7.76777C1.26339 7.29893 1 6.66304 1 6C1 5.33696 1.26339 4.70107 1.73223 4.23223C2.20107 3.76339 2.83696 3.5 3.5 3.5H4.5" stroke="#65758B" stroke-linecap="round" stroke-linejoin="round"/>
<path d="M7.5 3.5H8.5C9.16304 3.5 9.79893 3.76339 10.2678 4.23223C10.7366 4.70107 11 5.33696 11 6C11 6.66304 10.7366 7.29893 10.2678 7.76777C9.79893 8.23661 9.16304 8.5 8.5 8.5H7.5" stroke="#65758B" stroke-linecap="round" stroke-linejoin="round"/>
<path d="M4 6H8" stroke="#65758B" stroke-linecap="round" stroke-linejoin="round"/>
</svg>
