<svg width="20" height="20" viewBox="0 0 20 20" fill="none" xmlns="http://www.w3.org/2000/svg">
<path d="M7.50033 14.1654H5.83366C4.72859 14.1654 3.66878 13.7264 2.88738 12.945C2.10598 12.1636 1.66699 11.1038 1.66699 9.9987C1.66699 8.89363 2.10598 7.83382 2.88738 7.05242C3.66878 6.27102 4.72859 5.83203 5.83366 5.83203H7.50033" stroke="#F59F0A" stroke-width="1.66667" stroke-linecap="round" stroke-linejoin="round"/>
<path d="M12.5 5.83203H14.1667C15.2717 5.83203 16.3315 6.27102 17.1129 7.05242C17.8943 7.83382 18.3333 8.89363 18.3333 9.9987C18.3333 11.1038 17.8943 12.1636 17.1129 12.945C16.3315 13.7264 15.2717 14.1654 14.1667 14.1654H12.5" stroke="#F59F0A" stroke-width="1.66667" stroke-linecap="round" stroke-linejoin="round"/>
<path d="M6.66699 10H13.3337" stroke="#F59F0A" stroke-width="1.66667" stroke-linecap="round" stroke-linejoin="round"/>
</svg>
