<svg width="65" height="22" viewBox="0 0 65 22" fill="none" xmlns="http://www.w3.org/2000/svg">
<mask id="path-1-inside-1_250_50599" fill="white">
<path d="M0 11C0 4.92487 4.92487 0 11 0H54C60.0751 0 65 4.92487 65 11C65 17.0751 60.0751 22 54 22H11C4.92487 22 0 17.0751 0 11Z"/>
</mask>
<path d="M0 11C0 4.92487 4.92487 0 11 0H54C60.0751 0 65 4.92487 65 11C65 17.0751 60.0751 22 54 22H11C4.92487 22 0 17.0751 0 11Z" fill="#21C45D" fill-opacity="0.1"/>
<path d="M0 11M65 11M65 11M0 11M11 0V1H54V0V-1H11V0ZM65 11M54 22V21H11V22V23H54V22ZM0 11M11 22V21C5.47715 21 1 16.5228 1 11H0H-1C-1 17.6274 4.37258 23 11 23V22ZM65 11H64C64 16.5228 59.5228 21 54 21V22V23C60.6274 23 66 17.6274 66 11H65ZM54 0V1C59.5228 1 64 5.47715 64 11H65H66C66 4.37258 60.6274 -1 54 -1V0ZM11 0V-1C4.37258 -1 -1 4.37258 -1 11H0H1C1 5.47715 5.47715 1 11 1V0Z" fill="#21C45D" fill-opacity="0.3" mask="url(#path-1-inside-1_250_50599)"/>
<rect x="11" y="8" width="6" height="6" rx="3" fill="#21C45D"/>
<path d="M26.236 15V6.24H27.736V13.608H31.456V15H26.236ZM33.1073 15V13.632H35.4113V9.756H33.4073V8.4H36.8513V13.632H38.8913V15H33.1073ZM36.0113 7.296C35.7073 7.296 35.4673 7.22 35.2913 7.068C35.1153 6.908 35.0273 6.696 35.0273 6.432C35.0273 6.168 35.1153 5.96 35.2913 5.808C35.4673 5.648 35.7073 5.568 36.0113 5.568C36.3153 5.568 36.5553 5.648 36.7313 5.808C36.9073 5.96 36.9953 6.168 36.9953 6.432C36.9953 6.696 36.9073 6.908 36.7313 7.068C36.5553 7.22 36.3153 7.296 36.0113 7.296ZM42.0306 15L39.8586 8.4H41.3946L42.6546 12.408C42.7266 12.648 42.7946 12.896 42.8586 13.152C42.9306 13.408 42.9826 13.612 43.0146 13.764C43.0546 13.612 43.1066 13.408 43.1706 13.152C43.2346 12.896 43.2986 12.652 43.3626 12.42L44.5986 8.4H46.1226L43.9626 15H42.0306ZM50.1979 15.12C49.6379 15.12 49.1499 15.012 48.7339 14.796C48.3179 14.58 47.9939 14.28 47.7619 13.896C47.5379 13.504 47.4259 13.048 47.4259 12.528V10.872C47.4259 10.352 47.5379 9.9 47.7619 9.516C47.9939 9.124 48.3179 8.82 48.7339 8.604C49.1499 8.388 49.6379 8.28 50.1979 8.28C50.7499 8.28 51.2299 8.388 51.6379 8.604C52.0539 8.82 52.3739 9.124 52.5979 9.516C52.8299 9.9 52.9459 10.352 52.9459 10.872V12.06H48.8779V12.528C48.8779 12.992 48.9899 13.344 49.2139 13.584C49.4379 13.816 49.7699 13.932 50.2099 13.932C50.5459 13.932 50.8179 13.876 51.0259 13.764C51.2339 13.644 51.3659 13.472 51.4219 13.248H52.8979C52.7859 13.816 52.4819 14.272 51.9859 14.616C51.4979 14.952 50.9019 15.12 50.1979 15.12ZM51.4939 11.22V10.86C51.4939 10.404 51.3859 10.056 51.1699 9.816C50.9539 9.568 50.6299 9.444 50.1979 9.444C49.7659 9.444 49.4379 9.568 49.2139 9.816C48.9899 10.064 48.8779 10.416 48.8779 10.872V11.124L51.6019 11.1L51.4939 11.22Z" fill="#21C45D"/>
</svg>
