<svg width="16" height="16" viewBox="0 0 16 16" fill="none" xmlns="http://www.w3.org/2000/svg">
<path d="M13.3337 6.66659C13.3337 9.99525 9.64099 13.4619 8.40099 14.5326C8.28548 14.6194 8.14486 14.6664 8.00033 14.6664C7.85579 14.6664 7.71518 14.6194 7.59966 14.5326C6.35966 13.4619 2.66699 9.99525 2.66699 6.66659C2.66699 5.2521 3.2289 3.89554 4.22909 2.89535C5.22928 1.89516 6.58584 1.33325 8.00033 1.33325C9.41481 1.33325 10.7714 1.89516 11.7716 2.89535C12.7718 3.89554 13.3337 5.2521 13.3337 6.66659Z" stroke="#737373" stroke-width="1.33333" stroke-linecap="round" stroke-linejoin="round"/>
<path d="M8 8.66675C9.10457 8.66675 10 7.77132 10 6.66675C10 5.56218 9.10457 4.66675 8 4.66675C6.89543 4.66675 6 5.56218 6 6.66675C6 7.77132 6.89543 8.66675 8 8.66675Z" stroke="#737373" stroke-width="1.33333" stroke-linecap="round" stroke-linejoin="round"/>
</svg>
