<svg width="16" height="16" viewBox="0 0 16 16" fill="none" xmlns="http://www.w3.org/2000/svg">
<path d="M13.3337 6.66668C13.3337 9.99534 9.64099 13.462 8.40099 14.5327C8.28548 14.6195 8.14486 14.6665 8.00033 14.6665C7.85579 14.6665 7.71518 14.6195 7.59966 14.5327C6.35966 13.462 2.66699 9.99534 2.66699 6.66668C2.66699 5.25219 3.2289 3.89563 4.22909 2.89544C5.22928 1.89525 6.58584 1.33334 8.00033 1.33334C9.41481 1.33334 10.7714 1.89525 11.7716 2.89544C12.7718 3.89563 13.3337 5.25219 13.3337 6.66668Z" stroke="#9CA3AF" stroke-width="1.33333" stroke-linecap="round" stroke-linejoin="round"/>
<path d="M8 8.66666C9.10457 8.66666 10 7.77123 10 6.66666C10 5.56209 9.10457 4.66666 8 4.66666C6.89543 4.66666 6 5.56209 6 6.66666C6 7.77123 6.89543 8.66666 8 8.66666Z" stroke="#9CA3AF" stroke-width="1.33333" stroke-linecap="round" stroke-linejoin="round"/>
</svg>
