<svg width="16" height="16" viewBox="0 0 16 16" fill="none" xmlns="http://www.w3.org/2000/svg">
<path d="M13.3337 6.66536C13.3337 9.99403 9.64099 13.4607 8.40099 14.5314C8.28548 14.6182 8.14486 14.6652 8.00033 14.6652C7.85579 14.6652 7.71518 14.6182 7.59966 14.5314C6.35966 13.4607 2.66699 9.99403 2.66699 6.66536C2.66699 5.25088 3.2289 3.89432 4.22909 2.89413C5.22928 1.89393 6.58584 1.33203 8.00033 1.33203C9.41481 1.33203 10.7714 1.89393 11.7716 2.89413C12.7718 3.89432 13.3337 5.25088 13.3337 6.66536Z" stroke="#FCFBF8" stroke-width="1.33333" stroke-linecap="round" stroke-linejoin="round"/>
<path d="M8 8.66797C9.10457 8.66797 10 7.77254 10 6.66797C10 5.5634 9.10457 4.66797 8 4.66797C6.89543 4.66797 6 5.5634 6 6.66797C6 7.77254 6.89543 8.66797 8 8.66797Z" stroke="#FCFBF8" stroke-width="1.33333" stroke-linecap="round" stroke-linejoin="round"/>
</svg>
