<svg width="32" height="32" viewBox="0 0 32 32" fill="none" xmlns="http://www.w3.org/2000/svg">
<path d="M26.6668 13.3332C26.6668 19.9905 19.2815 26.9238 16.8015 29.0652C16.5705 29.2389 16.2892 29.3328 16.0002 29.3328C15.7111 29.3328 15.4299 29.2389 15.1988 29.0652C12.7188 26.9238 5.3335 19.9905 5.3335 13.3332C5.3335 10.5042 6.4573 7.79109 8.45769 5.7907C10.4581 3.79031 13.1712 2.6665 16.0002 2.6665C18.8291 2.6665 21.5422 3.79031 23.5426 5.7907C25.543 7.79109 26.6668 10.5042 26.6668 13.3332Z" stroke="#0F8FFF" stroke-width="2.66667" stroke-linecap="round" stroke-linejoin="round"/>
<path d="M16 17.3335C18.2091 17.3335 20 15.5426 20 13.3335C20 11.1244 18.2091 9.3335 16 9.3335C13.7909 9.3335 12 11.1244 12 13.3335C12 15.5426 13.7909 17.3335 16 17.3335Z" stroke="#0F8FFF" stroke-width="2.66667" stroke-linecap="round" stroke-linejoin="round"/>
</svg>
