<svg width="16" height="16" viewBox="0 0 16 16" fill="none" xmlns="http://www.w3.org/2000/svg">
<path d="M13.3327 6.66732C13.3327 9.99598 9.64002 13.4627 8.40002 14.5333C8.2845 14.6202 8.14388 14.6672 7.99935 14.6672C7.85482 14.6672 7.7142 14.6202 7.59868 14.5333C6.35868 13.4627 2.66602 9.99598 2.66602 6.66732C2.66602 5.25283 3.22792 3.89628 4.22811 2.89608C5.22831 1.89589 6.58486 1.33398 7.99935 1.33398C9.41384 1.33398 10.7704 1.89589 11.7706 2.89608C12.7708 3.89628 13.3327 5.25283 13.3327 6.66732Z" stroke="#2563EB" stroke-width="1.33333" stroke-linecap="round" stroke-linejoin="round"/>
<path d="M8 8.66602C9.10457 8.66602 10 7.77059 10 6.66602C10 5.56145 9.10457 4.66602 8 4.66602C6.89543 4.66602 6 5.56145 6 6.66602C6 7.77059 6.89543 8.66602 8 8.66602Z" stroke="#2563EB" stroke-width="1.33333" stroke-linecap="round" stroke-linejoin="round"/>
</svg>
