<svg width="16" height="16" viewBox="0 0 16 16" fill="none" xmlns="http://www.w3.org/2000/svg">
<path d="M8 0.546875C8.78322 0.546875 9.53407 0.858291 10.0879 1.41211C10.6417 1.96593 10.9531 2.71678 10.9531 3.5V5.04688H13C13.2528 5.04688 13.4951 5.14743 13.6738 5.32617C13.8526 5.50492 13.9531 5.74722 13.9531 6V13C13.9531 13.2528 13.8526 13.4951 13.6738 13.6738C13.4951 13.8526 13.2528 13.9531 13 13.9531H3C2.74722 13.9531 2.50492 13.8526 2.32617 13.6738C2.14743 13.4951 2.04688 13.2528 2.04688 13V6C2.04688 5.74722 2.14743 5.50492 2.32617 5.32617C2.50492 5.14743 2.74722 5.04688 3 5.04688H5.04688V3.5C5.04688 2.71678 5.35829 1.96593 5.91211 1.41211C6.46593 0.858291 7.21678 0.546875 8 0.546875ZM2.95312 13.0469H13.0469V5.95312H2.95312V13.0469ZM8 1.45312C7.45713 1.45313 6.9366 1.66887 6.55273 2.05273C6.16887 2.4366 5.95312 2.95713 5.95312 3.5V5.04688H10.0469V3.5C10.0469 2.95714 9.83113 2.4366 9.44727 2.05273C9.0634 1.66887 8.54287 1.45313 8 1.45312Z" fill="white" stroke="white" stroke-width="0.09375"/>
</svg>
