<svg width="288" height="301" viewBox="0 0 288 301" fill="none" xmlns="http://www.w3.org/2000/svg">
<rect width="288" height="288" rx="144" fill="#0B64F4" fill-opacity="0.05"/>
<rect x="32" y="32" width="224" height="224" rx="112" fill="#0B64F4" fill-opacity="0.1"/>
<g filter="url(#filter0_f_279_45642)">
<rect x="64" y="64" width="160" height="160" rx="80" fill="#0B64F4" fill-opacity="0.2"/>
</g>
<rect x="144" y="30.8604" width="160" height="160" rx="24" transform="rotate(45 144 30.8604)" fill="url(#paint0_linear_279_45642)"/>
<rect x="144" y="42.1797" width="144" height="144" rx="24" transform="rotate(45 144 42.1797)" fill="url(#paint1_linear_279_45642)"/>
<path d="M165.333 146.667C165.333 160 155.999 166.667 144.906 170.533C144.325 170.73 143.694 170.721 143.119 170.507C131.999 166.667 122.666 160 122.666 146.667V128C122.666 127.293 122.947 126.614 123.447 126.114C123.947 125.614 124.625 125.333 125.333 125.333C130.666 125.333 137.333 122.133 141.973 118.08C142.538 117.597 143.256 117.332 143.999 117.332C144.742 117.332 145.461 117.597 146.026 118.08C150.693 122.16 157.333 125.333 162.666 125.333C163.373 125.333 164.052 125.614 164.552 126.114C165.052 126.614 165.333 127.293 165.333 128V146.667Z" stroke="white" stroke-width="4" stroke-linecap="round" stroke-linejoin="round"/>
<g filter="url(#filter1_dd_279_45642)">
<rect x="33" y="205" width="111" height="56" rx="16" fill="white"/>
<rect x="45" y="217" width="32" height="32" rx="12" fill="#0B64F4" fill-opacity="0.1"/>
<path d="M61.0007 239.666C64.6825 239.666 67.6673 236.682 67.6673 233C67.6673 229.318 64.6825 226.333 61.0007 226.333C57.3188 226.333 54.334 229.318 54.334 233C54.334 236.682 57.3188 239.666 61.0007 239.666Z" stroke="#0B64F4" stroke-width="1.33333" stroke-linecap="round" stroke-linejoin="round"/>
<path d="M59 233L60.3333 234.334L63 231.667" stroke="#0B64F4" stroke-width="1.33333" stroke-linecap="round" stroke-linejoin="round"/>
<path d="M87.3352 228.273L89.4446 234.903H89.5256L91.6392 228.273H93.6847L90.6761 237H88.2983L85.2855 228.273H87.3352ZM96.9457 237.128C96.2724 237.128 95.6928 236.991 95.207 236.719C94.7241 236.443 94.3519 236.054 94.0906 235.551C93.8292 235.045 93.6985 234.447 93.6985 233.757C93.6985 233.084 93.8292 232.493 94.0906 231.984C94.3519 231.476 94.7198 231.08 95.1942 230.795C95.6715 230.511 96.2312 230.369 96.8732 230.369C97.305 230.369 97.707 230.439 98.0792 230.578C98.4542 230.714 98.7809 230.92 99.0593 231.196C99.3406 231.472 99.5593 231.818 99.7156 232.236C99.8718 232.651 99.9499 233.136 99.9499 233.693V234.192H94.4229V233.067H98.2411C98.2411 232.805 98.1843 232.574 98.0707 232.372C97.957 232.17 97.7994 232.013 97.5977 231.899C97.3988 231.783 97.1673 231.724 96.9031 231.724C96.6275 231.724 96.3832 231.788 96.1701 231.916C95.9599 232.041 95.7951 232.21 95.6758 232.423C95.5565 232.634 95.4954 232.868 95.4925 233.126V234.196C95.4925 234.52 95.5522 234.8 95.6715 235.036C95.7937 235.271 95.9656 235.453 96.1871 235.581C96.4087 235.709 96.6715 235.773 96.9755 235.773C97.1772 235.773 97.3619 235.744 97.5295 235.688C97.6971 235.631 97.8406 235.545 97.9599 235.432C98.0792 235.318 98.1701 235.179 98.2326 235.014L99.9116 235.125C99.8263 235.528 99.6516 235.881 99.3874 236.182C99.1261 236.48 98.788 236.713 98.3732 236.881C97.9613 237.045 97.4854 237.128 96.9457 237.128ZM101.135 237V230.455H102.895V231.597H102.963C103.082 231.19 103.282 230.884 103.564 230.676C103.845 230.466 104.169 230.361 104.535 230.361C104.626 230.361 104.724 230.366 104.829 230.378C104.934 230.389 105.027 230.405 105.106 230.425V232.036C105.021 232.01 104.903 231.987 104.752 231.967C104.602 231.947 104.464 231.938 104.339 231.938C104.072 231.938 103.833 231.996 103.623 232.112C103.416 232.226 103.251 232.385 103.129 232.589C103.01 232.794 102.95 233.03 102.95 233.297V237H101.135ZM106.045 237V230.455H107.86V237H106.045ZM106.957 229.611C106.687 229.611 106.455 229.521 106.262 229.342C106.072 229.161 105.977 228.943 105.977 228.69C105.977 228.44 106.072 228.226 106.262 228.047C106.455 227.865 106.687 227.774 106.957 227.774C107.227 227.774 107.457 227.865 107.647 228.047C107.84 228.226 107.937 228.44 107.937 228.69C107.937 228.943 107.84 229.161 107.647 229.342C107.457 229.521 107.227 229.611 106.957 229.611ZM112.834 230.455V231.818H108.794V230.455H112.834ZM109.719 237V229.982C109.719 229.507 109.811 229.114 109.996 228.801C110.184 228.489 110.439 228.254 110.763 228.098C111.087 227.942 111.455 227.864 111.867 227.864C112.145 227.864 112.4 227.885 112.63 227.928C112.863 227.97 113.036 228.009 113.15 228.043L112.826 229.406C112.755 229.384 112.667 229.362 112.561 229.342C112.459 229.322 112.354 229.312 112.246 229.312C111.979 229.312 111.793 229.375 111.688 229.5C111.583 229.622 111.53 229.794 111.53 230.016V237H109.719ZM113.943 237V230.455H115.759V237H113.943ZM114.855 229.611C114.585 229.611 114.354 229.521 114.161 229.342C113.97 229.161 113.875 228.943 113.875 228.69C113.875 228.44 113.97 228.226 114.161 228.047C114.354 227.865 114.585 227.774 114.855 227.774C115.125 227.774 115.355 227.865 115.545 228.047C115.739 228.226 115.835 228.44 115.835 228.69C115.835 228.943 115.739 229.161 115.545 229.342C115.355 229.521 115.125 229.611 114.855 229.611ZM120.196 237.128C119.522 237.128 118.943 236.991 118.457 236.719C117.974 236.443 117.602 236.054 117.341 235.551C117.079 235.045 116.949 234.447 116.949 233.757C116.949 233.084 117.079 232.493 117.341 231.984C117.602 231.476 117.97 231.08 118.444 230.795C118.922 230.511 119.481 230.369 120.123 230.369C120.555 230.369 120.957 230.439 121.329 230.578C121.704 230.714 122.031 230.92 122.309 231.196C122.591 231.472 122.809 231.818 122.966 232.236C123.122 232.651 123.2 233.136 123.2 233.693V234.192H117.673V233.067H121.491C121.491 232.805 121.434 232.574 121.321 232.372C121.207 232.17 121.049 232.013 120.848 231.899C120.649 231.783 120.417 231.724 120.153 231.724C119.877 231.724 119.633 231.788 119.42 231.916C119.21 232.041 119.045 232.21 118.926 232.423C118.806 232.634 118.745 232.868 118.743 233.126V234.196C118.743 234.52 118.802 234.8 118.922 235.036C119.044 235.271 119.216 235.453 119.437 235.581C119.659 235.709 119.922 235.773 120.225 235.773C120.427 235.773 120.612 235.744 120.779 235.688C120.947 235.631 121.091 235.545 121.21 235.432C121.329 235.318 121.42 235.179 121.483 235.014L123.162 235.125C123.076 235.528 122.902 235.881 122.637 236.182C122.376 236.48 122.038 236.713 121.623 236.881C121.211 237.045 120.735 237.128 120.196 237.128ZM126.797 237.107C126.299 237.107 125.849 236.979 125.446 236.723C125.045 236.464 124.727 236.085 124.491 235.585C124.258 235.082 124.142 234.466 124.142 233.736C124.142 232.986 124.262 232.362 124.504 231.865C124.745 231.365 125.066 230.991 125.467 230.744C125.87 230.494 126.312 230.369 126.792 230.369C127.159 230.369 127.464 230.432 127.708 230.557C127.956 230.679 128.154 230.832 128.305 231.017C128.458 231.199 128.575 231.378 128.654 231.554H128.71V228.273H130.521V237H128.731V235.952H128.654C128.569 236.134 128.449 236.314 128.292 236.493C128.139 236.669 127.939 236.815 127.691 236.932C127.447 237.048 127.149 237.107 126.797 237.107ZM127.372 235.662C127.664 235.662 127.912 235.582 128.113 235.423C128.318 235.261 128.474 235.036 128.582 234.746C128.693 234.456 128.748 234.116 128.748 233.727C128.748 233.338 128.694 233 128.586 232.713C128.478 232.426 128.322 232.205 128.118 232.048C127.913 231.892 127.664 231.814 127.372 231.814C127.074 231.814 126.822 231.895 126.618 232.057C126.413 232.219 126.258 232.443 126.153 232.73C126.048 233.017 125.995 233.349 125.995 233.727C125.995 234.108 126.048 234.445 126.153 234.737C126.261 235.027 126.416 235.254 126.618 235.419C126.822 235.581 127.074 235.662 127.372 235.662Z" fill="#0F1729"/>
</g>
<g filter="url(#filter2_dd_279_45642)">
<rect x="144" y="14" width="109" height="56" rx="16" fill="white"/>
<rect x="156" y="26" width="32" height="32" rx="12" fill="#36D399" fill-opacity="0.1"/>
<path d="M176.667 41.333H167.333C166.597 41.333 166 41.93 166 42.6663V47.333C166 48.0694 166.597 48.6663 167.333 48.6663H176.667C177.403 48.6663 178 48.0694 178 47.333V42.6663C178 41.93 177.403 41.333 176.667 41.333Z" stroke="#36D399" stroke-width="1.33333" stroke-linecap="round" stroke-linejoin="round"/>
<path d="M168.666 41.333V38.6663C168.666 37.7823 169.017 36.9344 169.642 36.3093C170.267 35.6842 171.115 35.333 171.999 35.333C172.883 35.333 173.731 35.6842 174.356 36.3093C174.981 36.9344 175.333 37.7823 175.333 38.6663V41.333" stroke="#36D399" stroke-width="1.33333" stroke-linecap="round" stroke-linejoin="round"/>
<path d="M196.707 46V44.6705L199.814 41.794C200.078 41.5384 200.3 41.3082 200.479 41.1037C200.661 40.8991 200.798 40.6989 200.892 40.5028C200.986 40.304 201.033 40.0895 201.033 39.8594C201.033 39.6037 200.974 39.3835 200.858 39.1989C200.741 39.0114 200.582 38.8679 200.381 38.7685C200.179 38.6662 199.95 38.6151 199.695 38.6151C199.428 38.6151 199.195 38.669 198.996 38.777C198.797 38.8849 198.643 39.0398 198.536 39.2415C198.428 39.4432 198.374 39.6832 198.374 39.9616H196.622C196.622 39.3906 196.751 38.8949 197.01 38.4744C197.268 38.054 197.631 37.7287 198.097 37.4986C198.563 37.2685 199.099 37.1534 199.707 37.1534C200.332 37.1534 200.876 37.2642 201.339 37.4858C201.805 37.7045 202.168 38.0085 202.426 38.3977C202.685 38.7869 202.814 39.233 202.814 39.7358C202.814 40.0653 202.749 40.3906 202.618 40.7116C202.49 41.0327 202.261 41.3892 201.932 41.7812C201.602 42.1705 201.138 42.6378 200.538 43.1832L199.264 44.4318V44.4915H202.929V46H196.707ZM207.453 46.1193C206.851 46.1193 206.314 46.0085 205.843 45.7869C205.374 45.5653 205.002 45.2599 204.726 44.8707C204.451 44.4815 204.307 44.0355 204.296 43.5327H206.086C206.105 43.8707 206.248 44.1449 206.512 44.3551C206.776 44.5653 207.09 44.6705 207.453 44.6705C207.743 44.6705 207.999 44.6065 208.221 44.4787C208.445 44.348 208.62 44.1676 208.745 43.9375C208.873 43.7045 208.936 43.4375 208.936 43.1364C208.936 42.8295 208.871 42.5597 208.74 42.3267C208.613 42.0937 208.435 41.9119 208.208 41.7812C207.98 41.6506 207.721 41.5838 207.428 41.581C207.172 41.581 206.924 41.6335 206.682 41.7386C206.444 41.8437 206.257 41.9872 206.124 42.169L204.483 41.875L204.897 37.2727H210.232V38.7812H206.418L206.192 40.9673H206.243C206.397 40.7514 206.628 40.5724 206.938 40.4304C207.248 40.2884 207.594 40.2173 207.978 40.2173C208.503 40.2173 208.972 40.3409 209.384 40.5881C209.796 40.8352 210.121 41.1747 210.36 41.6065C210.598 42.0355 210.716 42.5298 210.713 43.0895C210.716 43.6776 210.58 44.2003 210.304 44.6577C210.032 45.1122 209.65 45.4702 209.158 45.7315C208.669 45.9901 208.101 46.1193 207.453 46.1193ZM215.35 46.1193C214.901 46.1165 214.468 46.0412 214.05 45.8935C213.635 45.7457 213.263 45.5057 212.934 45.1733C212.604 44.8409 212.343 44.4006 212.15 43.8523C211.959 43.304 211.864 42.6307 211.864 41.8324C211.867 41.0994 211.951 40.4446 212.115 39.8679C212.283 39.2884 212.522 38.7969 212.831 38.3935C213.144 37.9901 213.517 37.6832 213.952 37.473C214.387 37.2599 214.874 37.1534 215.414 37.1534C215.996 37.1534 216.51 37.267 216.956 37.4943C217.402 37.7187 217.76 38.0241 218.03 38.4105C218.303 38.7969 218.468 39.2301 218.525 39.7102H216.705C216.634 39.4062 216.485 39.1676 216.257 38.9943C216.03 38.821 215.749 38.7344 215.414 38.7344C214.846 38.7344 214.414 38.9815 214.118 39.4759C213.826 39.9702 213.676 40.642 213.671 41.4915H213.73C213.861 41.233 214.037 41.0128 214.259 40.831C214.483 40.6463 214.738 40.5057 215.022 40.4091C215.309 40.3097 215.611 40.2599 215.929 40.2599C216.446 40.2599 216.907 40.3821 217.31 40.6264C217.713 40.8679 218.032 41.2003 218.265 41.6236C218.498 42.0469 218.614 42.5312 218.614 43.0767C218.614 43.6676 218.476 44.1932 218.201 44.6534C217.928 45.1136 217.546 45.4744 217.054 45.7358C216.566 45.9943 215.998 46.1222 215.35 46.1193ZM215.341 44.6705C215.625 44.6705 215.88 44.6023 216.104 44.4659C216.328 44.3295 216.505 44.1449 216.632 43.9119C216.76 43.679 216.824 43.4176 216.824 43.1278C216.824 42.8381 216.76 42.5781 216.632 42.348C216.507 42.1179 216.334 41.9347 216.113 41.7983C215.891 41.6619 215.638 41.5938 215.354 41.5938C215.141 41.5938 214.944 41.6335 214.762 41.7131C214.583 41.7926 214.425 41.9034 214.289 42.0455C214.155 42.1875 214.05 42.3523 213.973 42.5398C213.897 42.7244 213.858 42.9219 213.858 43.1321C213.858 43.4134 213.922 43.6705 214.05 43.9034C214.181 44.1364 214.357 44.3224 214.578 44.4616C214.803 44.6009 215.057 44.6705 215.341 44.6705ZM224.017 41.696V43.1364H220.037V41.696H224.017ZM225.598 46V37.2727H227.414V40.554H227.469C227.549 40.3778 227.664 40.1989 227.814 40.017C227.968 39.8324 228.167 39.679 228.411 39.5568C228.658 39.4318 228.965 39.3693 229.331 39.3693C229.809 39.3693 230.249 39.4943 230.652 39.7443C231.056 39.9915 231.378 40.3651 231.62 40.8651C231.861 41.3622 231.982 41.9858 231.982 42.7358C231.982 43.4659 231.864 44.0824 231.628 44.5852C231.395 45.0852 231.077 45.4645 230.674 45.723C230.273 45.9787 229.824 46.1065 229.327 46.1065C228.975 46.1065 228.675 46.0483 228.428 45.9318C228.184 45.8153 227.983 45.669 227.827 45.4929C227.671 45.3139 227.551 45.1335 227.469 44.9517H227.388V46H225.598ZM227.375 42.7273C227.375 43.1165 227.429 43.456 227.537 43.7457C227.645 44.0355 227.801 44.2614 228.006 44.4233C228.211 44.5824 228.459 44.6619 228.752 44.6619C229.047 44.6619 229.297 44.581 229.502 44.419C229.706 44.2543 229.861 44.027 229.966 43.7372C230.074 43.4446 230.128 43.108 230.128 42.7273C230.128 42.3494 230.076 42.017 229.971 41.7301C229.865 41.4432 229.711 41.2187 229.506 41.0568C229.301 40.8949 229.05 40.8139 228.752 40.8139C228.456 40.8139 228.206 40.892 228.002 41.0483C227.8 41.2045 227.645 41.4261 227.537 41.7131C227.429 42 227.375 42.3381 227.375 42.7273ZM233.193 46V39.4545H235.009V46H233.193ZM234.105 38.6108C233.835 38.6108 233.604 38.5213 233.411 38.3423C233.22 38.1605 233.125 37.9432 233.125 37.6903C233.125 37.4403 233.22 37.2259 233.411 37.0469C233.604 36.8651 233.835 36.7741 234.105 36.7741C234.375 36.7741 234.605 36.8651 234.795 37.0469C234.989 37.2259 235.085 37.4403 235.085 37.6903C235.085 37.9432 234.989 38.1605 234.795 38.3423C234.605 38.5213 234.375 38.6108 234.105 38.6108ZM239.944 39.4545V40.8182H236.002V39.4545H239.944ZM236.897 37.8864H238.713V43.9886C238.713 44.1562 238.738 44.2869 238.789 44.3807C238.841 44.4716 238.912 44.5355 239.002 44.5724C239.096 44.6094 239.204 44.6278 239.326 44.6278C239.412 44.6278 239.497 44.6207 239.582 44.6065C239.667 44.5895 239.733 44.5767 239.778 44.5682L240.064 45.919C239.973 45.9474 239.845 45.9801 239.68 46.017C239.515 46.0568 239.315 46.081 239.079 46.0895C238.642 46.1065 238.258 46.0483 237.929 45.9148C237.602 45.7812 237.348 45.5739 237.166 45.2926C236.984 45.0114 236.895 44.6562 236.897 44.2273V37.8864Z" fill="#0F1729"/>
</g>
<defs>
<filter id="filter0_f_279_45642" x="0" y="0" width="288" height="288" filterUnits="userSpaceOnUse" color-interpolation-filters="sRGB">
<feFlood flood-opacity="0" result="BackgroundImageFix"/>
<feBlend mode="normal" in="SourceGraphic" in2="BackgroundImageFix" result="shape"/>
<feGaussianBlur stdDeviation="32" result="effect1_foregroundBlur_279_45642"/>
</filter>
<filter id="filter1_dd_279_45642" x="13" y="205" width="151" height="96" filterUnits="userSpaceOnUse" color-interpolation-filters="sRGB">
<feFlood flood-opacity="0" result="BackgroundImageFix"/>
<feColorMatrix in="SourceAlpha" type="matrix" values="0 0 0 0 0 0 0 0 0 0 0 0 0 0 0 0 0 0 127 0" result="hardAlpha"/>
<feMorphology radius="6" operator="erode" in="SourceAlpha" result="effect1_dropShadow_279_45642"/>
<feOffset dy="8"/>
<feGaussianBlur stdDeviation="5"/>
<feComposite in2="hardAlpha" operator="out"/>
<feColorMatrix type="matrix" values="0 0 0 0 0.0588235 0 0 0 0 0.0901961 0 0 0 0 0.160784 0 0 0 0.1 0"/>
<feBlend mode="normal" in2="BackgroundImageFix" result="effect1_dropShadow_279_45642"/>
<feColorMatrix in="SourceAlpha" type="matrix" values="0 0 0 0 0 0 0 0 0 0 0 0 0 0 0 0 0 0 127 0" result="hardAlpha"/>
<feMorphology radius="5" operator="erode" in="SourceAlpha" result="effect2_dropShadow_279_45642"/>
<feOffset dy="20"/>
<feGaussianBlur stdDeviation="12.5"/>
<feComposite in2="hardAlpha" operator="out"/>
<feColorMatrix type="matrix" values="0 0 0 0 0.0588235 0 0 0 0 0.0901961 0 0 0 0 0.160784 0 0 0 0.1 0"/>
<feBlend mode="normal" in2="effect1_dropShadow_279_45642" result="effect2_dropShadow_279_45642"/>
<feBlend mode="normal" in="SourceGraphic" in2="effect2_dropShadow_279_45642" result="shape"/>
</filter>
<filter id="filter2_dd_279_45642" x="124" y="14" width="149" height="96" filterUnits="userSpaceOnUse" color-interpolation-filters="sRGB">
<feFlood flood-opacity="0" result="BackgroundImageFix"/>
<feColorMatrix in="SourceAlpha" type="matrix" values="0 0 0 0 0 0 0 0 0 0 0 0 0 0 0 0 0 0 127 0" result="hardAlpha"/>
<feMorphology radius="6" operator="erode" in="SourceAlpha" result="effect1_dropShadow_279_45642"/>
<feOffset dy="8"/>
<feGaussianBlur stdDeviation="5"/>
<feComposite in2="hardAlpha" operator="out"/>
<feColorMatrix type="matrix" values="0 0 0 0 0.0588235 0 0 0 0 0.0901961 0 0 0 0 0.160784 0 0 0 0.1 0"/>
<feBlend mode="normal" in2="BackgroundImageFix" result="effect1_dropShadow_279_45642"/>
<feColorMatrix in="SourceAlpha" type="matrix" values="0 0 0 0 0 0 0 0 0 0 0 0 0 0 0 0 0 0 127 0" result="hardAlpha"/>
<feMorphology radius="5" operator="erode" in="SourceAlpha" result="effect2_dropShadow_279_45642"/>
<feOffset dy="20"/>
<feGaussianBlur stdDeviation="12.5"/>
<feComposite in2="hardAlpha" operator="out"/>
<feColorMatrix type="matrix" values="0 0 0 0 0.0588235 0 0 0 0 0.0901961 0 0 0 0 0.160784 0 0 0 0.1 0"/>
<feBlend mode="normal" in2="effect1_dropShadow_279_45642" result="effect2_dropShadow_279_45642"/>
<feBlend mode="normal" in="SourceGraphic" in2="effect2_dropShadow_279_45642" result="shape"/>
</filter>
<linearGradient id="paint0_linear_279_45642" x1="144" y1="30.8604" x2="304" y2="190.86" gradientUnits="userSpaceOnUse">
<stop stop-color="#0B64F4"/>
<stop offset="1" stop-color="#48566A"/>
</linearGradient>
<linearGradient id="paint1_linear_279_45642" x1="144" y1="42.1797" x2="288" y2="186.18" gradientUnits="userSpaceOnUse">
<stop stop-color="#0B64F4" stop-opacity="0.9"/>
<stop offset="1" stop-color="#0B64F4"/>
</linearGradient>
</defs>
</svg>
