<svg width="128" height="32" viewBox="0 0 128 32" fill="none" xmlns="http://www.w3.org/2000/svg">
<path fill-rule="evenodd" clip-rule="evenodd" d="M1.95031 15.2758C-0.230468 12.3942 -0.771701 8.33607 1.30271 4.77417C3.02588 1.82363 6.20736 0.00292969 9.65373 0.00292969H16.6565L17.9217 1.68993H10.919C7.47261 1.68993 4.29113 3.51063 2.56796 6.46117C0.493549 10.0231 1.03478 14.0812 3.21556 16.9628L1.95031 15.2758Z" fill="#6580E1" fill-opacity="0.6"/>
<path fill-rule="evenodd" clip-rule="evenodd" d="M16.6569 0.00292969L14.3558 3.93699H9.65412C7.6317 3.93699 5.76065 5.00558 4.74942 6.73779C4.2232 7.63962 3.98242 8.59594 3.98242 9.52839C3.98242 10.6991 4.36104 11.8311 5.02692 12.7681L6.29217 14.4551C5.62629 13.5181 5.24767 12.3861 5.24767 11.2154C5.24767 10.2829 5.48845 9.32662 6.01467 8.42479C7.0259 6.69258 8.89695 5.62399 10.9194 5.62399H15.6211L17.9221 1.68993L16.6569 0.00292969Z" fill="#6580E1" fill-opacity="0.6"/>
<path fill-rule="evenodd" clip-rule="evenodd" d="M5.02637 12.7686C6.02519 14.174 7.67036 15.1407 9.65356 15.1407H20.8318C21.5053 15.1407 22.0675 15.4582 22.421 15.9258L23.6862 17.6128C23.3327 17.1452 22.7705 16.8277 22.097 16.8277H10.9188C8.93561 16.8277 7.29044 15.861 6.29162 14.4556L5.02637 12.7686Z" fill="#6580E1" fill-opacity="0.6"/>
<path fill-rule="evenodd" clip-rule="evenodd" d="M22.4208 15.9258C22.8707 16.5209 22.9824 17.359 22.5548 18.0946C22.3794 18.3975 22.1248 18.6425 21.8256 18.8161C21.5264 18.9862 21.1859 19.0781 20.8316 19.0781H14.3173L9.86316 26.7148H5.27148L6.53673 28.4018H11.1284L15.5825 20.7651H22.0969C22.4511 20.7651 22.7916 20.6732 23.0908 20.5031C23.3901 20.3295 23.6446 20.0845 23.82 19.7816C24.2476 19.046 24.1359 18.2079 23.686 17.6128L22.4208 15.9258Z" fill="#6580E1" fill-opacity="0.6"/>
<path fill-rule="evenodd" clip-rule="evenodd" d="M5.27148 26.7148L9.72559 19.0781L10.9908 20.7651L6.53673 28.4018L5.27148 26.7148Z" fill="#6580E1" fill-opacity="0.6"/>
<path fill-rule="evenodd" clip-rule="evenodd" d="M9.72583 19.0782H9.65362C6.38929 19.0782 3.66366 17.5405 1.9502 15.2764L3.21545 16.9634C4.92891 19.2275 7.65454 20.7652 10.9189 20.7652H10.9911L9.72583 19.0782Z" fill="#6580E1" fill-opacity="0.6"/>
<path fill-rule="evenodd" clip-rule="evenodd" d="M14.0771 26.7114H21.0799C24.5262 26.7114 27.7077 24.8942 29.4309 21.9402C31.4331 18.5074 31.0011 14.6111 29.0118 11.7529L30.2771 13.4399C32.2663 16.2981 32.6983 20.1944 30.6961 23.6272C28.973 26.5812 25.7915 28.3984 22.3451 28.3984H15.3424L14.0771 26.7114Z" fill="#6580E1" fill-opacity="0.6"/>
<path fill-rule="evenodd" clip-rule="evenodd" d="M29.0119 11.7529C27.3174 9.31817 24.4927 7.63672 21.08 7.63672H21.0146L22.2799 9.32372H22.3453C25.758 9.32372 28.5826 11.0052 30.2772 13.4399L29.0119 11.7529Z" fill="#6580E1" fill-opacity="0.6"/>
<path fill-rule="evenodd" clip-rule="evenodd" d="M21.0146 7.63671L25.4688 0L26.734 1.687L22.2799 9.32371L21.0146 7.63671Z" fill="#6580E1" fill-opacity="0.6"/>
<path fill-rule="evenodd" clip-rule="evenodd" d="M25.4687 0H20.877L16.4229 7.63671H9.90516C9.55089 7.63671 9.20696 7.72857 8.91114 7.89875C8.61191 8.0723 8.36084 8.31733 8.18544 8.62019C7.7731 9.32773 7.86226 10.1325 8.27253 10.7232L9.53778 12.4102C9.12751 11.8195 9.03835 11.0147 9.45069 10.3072C9.62609 10.0043 9.87716 9.7593 10.1764 9.58575C10.4722 9.41557 10.8161 9.32371 11.1704 9.32371H17.6882L22.1423 1.687H26.734L25.4687 0Z" fill="#6580E1" fill-opacity="0.6"/>
<path fill-rule="evenodd" clip-rule="evenodd" d="M8.27246 10.7236C8.62195 11.2268 9.20447 11.5746 9.90851 11.5746H21.0902C23.0073 11.5746 24.6085 12.4779 25.6154 13.8077L26.8806 15.4947C25.8738 14.1649 24.2726 13.2616 22.3555 13.2616H11.1738C10.4697 13.2616 9.8872 12.9138 9.53771 12.4106L8.27246 10.7236Z" fill="#6580E1" fill-opacity="0.6"/>
<path fill-rule="evenodd" clip-rule="evenodd" d="M25.6153 13.8076C26.3444 14.7706 26.7619 15.9572 26.7619 17.1864C26.7619 18.1189 26.5211 19.0752 25.9949 19.977C24.9836 21.7092 23.1161 22.7778 21.0902 22.7778H16.3781L14.0771 26.7118L15.3424 28.3988L17.6434 24.4648H22.3554C24.3813 24.4648 26.2489 23.3962 27.2601 21.664C27.7863 20.7622 28.0271 19.8059 28.0271 18.8734C28.0271 17.6442 27.6097 16.4576 26.8806 15.4946L25.6153 13.8076Z" fill="#6580E1" fill-opacity="0.6"/>
<path d="M9.65373 19.0781C2.2348 19.0781 -2.40159 11.1352 1.30271 4.77463C3.02588 1.82409 6.20736 0.0033961 9.65373 0.0033961H16.6565L14.3554 3.93745H9.65373C7.63132 3.93745 5.76026 5.00605 4.74903 6.73826C4.22282 7.64009 3.98204 8.59641 3.98204 9.52885C3.98204 12.4556 6.34839 15.1407 9.65373 15.1407H20.832C22.3625 15.1407 23.3187 16.781 22.5551 18.0946C22.3797 18.3975 22.1252 18.6425 21.8259 18.8161C21.5267 18.9863 21.1862 19.0781 20.832 19.0781H14.3176L9.86351 26.7148H5.27183L9.72594 19.0781H9.65373ZM16.3779 22.7774L14.0769 26.7114H21.0796C24.5259 26.7114 27.7075 24.8941 29.4306 21.9402C33.1383 15.5831 28.4985 7.63671 21.0796 7.63671H21.0142L25.4684 0H20.8767L16.4226 7.63671H9.9048C9.55053 7.63671 9.20659 7.72857 8.91078 7.89875C8.61155 8.0723 8.36048 8.31733 8.18507 8.62019C7.42149 9.93044 8.37769 11.5742 9.90822 11.5742H21.0899C24.3953 11.5742 26.7616 14.2592 26.7616 17.186C26.7616 18.1185 26.5208 19.0747 25.9946 19.9766C24.9834 21.7088 23.1158 22.7774 21.0899 22.7774H16.3779Z" fill="url(#paint0_linear_2010_45714)"/>
<path d="M43.32 24.288C42.104 24.288 41.024 24.072 40.08 23.64C39.136 23.208 38.392 22.592 37.848 21.792C37.32 20.992 37.048 20.04 37.032 18.936H40.08C40.096 19.496 40.232 20 40.488 20.448C40.744 20.88 41.104 21.224 41.568 21.48C42.048 21.736 42.624 21.864 43.296 21.864C43.888 21.864 44.392 21.776 44.808 21.6C45.24 21.408 45.568 21.144 45.792 20.808C46.016 20.456 46.128 20.048 46.128 19.584C46.128 19.04 46 18.6 45.744 18.264C45.504 17.912 45.16 17.616 44.712 17.376C44.28 17.136 43.776 16.928 43.2 16.752C42.64 16.576 42.048 16.376 41.424 16.152C40.128 15.72 39.144 15.16 38.472 14.472C37.8 13.768 37.464 12.832 37.464 11.664C37.464 10.688 37.696 9.848 38.16 9.144C38.64 8.44 39.296 7.896 40.128 7.512C40.976 7.112 41.952 6.912 43.056 6.912C44.176 6.912 45.152 7.112 45.984 7.512C46.816 7.912 47.472 8.472 47.952 9.192C48.448 9.896 48.704 10.744 48.72 11.736H45.648C45.648 11.32 45.536 10.936 45.312 10.584C45.104 10.216 44.8 9.92 44.4 9.696C44.016 9.456 43.552 9.336 43.008 9.336C42.528 9.32 42.096 9.4 41.712 9.576C41.328 9.736 41.024 9.976 40.8 10.296C40.592 10.6 40.488 10.984 40.488 11.448C40.488 11.896 40.592 12.272 40.8 12.576C41.008 12.864 41.304 13.112 41.688 13.32C42.072 13.512 42.512 13.696 43.008 13.872C43.52 14.048 44.08 14.24 44.688 14.448C45.52 14.72 46.272 15.056 46.944 15.456C47.632 15.84 48.176 16.344 48.576 16.968C48.976 17.592 49.176 18.4 49.176 19.392C49.176 20.256 48.952 21.064 48.504 21.816C48.056 22.552 47.4 23.152 46.536 23.616C45.672 24.064 44.6 24.288 43.32 24.288ZM56.418 24C55.618 24 54.914 23.872 54.306 23.616C53.698 23.36 53.226 22.936 52.89 22.344C52.57 21.752 52.41 20.952 52.41 19.944V14.496H50.37V12.096H52.41L52.746 8.976H55.29V12.096H58.554V14.496H55.29V19.944C55.29 20.552 55.418 20.976 55.674 21.216C55.93 21.44 56.378 21.552 57.018 21.552H58.458V24H56.418ZM65.0109 24.288C64.0509 24.288 63.2189 24.088 62.5149 23.688C61.8269 23.272 61.2989 22.664 60.9309 21.864C60.5629 21.048 60.3789 20.048 60.3789 18.864V12.096H63.2589V18.576C63.2589 19.648 63.4749 20.464 63.9069 21.024C64.3389 21.584 65.0029 21.864 65.8989 21.864C66.4909 21.864 67.0189 21.72 67.4829 21.432C67.9469 21.144 68.3069 20.736 68.5629 20.208C68.8349 19.664 68.9709 19.008 68.9709 18.24V12.096H71.8509V24H69.3069L69.0909 21.96C68.7229 22.664 68.1869 23.232 67.4829 23.664C66.7789 24.08 65.9549 24.288 65.0109 24.288ZM79.857 24.288C78.737 24.288 77.729 24.016 76.833 23.472C75.953 22.928 75.257 22.184 74.745 21.24C74.249 20.296 74.001 19.224 74.001 18.024C74.001 16.824 74.249 15.76 74.745 14.832C75.257 13.888 75.953 13.152 76.833 12.624C77.729 12.08 78.745 11.808 79.881 11.808C80.793 11.808 81.593 11.984 82.281 12.336C82.969 12.672 83.513 13.16 83.913 13.8V6.72H86.793V24H84.225L83.913 22.248C83.657 22.6 83.345 22.936 82.977 23.256C82.609 23.56 82.169 23.808 81.657 24C81.145 24.192 80.545 24.288 79.857 24.288ZM80.433 21.792C81.121 21.792 81.729 21.632 82.257 21.312C82.785 20.992 83.193 20.552 83.481 19.992C83.785 19.416 83.937 18.768 83.937 18.048C83.937 17.312 83.785 16.664 83.481 16.104C83.193 15.544 82.785 15.104 82.257 14.784C81.729 14.464 81.121 14.304 80.433 14.304C79.761 14.304 79.153 14.464 78.609 14.784C78.081 15.104 77.665 15.544 77.361 16.104C77.073 16.664 76.929 17.304 76.929 18.024C76.929 18.76 77.073 19.416 77.361 19.992C77.665 20.552 78.081 20.992 78.609 21.312C79.153 21.632 79.761 21.792 80.433 21.792Z" fill="#1C1E21"/>
<path d="M89.4435 24V7.2H95.5395C96.8835 7.2 97.9875 7.424 98.8515 7.872C99.7315 8.32 100.379 8.928 100.795 9.696C101.227 10.464 101.443 11.336 101.443 12.312C101.443 13.24 101.235 14.088 100.819 14.856C100.419 15.624 99.7795 16.24 98.8995 16.704C98.0195 17.168 96.8995 17.4 95.5395 17.4H92.3235V24H89.4435ZM92.3235 15.048H95.3715C96.4915 15.048 97.2915 14.8 97.7715 14.304C98.2675 13.808 98.5155 13.144 98.5155 12.312C98.5155 11.448 98.2675 10.776 97.7715 10.296C97.2915 9.8 96.4915 9.552 95.3715 9.552H92.3235V15.048ZM106.538 24.288C105.53 24.288 104.698 24.128 104.042 23.808C103.386 23.472 102.898 23.032 102.578 22.488C102.258 21.928 102.098 21.32 102.098 20.664C102.098 19.912 102.29 19.264 102.674 18.72C103.074 18.16 103.658 17.728 104.426 17.424C105.194 17.104 106.146 16.944 107.282 16.944H110.33C110.33 16.32 110.234 15.808 110.042 15.408C109.866 14.992 109.586 14.68 109.202 14.472C108.834 14.264 108.37 14.16 107.81 14.16C107.154 14.16 106.578 14.32 106.082 14.64C105.602 14.944 105.314 15.4 105.218 16.008H102.386C102.466 15.144 102.754 14.4 103.25 13.776C103.746 13.152 104.394 12.672 105.194 12.336C105.994 11.984 106.874 11.808 107.834 11.808C108.954 11.808 109.914 12.008 110.714 12.408C111.53 12.792 112.146 13.344 112.562 14.064C112.994 14.784 113.21 15.656 113.21 16.68V24H110.762L110.474 22.08C110.314 22.4 110.106 22.696 109.85 22.968C109.61 23.224 109.33 23.456 109.01 23.664C108.69 23.856 108.322 24.008 107.906 24.12C107.506 24.232 107.05 24.288 106.538 24.288ZM107.186 22.008C107.65 22.008 108.066 21.928 108.434 21.768C108.802 21.592 109.114 21.352 109.37 21.048C109.642 20.744 109.85 20.4 109.994 20.016C110.138 19.632 110.226 19.232 110.258 18.816V18.792H107.594C107.018 18.792 106.546 18.864 106.178 19.008C105.81 19.152 105.538 19.352 105.362 19.608C105.202 19.848 105.122 20.128 105.122 20.448C105.122 20.784 105.202 21.072 105.362 21.312C105.538 21.536 105.778 21.712 106.082 21.84C106.386 21.952 106.754 22.008 107.186 22.008ZM116.635 29.28L119.611 22.656H118.891L114.067 12.096H117.187L120.835 20.136L124.243 12.096H127.291L119.683 29.28H116.635Z" fill="#0A91FF"/>
<defs>
<linearGradient id="paint0_linear_2010_45714" x1="15.3674" y1="0" x2="15.3674" y2="26.7148" gradientUnits="userSpaceOnUse">
<stop stop-color="#8F66FF"/>
<stop offset="1" stop-color="#12DEFF"/>
</linearGradient>
</defs>
</svg>
