<svg width="162" height="31" viewBox="0 0 162 31" fill="none" xmlns="http://www.w3.org/2000/svg">
<path d="M10.897 21.6185H10.8237C2.50565 21.6185 -2.69266 12.6178 1.46059 5.4104C3.3926 2.06698 6.95969 0.00384831 10.8237 0.00384831H18.6751L16.0953 4.46174H10.8237C8.5562 4.46174 6.45836 5.67263 5.32461 7.63549C4.73459 8.65741 4.46465 9.74104 4.46465 10.7977C4.46465 14.1141 7.1178 17.1567 10.8237 17.1567H13.4769H18.625H23.3567C25.0728 17.1567 26.1448 19.0155 25.2887 20.504C25.092 20.8472 24.8067 21.1249 24.4712 21.3215C24.1357 21.5143 23.7539 21.6185 23.3567 21.6185H16.076H16.0529L11.0589 30.272H5.91076L10.9047 21.6185H10.897ZM18.3628 25.8103L15.7829 30.2682H23.6344C27.4984 30.2682 31.0655 28.2089 32.9975 24.8616C37.1546 17.658 31.9524 8.65356 23.6344 8.65356H23.5611L28.555 0H23.4068L18.4129 8.65356H11.1052C10.708 8.65356 10.3224 8.75768 9.99074 8.95049C9.65525 9.14716 9.37373 9.42482 9.17706 9.76803C8.32096 11.2527 9.39301 13.1153 11.1091 13.1153H15.8176H20.9658H20.9928H23.6459C27.3519 13.1153 30.005 16.1579 30.005 19.4744C30.005 20.531 29.7351 21.6146 29.145 22.6365C28.0113 24.5994 25.9173 25.8103 23.6459 25.8103H18.3744H18.3628Z" fill="url(#paint0_linear_648_8345)"/>
<path d="M39.4597 17.7506H43.9716C43.9716 19.4049 45.6259 20.7084 47.7237 20.7084C49.6635 20.7084 51.2523 19.6595 51.2523 18.1671C51.2523 14.3223 39.8106 16.0384 39.8106 8.5687C39.8106 4.53114 43.2427 1.92429 47.5656 1.92429C51.8886 1.92429 55.4171 4.75482 55.4171 8.50315H50.9052C50.9052 6.97605 49.4437 5.83458 47.5039 5.83458C45.7879 5.83458 44.3263 6.75624 44.3263 8.21779C44.3263 12.1281 55.768 10.0611 55.768 17.658C55.768 21.8845 52.2087 24.6187 47.6929 24.6187C43.1772 24.6187 39.4597 21.63 39.4597 17.7544V17.7506Z" fill="url(#paint1_linear_648_8345)"/>
<path d="M59.709 19.1196V11.808H57.133V8.02496H58.5945C59.4545 8.02496 59.9288 7.58148 59.9288 6.72152V3.70203H63.8391V8.02496H67.5913V11.808H63.8391V18.4177C63.8391 19.6903 64.6335 20.4538 65.9678 20.4538H67.5875V24.2369H65.3624C61.6449 24.2369 59.7052 22.4553 59.7052 19.1196H59.709Z" fill="url(#paint2_linear_648_8345)"/>
<path d="M69.7817 18.4177V8.02496H73.9119V17.2107C73.9119 19.2777 75.2461 20.612 77.2476 20.612C79.3762 20.612 80.8069 19.2468 80.8069 17.149V8.02496H84.937V24.2369H80.8069V22.4553C79.5691 23.886 77.8838 24.6148 75.8786 24.6148C72.2228 24.6148 69.774 22.166 69.774 18.4177H69.7817Z" fill="url(#paint3_linear_648_8345)"/>
<path d="M100.416 16.1309C100.416 13.5896 98.5074 11.6499 95.9352 11.6499C93.3631 11.6499 91.485 13.5896 91.485 16.1309C91.485 18.6723 93.3939 20.612 95.9352 20.612C98.4765 20.612 100.416 18.6723 100.416 16.1309ZM104.55 2.30608V24.2331H100.416V22.3242C99.1128 23.7549 97.3004 24.6148 95.137 24.6148C90.6251 24.6148 87.2238 20.959 87.2238 16.1271C87.2238 11.2951 90.6251 7.63936 95.137 7.63936C97.3004 7.63936 99.1128 8.49932 100.416 9.93001V2.30222H104.55V2.30608Z" fill="url(#paint4_linear_648_8345)"/>
<path d="M108.032 2.30606H117.569C121.576 2.30606 124.595 5.26386 124.595 9.205C124.595 13.1462 121.576 16.0692 117.569 16.0692H110.959V24.2369H108.036V2.30606H108.032ZM110.959 5.03633V13.3312H117.507C119.829 13.3312 121.607 11.5843 121.607 9.20114C121.607 6.81795 119.825 5.03633 117.507 5.03633H110.959Z" fill="url(#paint5_linear_648_8345)"/>
<path d="M125.193 16.1309C125.193 11.299 128.656 7.64319 133.299 7.64319C136.002 7.64319 138.227 8.91577 139.592 10.948V8.02497H142.327V24.2369H139.592V21.3138C138.227 23.3499 136.002 24.6187 133.299 24.6187C128.66 24.6187 125.193 20.9629 125.193 16.1309ZM139.592 16.1309C139.592 12.7952 137.113 10.2809 133.808 10.2809C130.503 10.2809 127.993 12.7914 127.993 16.1309C127.993 19.4705 130.472 21.981 133.808 21.981C137.144 21.981 139.592 19.4705 139.592 16.1309Z" fill="url(#paint6_linear_648_8345)"/>
<path d="M147.124 8.02496H144.008L150.194 22.1738L151.674 18.7802L147.124 8.02496Z" fill="url(#paint7_linear_648_8345)"/>
<path d="M161.107 8.02496L151.35 30.272H148.397L158.057 8.02496H161.107Z" fill="url(#paint8_linear_648_8345)"/>
<defs>
<linearGradient id="paint0_linear_648_8345" x1="3.99804" y1="28.367" x2="30.4562" y2="1.90888" gradientUnits="userSpaceOnUse">
<stop stop-color="#8F66FF"/>
<stop offset="0.49" stop-color="#0D8CFF"/>
<stop offset="0.74" stop-color="#0FB2FF"/>
<stop offset="1" stop-color="#12DEFF"/>
</linearGradient>
<linearGradient id="paint1_linear_648_8345" x1="6.92783" y1="13.2696" x2="150.803" y2="13.2696" gradientUnits="userSpaceOnUse">
<stop stop-color="#8F66FF"/>
<stop offset="0.49" stop-color="#0D8CFF"/>
<stop offset="0.74" stop-color="#0FB2FF"/>
<stop offset="1" stop-color="#12DEFF"/>
</linearGradient>
<linearGradient id="paint2_linear_648_8345" x1="6.92771" y1="13.9675" x2="150.803" y2="13.9675" gradientUnits="userSpaceOnUse">
<stop stop-color="#8F66FF"/>
<stop offset="0.49" stop-color="#0D8CFF"/>
<stop offset="0.74" stop-color="#0FB2FF"/>
<stop offset="1" stop-color="#12DEFF"/>
</linearGradient>
<linearGradient id="paint3_linear_648_8345" x1="6.92774" y1="16.3199" x2="150.803" y2="16.3199" gradientUnits="userSpaceOnUse">
<stop stop-color="#8F66FF"/>
<stop offset="0.49" stop-color="#0D8CFF"/>
<stop offset="0.74" stop-color="#0FB2FF"/>
<stop offset="1" stop-color="#12DEFF"/>
</linearGradient>
<linearGradient id="paint4_linear_648_8345" x1="6.92764" y1="13.4624" x2="150.803" y2="13.4624" gradientUnits="userSpaceOnUse">
<stop stop-color="#8F66FF"/>
<stop offset="0.49" stop-color="#0D8CFF"/>
<stop offset="0.74" stop-color="#0FB2FF"/>
<stop offset="1" stop-color="#12DEFF"/>
</linearGradient>
<linearGradient id="paint5_linear_648_8345" x1="6.9276" y1="13.2695" x2="150.803" y2="13.2695" gradientUnits="userSpaceOnUse">
<stop stop-color="#8F66FF"/>
<stop offset="0.49" stop-color="#0D8CFF"/>
<stop offset="0.74" stop-color="#0FB2FF"/>
<stop offset="1" stop-color="#12DEFF"/>
</linearGradient>
<linearGradient id="paint6_linear_648_8345" x1="6.92766" y1="16.1309" x2="150.803" y2="16.1309" gradientUnits="userSpaceOnUse">
<stop stop-color="#8F66FF"/>
<stop offset="0.49" stop-color="#0D8CFF"/>
<stop offset="0.74" stop-color="#0FB2FF"/>
<stop offset="1" stop-color="#12DEFF"/>
</linearGradient>
<linearGradient id="paint7_linear_648_8345" x1="6.92771" y1="15.0974" x2="150.803" y2="15.0974" gradientUnits="userSpaceOnUse">
<stop stop-color="#8F66FF"/>
<stop offset="0.49" stop-color="#0D8CFF"/>
<stop offset="0.74" stop-color="#0FB2FF"/>
<stop offset="1" stop-color="#12DEFF"/>
</linearGradient>
<linearGradient id="paint8_linear_648_8345" x1="6.92773" y1="19.1466" x2="150.803" y2="19.1466" gradientUnits="userSpaceOnUse">
<stop stop-color="#8F66FF"/>
<stop offset="0.49" stop-color="#0D8CFF"/>
<stop offset="0.74" stop-color="#0FB2FF"/>
<stop offset="1" stop-color="#12DEFF"/>
</linearGradient>
</defs>
</svg>
