<svg width="316" height="122" viewBox="0 0 316 122" fill="none" xmlns="http://www.w3.org/2000/svg">
<path d="M1.30273 51.368C1.30273 49.3921 2.18974 47.4972 3.76974 46.1001C5.34974 44.7029 7.49274 43.918 9.72774 43.918H26.5777C28.8117 43.918 30.9547 44.7029 32.5347 46.1001C34.1147 47.4972 35.0027 49.3921 35.0027 51.368V93.585H1.30273V51.368Z" fill="#6952E0"/>
<path d="M52.7891 63.784C52.7891 61.808 53.6771 59.913 55.2571 58.516C56.8371 57.119 58.9801 56.334 61.2141 56.334H78.0641C80.2991 56.334 82.4411 57.119 84.0211 58.516C85.6011 59.913 86.4891 61.808 86.4891 63.784V93.584H52.7891V63.784Z" fill="#6952E0"/>
<path d="M104.275 34.8113C104.275 32.8355 105.163 30.9405 106.743 29.5434C108.323 28.1462 110.466 27.3613 112.7 27.3613H129.55C131.785 27.3613 133.928 28.1462 135.508 29.5434C137.088 30.9405 137.975 32.8355 137.975 34.8113V93.584H104.275V34.8113Z" fill="#6952E0"/>
<path d="M155.761 43.0888C155.761 41.1129 156.648 39.2179 158.228 37.8208C159.808 36.4237 161.951 35.6387 164.186 35.6387H181.036C183.27 35.6387 185.413 36.4237 186.993 37.8208C188.573 39.2179 189.461 41.1129 189.461 43.0888V93.5831H155.761V43.0888Z" fill="#6952E0"/>
<path d="M207.247 14.118C207.247 12.1421 208.135 10.2472 209.715 8.84997C211.295 7.45287 213.438 6.66797 215.672 6.66797H232.522C234.757 6.66797 236.899 7.45287 238.479 8.84997C240.059 10.2472 240.947 12.1421 240.947 14.118V93.585H207.247V14.118Z" fill="#6952E0"/>
<path d="M258.733 26.534C258.733 24.5581 259.621 22.6632 261.201 21.266C262.781 19.8689 264.924 19.084 267.158 19.084H284.008C286.243 19.084 288.386 19.8689 289.966 21.266C291.546 22.6632 292.433 24.5581 292.433 26.534V93.584H258.733V26.534Z" fill="#6952E0"/>
<path d="M0.0566406 109.273H1.31763L4.28363 116.517H4.38564L7.35164 109.273H8.61363V118H7.62463V111.369H7.53963L4.81163 118H3.85764L1.13063 111.369H1.04463V118H0.0566406V109.273ZM12.5216 118.153C12.1076 118.153 11.7306 118.075 11.3926 117.919C11.0546 117.76 10.7866 117.531 10.5876 117.233C10.3886 116.932 10.2886 116.568 10.2886 116.142C10.2886 115.767 10.3626 115.463 10.5106 115.23C10.6586 114.994 10.8556 114.81 11.1026 114.676C11.3496 114.543 11.6226 114.443 11.9216 114.378C12.2226 114.31 12.5246 114.256 12.8286 114.216C13.2266 114.165 13.5486 114.126 13.7966 114.101C14.0466 114.072 14.2276 114.026 14.3416 113.96C14.4576 113.895 14.5166 113.781 14.5166 113.619V113.585C14.5166 113.165 14.4016 112.838 14.1716 112.605C13.9436 112.372 13.5986 112.256 13.1356 112.256C12.6556 112.256 12.2786 112.361 12.0066 112.571C11.7336 112.781 11.5416 113.006 11.4306 113.244L10.4766 112.903C10.6466 112.506 10.8746 112.196 11.1586 111.974C11.4456 111.75 11.7576 111.594 12.0956 111.506C12.4366 111.415 12.7716 111.369 13.1016 111.369C13.3116 111.369 13.5536 111.395 13.8256 111.446C14.1016 111.494 14.3676 111.595 14.6226 111.749C14.8816 111.902 15.0956 112.134 15.2666 112.443C15.4366 112.753 15.5216 113.168 15.5216 113.688V118H14.5166V117.114H14.4656C14.3966 117.256 14.2836 117.408 14.1246 117.57C13.9656 117.732 13.7536 117.869 13.4896 117.983C13.2246 118.097 12.9026 118.153 12.5216 118.153ZM12.6756 117.25C13.0736 117.25 13.4086 117.172 13.6806 117.016C13.9566 116.859 14.1636 116.658 14.3036 116.411C14.4456 116.163 14.5166 115.903 14.5166 115.631V114.71C14.4736 114.761 14.3796 114.808 14.2346 114.851C14.0926 114.891 13.9286 114.926 13.7406 114.957C13.5556 114.986 13.3756 115.011 13.1996 115.034C13.0266 115.054 12.8856 115.071 12.7776 115.085C12.5166 115.119 12.2716 115.175 12.0446 115.251C11.8206 115.325 11.6386 115.437 11.4996 115.588C11.3626 115.736 11.2946 115.937 11.2946 116.193C11.2946 116.543 11.4236 116.807 11.6826 116.986C11.9436 117.162 12.2746 117.25 12.6756 117.25ZM17.7706 120.455C17.6006 120.455 17.4486 120.44 17.3146 120.412C17.1816 120.386 17.0886 120.361 17.0376 120.335L17.2936 119.449C17.5376 119.511 17.7536 119.534 17.9416 119.517C18.1286 119.5 18.2946 119.416 18.4396 119.266C18.5876 119.118 18.7226 118.878 18.8446 118.545L19.0326 118.034L16.6116 111.455H17.7026L19.5096 116.67H19.5776L21.3846 111.455H22.4756L19.6966 118.955C19.5716 119.293 19.4176 119.572 19.2326 119.794C19.0476 120.018 18.8336 120.185 18.5886 120.293C18.3476 120.401 18.0746 120.455 17.7706 120.455Z" fill="#676284"/>
<path d="M61.1989 109.273H62.2549V115.511C62.2549 116.068 62.1529 116.541 61.9489 116.93C61.7439 117.32 61.4559 117.615 61.0829 117.817C60.7109 118.018 60.2719 118.119 59.7669 118.119C59.2889 118.119 58.8649 118.033 58.4929 117.859C58.1199 117.683 57.8279 117.433 57.6149 117.109C57.4019 116.786 57.2949 116.401 57.2949 115.955H58.3349C58.3349 116.202 58.3959 116.418 58.5179 116.602C58.6429 116.784 58.8139 116.926 59.0289 117.028C59.2449 117.131 59.4909 117.182 59.7669 117.182C60.0709 117.182 60.3289 117.118 60.5419 116.99C60.7549 116.862 60.9169 116.675 61.0279 116.428C61.1419 116.178 61.1989 115.872 61.1989 115.511V109.273ZM68.3619 115.324V111.455H69.3679V118H68.3619V116.892H68.2939C68.1399 117.224 67.9019 117.507 67.5779 117.74C67.2539 117.97 66.8449 118.085 66.3499 118.085C65.9409 118.085 65.5779 117.996 65.2599 117.817C64.9409 117.635 64.6909 117.362 64.5099 116.999C64.3279 116.632 64.2369 116.17 64.2369 115.614V111.455H65.2429V115.545C65.2429 116.023 65.3759 116.403 65.6429 116.688C65.9129 116.972 66.2569 117.114 66.6739 117.114C66.9239 117.114 67.1789 117.05 67.4369 116.922C67.6989 116.794 67.9169 116.598 68.0929 116.334C68.2719 116.07 68.3619 115.733 68.3619 115.324ZM72.2149 114.062V118H71.2099V111.455H72.1809V112.477H72.2659C72.4199 112.145 72.6529 111.878 72.9649 111.676C73.2779 111.472 73.6809 111.369 74.1749 111.369C74.6189 111.369 75.0059 111.46 75.3389 111.642C75.6709 111.821 75.9299 112.094 76.1139 112.46C76.2989 112.824 76.3909 113.284 76.3909 113.841V118H75.3859V113.909C75.3859 113.395 75.2519 112.994 74.9849 112.707C74.7179 112.418 74.3519 112.273 73.8859 112.273C73.5649 112.273 73.2779 112.342 73.0249 112.482C72.7749 112.621 72.5769 112.824 72.4329 113.091C72.2879 113.358 72.2149 113.682 72.2149 114.062Z" fill="#676284"/>
<path d="M115.997 109.273H117.054V115.511C117.054 116.068 116.952 116.541 116.747 116.93C116.543 117.32 116.254 117.615 115.882 117.817C115.51 118.018 115.071 118.119 114.566 118.119C114.088 118.119 113.664 118.033 113.291 117.859C112.919 117.683 112.627 117.433 112.414 117.109C112.2 116.786 112.094 116.401 112.094 115.955H113.134C113.134 116.202 113.195 116.418 113.317 116.602C113.442 116.784 113.612 116.926 113.828 117.028C114.044 117.131 114.29 117.182 114.566 117.182C114.869 117.182 115.128 117.118 115.341 116.99C115.554 116.862 115.716 116.675 115.827 116.428C115.941 116.178 115.997 115.872 115.997 115.511V109.273ZM123.161 115.324V111.455H124.166V118H123.161V116.892H123.093C122.939 117.224 122.7 117.507 122.377 117.74C122.053 117.97 121.644 118.085 121.149 118.085C120.74 118.085 120.377 117.996 120.058 117.817C119.74 117.635 119.49 117.362 119.308 116.999C119.127 116.632 119.036 116.17 119.036 115.614V111.455H120.041V115.545C120.041 116.023 120.175 116.403 120.442 116.688C120.712 116.972 121.056 117.114 121.473 117.114C121.723 117.114 121.977 117.05 122.236 116.922C122.497 116.794 122.716 116.598 122.892 116.334C123.071 116.07 123.161 115.733 123.161 115.324ZM127.014 109.273V118H126.008V109.273H127.014Z" fill="#676284"/>
<path d="M163.815 118H162.707L165.912 109.273H167.003L170.207 118H169.099L166.491 110.653H166.423L163.815 118ZM164.224 114.591H168.69V115.528H164.224V114.591ZM175.555 115.324V111.455H176.561V118H175.555V116.892H175.487C175.334 117.224 175.095 117.507 174.771 117.74C174.447 117.97 174.038 118.085 173.544 118.085C173.135 118.085 172.771 117.996 172.453 117.817C172.135 117.635 171.885 117.362 171.703 116.999C171.521 116.632 171.43 116.17 171.43 115.614V111.455H172.436V115.545C172.436 116.023 172.569 116.403 172.836 116.688C173.106 116.972 173.45 117.114 173.868 117.114C174.118 117.114 174.372 117.05 174.631 116.922C174.892 116.794 175.111 116.598 175.287 116.334C175.466 116.07 175.555 115.733 175.555 115.324ZM181.045 120.591C180.559 120.591 180.142 120.528 179.792 120.403C179.443 120.281 179.151 120.119 178.919 119.918C178.688 119.719 178.505 119.506 178.369 119.278L179.17 118.716C179.261 118.835 179.376 118.972 179.515 119.125C179.654 119.281 179.845 119.416 180.086 119.53C180.33 119.646 180.65 119.705 181.045 119.705C181.573 119.705 182.009 119.577 182.353 119.321C182.697 119.065 182.869 118.665 182.869 118.119V116.79H182.784C182.71 116.909 182.605 117.057 182.468 117.233C182.335 117.406 182.142 117.561 181.889 117.697C181.639 117.831 181.301 117.898 180.874 117.898C180.346 117.898 179.872 117.773 179.451 117.523C179.034 117.273 178.703 116.909 178.458 116.432C178.217 115.955 178.096 115.375 178.096 114.693C178.096 114.023 178.214 113.439 178.45 112.942C178.686 112.442 179.014 112.055 179.434 111.783C179.855 111.507 180.34 111.369 180.892 111.369C181.318 111.369 181.656 111.44 181.906 111.582C182.159 111.722 182.352 111.881 182.485 112.06C182.622 112.236 182.727 112.381 182.801 112.494H182.903V111.455H183.874V118.188C183.874 118.75 183.747 119.207 183.491 119.56C183.238 119.915 182.897 120.175 182.468 120.339C182.042 120.507 181.568 120.591 181.045 120.591ZM181.011 116.994C181.414 116.994 181.755 116.902 182.034 116.717C182.312 116.533 182.524 116.267 182.669 115.92C182.813 115.574 182.886 115.159 182.886 114.676C182.886 114.205 182.815 113.788 182.673 113.428C182.531 113.067 182.32 112.784 182.042 112.58C181.764 112.375 181.42 112.273 181.011 112.273C180.585 112.273 180.23 112.381 179.945 112.597C179.664 112.812 179.453 113.102 179.311 113.466C179.171 113.83 179.102 114.233 179.102 114.676C179.102 115.131 179.173 115.533 179.315 115.882C179.46 116.229 179.673 116.501 179.954 116.7C180.238 116.896 180.59 116.994 181.011 116.994Z" fill="#676284"/>
<path d="M225.03 111.454C224.979 111.022 224.771 110.687 224.408 110.448C224.044 110.209 223.598 110.09 223.07 110.09C222.683 110.09 222.345 110.152 222.055 110.277C221.768 110.402 221.544 110.574 221.382 110.793C221.223 111.012 221.143 111.26 221.143 111.539C221.143 111.772 221.199 111.972 221.31 112.14C221.423 112.304 221.568 112.442 221.744 112.553C221.92 112.661 222.105 112.75 222.298 112.821C222.491 112.89 222.669 112.945 222.831 112.988L223.717 113.226C223.945 113.286 224.197 113.368 224.476 113.473C224.757 113.579 225.025 113.722 225.281 113.904C225.54 114.083 225.753 114.313 225.92 114.594C226.088 114.875 226.172 115.221 226.172 115.63C226.172 116.101 226.048 116.527 225.801 116.908C225.557 117.289 225.199 117.591 224.727 117.816C224.258 118.04 223.689 118.152 223.018 118.152C222.393 118.152 221.852 118.052 221.395 117.85C220.94 117.648 220.582 117.367 220.321 117.006C220.062 116.645 219.916 116.226 219.882 115.749H220.973C221.001 116.079 221.112 116.351 221.305 116.567C221.501 116.78 221.748 116.939 222.047 117.044C222.348 117.147 222.672 117.198 223.018 117.198C223.422 117.198 223.784 117.133 224.105 117.002C224.426 116.868 224.68 116.684 224.868 116.448C225.055 116.209 225.149 115.931 225.149 115.613C225.149 115.323 225.068 115.087 224.906 114.905C224.744 114.723 224.531 114.576 224.267 114.462C224.003 114.348 223.717 114.249 223.41 114.164L222.337 113.857C221.655 113.661 221.115 113.381 220.717 113.017C220.32 112.654 220.121 112.178 220.121 111.59C220.121 111.101 220.253 110.675 220.517 110.311C220.784 109.945 221.142 109.661 221.591 109.459C222.043 109.255 222.547 109.152 223.104 109.152C223.666 109.152 224.166 109.253 224.604 109.455C225.041 109.654 225.388 109.927 225.643 110.273C225.902 110.62 226.038 111.013 226.052 111.454H225.03ZM230.517 118.135C229.887 118.135 229.343 117.996 228.885 117.718C228.431 117.437 228.08 117.044 227.833 116.542C227.588 116.036 227.466 115.448 227.466 114.777C227.466 114.107 227.588 113.516 227.833 113.005C228.08 112.49 228.424 112.09 228.864 111.803C229.307 111.513 229.824 111.368 230.415 111.368C230.756 111.368 231.093 111.425 231.425 111.539C231.757 111.652 232.06 111.837 232.333 112.093C232.605 112.346 232.823 112.681 232.985 113.098C233.147 113.516 233.228 114.03 233.228 114.641V115.067H228.182V114.198H232.205C232.205 113.829 232.131 113.499 231.983 113.209C231.838 112.919 231.631 112.691 231.361 112.523C231.094 112.356 230.779 112.272 230.415 112.272C230.014 112.272 229.668 112.371 229.375 112.57C229.085 112.766 228.862 113.022 228.706 113.337C228.55 113.652 228.472 113.99 228.472 114.351V114.931C228.472 115.425 228.557 115.844 228.728 116.188C228.901 116.529 229.141 116.789 229.448 116.968C229.755 117.144 230.111 117.232 230.517 117.232C230.782 117.232 231.02 117.195 231.233 117.121C231.449 117.044 231.635 116.931 231.791 116.78C231.948 116.627 232.068 116.436 232.154 116.209L233.125 116.482C233.023 116.811 232.851 117.101 232.61 117.351C232.368 117.598 232.07 117.792 231.715 117.931C231.36 118.067 230.96 118.135 230.517 118.135ZM234.757 120.454V111.454H235.729V112.493H235.848C235.922 112.38 236.024 112.235 236.155 112.059C236.289 111.88 236.479 111.721 236.726 111.581C236.976 111.439 237.314 111.368 237.74 111.368C238.291 111.368 238.777 111.506 239.198 111.782C239.618 112.057 239.946 112.448 240.182 112.954C240.418 113.459 240.536 114.056 240.536 114.743C240.536 115.437 240.418 116.037 240.182 116.546C239.946 117.052 239.62 117.444 239.202 117.722C238.784 117.998 238.303 118.135 237.757 118.135C237.337 118.135 237 118.066 236.747 117.927C236.495 117.785 236.3 117.624 236.164 117.445C236.027 117.263 235.922 117.113 235.848 116.993H235.763V120.454H234.757ZM235.746 114.726C235.746 115.221 235.818 115.657 235.963 116.035C236.108 116.41 236.32 116.704 236.598 116.917C236.877 117.127 237.218 117.232 237.621 117.232C238.041 117.232 238.392 117.121 238.674 116.9C238.958 116.675 239.171 116.374 239.313 115.996C239.458 115.615 239.53 115.192 239.53 114.726C239.53 114.266 239.459 113.851 239.317 113.482C239.178 113.11 238.966 112.816 238.682 112.6C238.401 112.381 238.047 112.272 237.621 112.272C237.212 112.272 236.868 112.375 236.59 112.583C236.311 112.787 236.101 113.074 235.959 113.444C235.817 113.81 235.746 114.238 235.746 114.726ZM242.803 118.067C242.593 118.067 242.412 117.992 242.262 117.841C242.111 117.691 242.036 117.51 242.036 117.3C242.036 117.09 242.111 116.91 242.262 116.759C242.412 116.608 242.593 116.533 242.803 116.533C243.013 116.533 243.193 116.608 243.344 116.759C243.495 116.91 243.57 117.09 243.57 117.3C243.57 117.439 243.534 117.567 243.463 117.684C243.395 117.8 243.303 117.894 243.186 117.965C243.073 118.033 242.945 118.067 242.803 118.067ZM242.803 113.209C242.593 113.209 242.412 113.134 242.262 112.983C242.111 112.833 242.036 112.652 242.036 112.442C242.036 112.232 242.111 112.052 242.262 111.901C242.412 111.75 242.593 111.675 242.803 111.675C243.013 111.675 243.193 111.75 243.344 111.901C243.495 112.052 243.57 112.232 243.57 112.442C243.57 112.581 243.534 112.709 243.463 112.826C243.395 112.942 243.303 113.036 243.186 113.107C243.073 113.175 242.945 113.209 242.803 113.209Z" fill="#676284"/>
<path d="M287.42 113.635C287.42 114.556 287.254 115.351 286.922 116.022C286.589 116.692 286.134 117.209 285.554 117.573C284.974 117.937 284.313 118.118 283.568 118.118C282.824 118.118 282.162 117.937 281.582 117.573C281.003 117.209 280.547 116.692 280.214 116.022C279.882 115.351 279.716 114.556 279.716 113.635C279.716 112.715 279.882 111.919 280.214 111.249C280.547 110.579 281.003 110.061 281.582 109.698C282.162 109.334 282.824 109.152 283.568 109.152C284.313 109.152 284.974 109.334 285.554 109.698C286.134 110.061 286.589 110.579 286.922 111.249C287.254 111.919 287.42 112.715 287.42 113.635ZM286.398 113.635C286.398 112.88 286.271 112.242 286.018 111.722C285.768 111.202 285.429 110.809 285 110.542C284.574 110.275 284.097 110.141 283.568 110.141C283.04 110.141 282.561 110.275 282.132 110.542C281.706 110.809 281.366 111.202 281.114 111.722C280.864 112.242 280.739 112.88 280.739 113.635C280.739 114.391 280.864 115.029 281.114 115.549C281.366 116.069 281.706 116.462 282.132 116.729C282.561 116.996 283.04 117.13 283.568 117.13C284.097 117.13 284.574 116.996 285 116.729C285.429 116.462 285.768 116.069 286.018 115.549C286.271 115.029 286.398 114.391 286.398 113.635ZM291.72 118.135C291.107 118.135 290.578 117.99 290.135 117.701C289.692 117.411 289.351 117.012 289.112 116.503C288.874 115.995 288.754 115.414 288.754 114.76C288.754 114.096 288.876 113.509 289.121 113C289.368 112.489 289.712 112.09 290.152 111.803C290.595 111.513 291.112 111.368 291.703 111.368C292.163 111.368 292.578 111.454 292.947 111.624C293.317 111.794 293.619 112.033 293.855 112.34C294.091 112.647 294.237 113.005 294.294 113.414H293.288C293.212 113.115 293.041 112.851 292.777 112.621C292.516 112.388 292.163 112.272 291.72 112.272C291.328 112.272 290.984 112.374 290.689 112.579C290.396 112.78 290.168 113.066 290.003 113.435C289.841 113.802 289.76 114.232 289.76 114.726C289.76 115.232 289.839 115.672 289.999 116.047C290.161 116.422 290.388 116.713 290.68 116.921C290.976 117.128 291.322 117.232 291.72 117.232C291.982 117.232 292.219 117.187 292.432 117.096C292.645 117.005 292.825 116.874 292.973 116.704C293.121 116.533 293.226 116.329 293.288 116.09H294.294C294.237 116.476 294.097 116.824 293.872 117.134C293.651 117.441 293.357 117.685 292.99 117.867C292.626 118.046 292.203 118.135 291.72 118.135ZM298.611 111.454V112.306H295.219V111.454H298.611ZM296.207 109.885H297.213V116.124C297.213 116.408 297.254 116.621 297.337 116.763C297.422 116.902 297.53 116.996 297.661 117.044C297.794 117.09 297.935 117.113 298.082 117.113C298.193 117.113 298.284 117.107 298.355 117.096C298.426 117.081 298.483 117.07 298.526 117.061L298.73 117.965C298.662 117.99 298.567 118.016 298.445 118.042C298.322 118.07 298.168 118.084 297.98 118.084C297.696 118.084 297.418 118.023 297.145 117.901C296.875 117.779 296.651 117.593 296.472 117.343C296.295 117.093 296.207 116.777 296.207 116.397V109.885Z" fill="#676284"/>
</svg>
