<svg width="14" height="14" viewBox="0 0 14 14" fill="none" xmlns="http://www.w3.org/2000/svg">
<path d="M8.2285 3.23826C8.39043 3.31918 8.56898 3.36131 8.75 3.36131C8.93103 3.36131 9.10957 3.31918 9.2715 3.23826L11.4059 2.17076C11.4949 2.12629 11.5938 2.10532 11.6932 2.10984C11.7926 2.11437 11.8892 2.14424 11.9738 2.19662C12.0584 2.249 12.1281 2.32215 12.1765 2.4091C12.2248 2.49606 12.2501 2.59394 12.25 2.69343V10.1391C12.2499 10.2474 12.2197 10.3535 12.1628 10.4457C12.1058 10.5378 12.0243 10.6122 11.9274 10.6606L9.2715 11.9888C9.10957 12.0698 8.93103 12.1119 8.75 12.1119C8.56898 12.1119 8.39043 12.0698 8.2285 11.9888L5.7715 10.7603C5.60957 10.6794 5.43103 10.6373 5.25 10.6373C5.06898 10.6373 4.89043 10.6794 4.7285 10.7603L2.59409 11.8278C2.50504 11.8723 2.40609 11.8933 2.30665 11.8888C2.20721 11.8842 2.11059 11.8543 2.02599 11.8018C1.94138 11.7494 1.8716 11.6762 1.8233 11.5891C1.77499 11.5021 1.74976 11.4041 1.75 11.3046V3.85951C1.75006 3.75121 1.78027 3.64506 1.83724 3.55296C1.89421 3.46085 1.9757 3.38642 2.07259 3.33801L4.7285 2.00976C4.89043 1.92884 5.06898 1.88672 5.25 1.88672C5.43103 1.88672 5.60957 1.92884 5.7715 2.00976L8.2285 3.23826Z" stroke="#0F1729" stroke-width="1.16667" stroke-linecap="round" stroke-linejoin="round"/>
<path d="M8.75 3.36328V12.1133" stroke="#0F1729" stroke-width="1.16667" stroke-linecap="round" stroke-linejoin="round"/>
<path d="M5.25 1.88672V10.6367" stroke="#0F1729" stroke-width="1.16667" stroke-linecap="round" stroke-linejoin="round"/>
</svg>
