<svg width="20" height="20" viewBox="0 0 20 20" fill="none" xmlns="http://www.w3.org/2000/svg">
<path d="M17.4997 13.332H14.1663C13.7061 13.332 13.333 13.7051 13.333 14.1654V17.4987C13.333 17.9589 13.7061 18.332 14.1663 18.332H17.4997C17.9599 18.332 18.333 17.9589 18.333 17.4987V14.1654C18.333 13.7051 17.9599 13.332 17.4997 13.332Z" stroke="#0F1729" stroke-width="1.66667" stroke-linecap="round" stroke-linejoin="round"/>
<path d="M5.83366 13.332H2.50033C2.04009 13.332 1.66699 13.7051 1.66699 14.1654V17.4987C1.66699 17.9589 2.04009 18.332 2.50033 18.332H5.83366C6.2939 18.332 6.66699 17.9589 6.66699 17.4987V14.1654C6.66699 13.7051 6.2939 13.332 5.83366 13.332Z" stroke="#0F1729" stroke-width="1.66667" stroke-linecap="round" stroke-linejoin="round"/>
<path d="M11.6667 1.66797H8.33333C7.8731 1.66797 7.5 2.04106 7.5 2.5013V5.83464C7.5 6.29487 7.8731 6.66797 8.33333 6.66797H11.6667C12.1269 6.66797 12.5 6.29487 12.5 5.83464V2.5013C12.5 2.04106 12.1269 1.66797 11.6667 1.66797Z" stroke="#0F1729" stroke-width="1.66667" stroke-linecap="round" stroke-linejoin="round"/>
<path d="M4.16699 13.3333V10.8333C4.16699 10.6123 4.25479 10.4004 4.41107 10.2441C4.56735 10.0878 4.77931 10 5.00033 10H15.0003C15.2213 10 15.4333 10.0878 15.5896 10.2441C15.7459 10.4004 15.8337 10.6123 15.8337 10.8333V13.3333" stroke="#0F1729" stroke-width="1.66667" stroke-linecap="round" stroke-linejoin="round"/>
<path d="M10 10.0013V6.66797" stroke="#0F1729" stroke-width="1.66667" stroke-linecap="round" stroke-linejoin="round"/>
</svg>
