<svg width="20" height="20" viewBox="0 0 20 20" fill="none" xmlns="http://www.w3.org/2000/svg">
<path d="M17.8547 6.77022L4.1 2.55147C3.91383 2.49717 3.71758 2.48693 3.52678 2.52156C3.33597 2.55619 3.15584 2.63474 3.00062 2.751C2.84541 2.86725 2.71938 3.01803 2.63249 3.1914C2.5456 3.36477 2.50024 3.55598 2.5 3.7499V14.9999C2.5 15.3314 2.6317 15.6494 2.86612 15.8838C3.10054 16.1182 3.41848 16.2499 3.75 16.2499C3.86953 16.2499 3.98845 16.2328 4.10313 16.1991L10.625 14.1976V14.9999C10.625 15.3314 10.7567 15.6494 10.9911 15.8838C11.2255 16.1182 11.5435 16.2499 11.875 16.2499H14.375C14.7065 16.2499 15.0245 16.1182 15.2589 15.8838C15.4933 15.6494 15.625 15.3314 15.625 14.9999V12.664L17.8547 11.9804C18.1127 11.9028 18.3391 11.7444 18.5003 11.5285C18.6615 11.3126 18.749 11.0506 18.75 10.7812V7.96865C18.7488 7.69934 18.6612 7.43751 18.5 7.22176C18.3388 7.006 18.1126 6.84771 17.8547 6.77022ZM14.375 14.9999H11.875V13.814L14.375 13.0468V14.9999ZM17.5 10.7812H17.4914L11.875 12.5062V6.24287L17.4914 7.96865H17.5V10.7812Z" fill="#9CA3AF"/>
</svg>
