<svg width="23" height="15" viewBox="0 0 23 15" fill="none" xmlns="http://www.w3.org/2000/svg">
<path d="M6.32483 2.35769L6.67323 1.75905L4.51025 0.500669L0.5 7.39138L2.66298 8.64976L3.2727 7.60209M6.32483 2.35769L7.6449 3.13617L11.2021 3.66636M6.32483 2.35769L3.2727 7.60209M11.2021 3.66636L12.4321 2.95208L14.7808 3.85922L16.8319 2.66255M11.2021 3.66636L8.479 5.24945C8.01007 5.52206 7.85068 6.12296 8.12286 6.59208C8.39565 7.06225 8.99835 7.22171 9.46802 6.94798L11.5483 5.73555L12.0043 6.51413C12.68 7.66791 14.1876 8.01532 15.3002 7.27366C15.3367 7.24937 15.3837 7.24762 15.4218 7.26914L18.2807 8.88196M16.8319 2.66255L16.3055 1.76489L18.4766 0.5L22.5 7.40711L20.3236 8.66997L19.7207 7.63265M16.8319 2.66255L19.7207 7.63265M18.2807 8.88196L18.4954 9.00305C18.9361 9.25169 19.0945 9.80873 18.8504 10.252C18.6053 10.6972 18.0464 10.8605 17.6001 10.6174L15.779 9.6255L16.3952 9.97947C16.8124 10.2191 16.9598 10.7492 16.7261 11.1697C16.4898 11.595 15.9533 11.7478 15.5283 11.511L14.0571 10.691L14.4716 10.9332C14.8894 11.1773 15.0356 11.7105 14.8007 12.1335C14.5637 12.5603 14.027 12.7165 13.5979 12.4836L12.418 11.8432L12.8005 12.0603C13.2292 12.3036 13.383 12.8461 13.1456 13.2781C12.906 13.7142 12.3584 13.8737 11.922 13.6345L10.9863 13.1216M18.2807 8.88196L19.7207 7.63265M3.2727 7.60209L4.56691 8.04304L5.7889 9.35111M5.7889 9.35111L6.00423 9.07C6.27531 8.71612 6.78542 8.65653 7.13079 8.93839C7.46063 9.20758 7.51772 9.68971 7.25987 10.0285L6.80157 10.6306M5.7889 9.35111L5.11601 10.2201C4.85142 10.5618 4.90836 11.0523 5.24419 11.3243C5.59268 11.6066 6.10559 11.5449 6.37721 11.1881L6.80157 10.6306M6.80157 10.6306L6.34273 11.2711C6.10166 11.6076 6.16338 12.0735 6.48376 12.3357C6.82685 12.6164 7.33423 12.5577 7.60406 12.206L8.03886 11.6392M6.80157 10.6306L7.25005 10.0661C7.52416 9.72115 8.02722 9.66631 8.36924 9.94411C8.70197 10.2144 8.75915 10.7003 8.49826 11.0404L8.03886 11.6392M8.03886 11.6392L8.49746 11.0745C8.77555 10.732 9.27791 10.6782 9.62229 10.9539C9.95867 11.2231 10.0224 11.7099 9.76659 12.0567L9.33585 12.6406M8.03886 11.6392L7.61362 12.234C7.35514 12.5955 7.43464 13.0976 7.79219 13.3616C8.15389 13.6287 8.66367 13.5519 8.93056 13.1901L9.33585 12.6406M9.33585 12.6406L9.78288 12.07C10.0499 11.7292 10.5402 11.6637 10.8874 11.9224C11.2441 12.1883 11.3143 12.6945 11.0434 13.0473L10.9863 13.1216M9.33585 12.6406L8.89905 13.2784C8.66528 13.6198 8.7385 14.0842 9.06598 14.3371C9.40792 14.6012 9.89936 14.5374 10.1625 14.1947L10.9863 13.1216" stroke="#64748B" stroke-linejoin="round"/>
</svg>
