<svg width="16" height="16" viewBox="0 0 16 16" fill="none" xmlns="http://www.w3.org/2000/svg">
<path d="M11.334 2.66675H10.0007C9.63246 2.66675 9.33398 2.96522 9.33398 3.33341V12.6667C9.33398 13.0349 9.63246 13.3334 10.0007 13.3334H11.334C11.7022 13.3334 12.0007 13.0349 12.0007 12.6667V3.33341C12.0007 2.96522 11.7022 2.66675 11.334 2.66675Z" stroke="#0F1729" stroke-width="1.33333" stroke-linecap="round" stroke-linejoin="round"/>
<path d="M6 2.66675H4.66667C4.29848 2.66675 4 2.96522 4 3.33341V12.6667C4 13.0349 4.29848 13.3334 4.66667 13.3334H6C6.36819 13.3334 6.66667 13.0349 6.66667 12.6667V3.33341C6.66667 2.96522 6.36819 2.66675 6 2.66675Z" stroke="#0F1729" stroke-width="1.33333" stroke-linecap="round" stroke-linejoin="round"/>
</svg>
