<svg width="16" height="16" viewBox="0 0 16 16" fill="none" xmlns="http://www.w3.org/2000/svg">
<g clip-path="url(#clip0_2396_15426)">
<path d="M13.3335 4H2.66683C1.93045 4 1.3335 4.59695 1.3335 5.33333V10.6667C1.3335 11.403 1.93045 12 2.66683 12H13.3335C14.0699 12 14.6668 11.403 14.6668 10.6667V5.33333C14.6668 4.59695 14.0699 4 13.3335 4Z" stroke="#0F1729" stroke-width="1.33333" stroke-linecap="round" stroke-linejoin="round"/>
<path d="M7.99984 9.33464C8.73622 9.33464 9.33317 8.73768 9.33317 8.0013C9.33317 7.26492 8.73622 6.66797 7.99984 6.66797C7.26346 6.66797 6.6665 7.26492 6.6665 8.0013C6.6665 8.73768 7.26346 9.33464 7.99984 9.33464Z" stroke="#0F1729" stroke-width="1.33333" stroke-linecap="round" stroke-linejoin="round"/>
<path d="M4 8H4.00667M12 8H12.0067" stroke="#0F1729" stroke-width="1.33333" stroke-linecap="round" stroke-linejoin="round"/>
</g>
<defs>
<clipPath id="clip0_2396_15426">
<rect width="16" height="16" fill="white"/>
</clipPath>
</defs>
</svg>
