<svg width="16" height="16" viewBox="0 0 16 16" fill="none" xmlns="http://www.w3.org/2000/svg">
<path d="M8.39034 1.72399C8.14035 1.47393 7.80127 1.3334 7.44767 1.33333H2.66634C2.31272 1.33333 1.97358 1.4738 1.72353 1.72385C1.47348 1.9739 1.33301 2.31304 1.33301 2.66666V7.448C1.33308 7.80159 1.47361 8.14067 1.72367 8.39066L7.52634 14.1933C7.82935 14.4944 8.23917 14.6634 8.66634 14.6634C9.09351 14.6634 9.50333 14.4944 9.80634 14.1933L14.193 9.80666C14.4941 9.50365 14.6631 9.09383 14.6631 8.66666C14.6631 8.23949 14.4941 7.82967 14.193 7.52666L8.39034 1.72399Z" stroke="#64748B" stroke-width="1.33333" stroke-linecap="round" stroke-linejoin="round"/>
<path d="M5.00033 5.33334C5.18442 5.33334 5.33366 5.1841 5.33366 5.00001C5.33366 4.81591 5.18442 4.66667 5.00033 4.66667C4.81623 4.66667 4.66699 4.81591 4.66699 5.00001C4.66699 5.1841 4.81623 5.33334 5.00033 5.33334Z" fill="#64748B" stroke="#64748B" stroke-width="1.33333" stroke-linecap="round" stroke-linejoin="round"/>
</svg>
