<svg width="16" height="16" viewBox="0 0 16 16" fill="none" xmlns="http://www.w3.org/2000/svg">
<g clip-path="url(#clip0_2428_17419)">
<path d="M13.333 4H2.66634C1.92996 4 1.33301 4.59695 1.33301 5.33333V10.6667C1.33301 11.403 1.92996 12 2.66634 12H13.333C14.0694 12 14.6663 11.403 14.6663 10.6667V5.33333C14.6663 4.59695 14.0694 4 13.333 4Z" stroke="white" stroke-width="1.33333" stroke-linecap="round" stroke-linejoin="round"/>
<path d="M8.00033 9.33464C8.73671 9.33464 9.33366 8.73768 9.33366 8.0013C9.33366 7.26492 8.73671 6.66797 8.00033 6.66797C7.26395 6.66797 6.66699 7.26492 6.66699 8.0013C6.66699 8.73768 7.26395 9.33464 8.00033 9.33464Z" stroke="white" stroke-width="1.33333" stroke-linecap="round" stroke-linejoin="round"/>
<path d="M4 8H4.00667M12 8H12.0067" stroke="white" stroke-width="1.33333" stroke-linecap="round" stroke-linejoin="round"/>
</g>
<defs>
<clipPath id="clip0_2428_17419">
<rect width="16" height="16" fill="white"/>
</clipPath>
</defs>
</svg>
