<svg width="20" height="20" viewBox="0 0 20 20" fill="none" xmlns="http://www.w3.org/2000/svg">
<path d="M3.74967 13.7498C2.49967 14.7998 2.08301 17.9164 2.08301 17.9164C2.08301 17.9164 5.19967 17.4998 6.24967 16.2498C6.84134 15.5498 6.83301 14.4748 6.17467 13.8248C5.85076 13.5156 5.42409 13.337 4.97653 13.3231C4.52897 13.3093 4.09207 13.4612 3.74967 13.7498Z" stroke="#0D8CFF" stroke-width="1.66667" stroke-linecap="round" stroke-linejoin="round"/>
<path d="M10 12.4996L7.5 9.99956C7.94345 8.84908 8.50184 7.74627 9.16667 6.70789C10.1377 5.15538 11.4897 3.8771 13.0942 2.99463C14.6986 2.11217 16.5022 1.65486 18.3333 1.66622C18.3333 3.93289 17.6833 7.91622 13.3333 10.8329C12.2807 11.4985 11.164 12.0568 10 12.4996Z" stroke="#0D8CFF" stroke-width="1.66667" stroke-linecap="round" stroke-linejoin="round"/>
<path d="M7.49967 10.0009H3.33301C3.33301 10.0009 3.79134 7.47591 4.99967 6.66758C6.34967 5.76758 9.16634 6.66758 9.16634 6.66758" stroke="#0D8CFF" stroke-width="1.66667" stroke-linecap="round" stroke-linejoin="round"/>
<path d="M10 12.5007V16.6673C10 16.6673 12.525 16.209 13.3333 15.0007C14.2333 13.6507 13.3333 10.834 13.3333 10.834" stroke="#0D8CFF" stroke-width="1.66667" stroke-linecap="round" stroke-linejoin="round"/>
</svg>
