<svg width="20" height="20" viewBox="0 0 20 20" fill="none" xmlns="http://www.w3.org/2000/svg">
<path d="M10.0003 18.3327C14.6027 18.3327 18.3337 14.6017 18.3337 9.99935C18.3337 5.39698 14.6027 1.66602 10.0003 1.66602C5.39795 1.66602 1.66699 5.39698 1.66699 9.99935C1.66699 14.6017 5.39795 18.3327 10.0003 18.3327Z" stroke="#64748B" stroke-width="1.66667" stroke-linecap="round" stroke-linejoin="round"/>
<path d="M10 15C12.7614 15 15 12.7614 15 10C15 7.23858 12.7614 5 10 5C7.23858 5 5 7.23858 5 10C5 12.7614 7.23858 15 10 15Z" stroke="#64748B" stroke-width="1.66667" stroke-linecap="round" stroke-linejoin="round"/>
<path d="M9.99967 11.6673C10.9201 11.6673 11.6663 10.9211 11.6663 10.0007C11.6663 9.08018 10.9201 8.33398 9.99967 8.33398C9.0792 8.33398 8.33301 9.08018 8.33301 10.0007C8.33301 10.9211 9.0792 11.6673 9.99967 11.6673Z" stroke="#64748B" stroke-width="1.66667" stroke-linecap="round" stroke-linejoin="round"/>
</svg>
