<svg width="20" height="20" viewBox="0 0 20 20" fill="none" xmlns="http://www.w3.org/2000/svg">
<path d="M1.66699 4.99967C1.66699 4.0792 2.41318 3.33301 3.33366 3.33301C4.25413 3.33301 5.00033 4.0792 5.00033 4.99967V14.9997C5.00033 15.9201 4.25413 16.6663 3.33366 16.6663C2.41318 16.6663 1.66699 15.9201 1.66699 14.9997V4.99967Z" stroke="#64748B" stroke-width="1.5"/>
<path d="M8.33366 13.333C8.33366 12.4125 9.07985 11.6663 10.0003 11.6663C10.9208 11.6663 11.667 12.4125 11.667 13.333V14.9997C11.667 15.9201 10.9208 16.6663 10.0003 16.6663C9.07985 16.6663 8.33366 15.9201 8.33366 14.9997V13.333Z" stroke="#64748B" stroke-width="1.5"/>
<path d="M15.0003 8.33301C15.0003 7.41253 15.7465 6.66634 16.667 6.66634C17.5875 6.66634 18.3337 7.41253 18.3337 8.33301V14.9997C18.3337 15.9201 17.5875 16.6663 16.667 16.6663C15.7465 16.6663 15.0003 15.9201 15.0003 14.9997V8.33301Z" stroke="#64748B" stroke-width="1.5"/>
</svg>
