<svg width="32" height="32" viewBox="0 0 32 32" fill="none" xmlns="http://www.w3.org/2000/svg">
<path d="M17.6902 22.4577C17.7155 22.5208 17.7596 22.5747 17.8164 22.6121C17.8732 22.6494 17.9401 22.6685 18.0081 22.6668C18.0761 22.665 18.1419 22.6426 18.1968 22.6023C18.2516 22.5621 18.2928 22.506 18.3149 22.4417L22.6482 9.77503C22.6695 9.71596 22.6736 9.65203 22.66 9.59073C22.6463 9.52943 22.6154 9.47329 22.571 9.42888C22.5266 9.38447 22.4705 9.35363 22.4092 9.33996C22.3479 9.32629 22.2839 9.33036 22.2249 9.3517L9.55821 13.685C9.49388 13.7071 9.43783 13.7483 9.39759 13.8031C9.35736 13.858 9.33486 13.9238 9.33312 13.9918C9.33138 14.0598 9.35047 14.1267 9.38785 14.1835C9.42523 14.2403 9.47909 14.2844 9.54221 14.3097L14.8289 16.4297C14.996 16.4966 15.1478 16.5967 15.2753 16.7238C15.4027 16.851 15.503 17.0027 15.5702 17.1697L17.6902 22.4577Z" stroke="#676284" stroke-width="1.33333" stroke-linecap="round" stroke-linejoin="round"/>
<path d="M22.5697 9.43164L15.2764 16.7243" stroke="#676284" stroke-width="1.33333" stroke-linecap="round" stroke-linejoin="round"/>
</svg>
