<svg width="19" height="23" viewBox="0 0 19 23" fill="none" xmlns="http://www.w3.org/2000/svg">
<path d="M17.25 12.2486C17.25 17.2478 13.75 19.7474 9.59 21.1971C9.37216 21.2709 9.13554 21.2674 8.92 21.1871C4.75 19.7474 1.25 17.2478 1.25 12.2486V5.24978C1.25 4.98461 1.35536 4.7303 1.54289 4.54279C1.73043 4.35529 1.98478 4.24995 2.25 4.24995C4.25 4.24995 6.75 3.05015 8.49 1.5304C8.70185 1.34943 8.97135 1.25 9.25 1.25C9.52865 1.25 9.79815 1.34943 10.01 1.5304C11.76 3.06015 14.25 4.24995 16.25 4.24995C16.5152 4.24995 16.7696 4.35529 16.9571 4.54279C17.1446 4.7303 17.25 4.98461 17.25 5.24978V12.2486Z" stroke="#9CA3AF" stroke-width="2.5" stroke-linecap="round" stroke-linejoin="round"/>
</svg>
