<svg width="20" height="22" viewBox="0 0 20 22" fill="none" xmlns="http://www.w3.org/2000/svg">
<path d="M16.6666 12.8331C16.6666 16.9997 13.7499 19.0831 10.2833 20.2914C10.1017 20.3529 9.90453 20.35 9.72492 20.2831C6.24992 19.0831 3.33325 16.9997 3.33325 12.8331V6.99972C3.33325 6.77871 3.42105 6.56675 3.57733 6.41047C3.73361 6.25419 3.94557 6.16639 4.16659 6.16639C5.83325 6.16639 7.91658 5.16639 9.36658 3.89972C9.54313 3.74889 9.76771 3.66602 9.99992 3.66602C10.2321 3.66602 10.4567 3.74889 10.6333 3.89972C12.0916 5.17472 14.1666 6.16639 15.8333 6.16639C16.0543 6.16639 16.2662 6.25419 16.4225 6.41047C16.5788 6.56675 16.6666 6.77871 16.6666 6.99972V12.8331Z" stroke="#F59F0A" stroke-width="1.66667" stroke-linecap="round" stroke-linejoin="round"/>
</svg>
