<svg width="28" height="28" viewBox="0 0 28 28" fill="none" xmlns="http://www.w3.org/2000/svg">
<path d="M23.3332 15.1669C23.3332 21.0002 19.2498 23.9169 14.3965 25.6085C14.1424 25.6947 13.8663 25.6905 13.6148 25.5969C8.74984 23.9169 4.6665 21.0002 4.6665 15.1669V7.0002C4.6665 6.69078 4.78942 6.39403 5.00821 6.17524C5.22701 5.95645 5.52375 5.83353 5.83317 5.83353C8.1665 5.83353 11.0832 4.43353 13.1132 2.6602C13.3603 2.44903 13.6747 2.33301 13.9998 2.33301C14.3249 2.33301 14.6393 2.44903 14.8865 2.6602C16.9282 4.4452 19.8332 5.83353 22.1665 5.83353C22.4759 5.83353 22.7727 5.95645 22.9915 6.17524C23.2103 6.39403 23.3332 6.69078 23.3332 7.0002V15.1669Z" stroke="#0B91FE" stroke-width="2.33333" stroke-linecap="round" stroke-linejoin="round"/>
</svg>
