<svg width="12" height="15" viewBox="0 0 12 15" fill="none" xmlns="http://www.w3.org/2000/svg">
<path d="M11.3327 8.00032C11.3327 11.3337 8.99935 13.0003 6.22602 13.967C6.08079 14.0162 5.92304 14.0138 5.77935 13.9603C2.99935 13.0003 0.666016 11.3337 0.666016 8.00032V3.33365C0.666016 3.15684 0.736254 2.98727 0.861278 2.86225C0.986302 2.73722 1.15587 2.66699 1.33268 2.66699C2.66602 2.66699 4.33268 1.86699 5.49268 0.853653C5.63392 0.732986 5.81358 0.666687 5.99935 0.666687C6.18511 0.666687 6.36478 0.732986 6.50602 0.853653C7.67268 1.87365 9.33268 2.66699 10.666 2.66699C10.8428 2.66699 11.0124 2.73722 11.1374 2.86225C11.2624 2.98727 11.3327 3.15684 11.3327 3.33365V8.00032Z" stroke="#0D8CFF" stroke-width="1.33333" stroke-linecap="round" stroke-linejoin="round"/>
</svg>
