<svg width="20" height="20" viewBox="0 0 20 20" fill="none" xmlns="http://www.w3.org/2000/svg">
<path d="M17.5 7.09916V10.0432M4.75 11.8832V15.0113C4.75 15.1822 4.75 15.2676 4.75722 15.3396C4.82737 16.0385 5.39081 16.5914 6.10298 16.6602C6.17631 16.6673 6.26337 16.6673 6.4375 16.6673C6.61163 16.6673 6.69869 16.6673 6.77203 16.6602C7.48419 16.5914 8.04764 16.0385 8.11778 15.3396C8.125 15.2676 8.125 15.1822 8.125 15.0113V11.8832M4.75 11.8832C4.05109 11.8832 3.70163 11.8832 3.42597 11.7712C3.05843 11.6218 2.76642 11.3352 2.61418 10.9745C2.5 10.704 2.5 10.3611 2.5 9.6752L2.5 8.79199C2.5 7.55537 2.5 6.93706 2.74523 6.46473C2.96095 6.04926 3.30516 5.71148 3.72852 5.49979C4.20982 5.25912 4.83988 5.25912 6.1 5.25912H8.125M4.75 11.8832H8.125M8.125 11.8832H8.6875C10.0123 11.8832 11.6329 12.5802 12.8832 13.249C13.6126 13.6392 13.9773 13.8343 14.2162 13.8056C14.4377 13.779 14.6052 13.6814 14.735 13.5033C14.875 13.3112 14.875 12.9269 14.875 12.1583V4.98406C14.875 4.21545 14.875 3.83115 14.735 3.63908C14.6052 3.46097 14.4377 3.36338 14.2162 3.33675C13.9773 3.30804 13.6126 3.50314 12.8832 3.89335C11.6329 4.5622 10.0123 5.25912 8.6875 5.25912H8.125M8.125 11.8832V5.25912" stroke="#64748B" stroke-width="1.5" stroke-linecap="round" stroke-linejoin="round"/>
</svg>
