<svg width="140" height="140" viewBox="0 0 140 140" fill="none" xmlns="http://www.w3.org/2000/svg">
<rect x="8" y="4" width="128" height="128" rx="64" fill="#313331" fill-opacity="0.1"/>
<rect x="16" y="12" width="112" height="112" rx="56" fill="#0A91FF" fill-opacity="0.1"/>
<path d="M72.0002 94.6663C86.7278 94.6663 98.6668 82.7273 98.6668 67.9997C98.6668 53.2721 86.7278 41.333 72.0002 41.333C57.2726 41.333 45.3335 53.2721 45.3335 67.9997C45.3335 82.7273 57.2726 94.6663 72.0002 94.6663Z" stroke="#0D8CFF" stroke-width="4" stroke-linecap="round" stroke-linejoin="round"/>
<path d="M64 68.0003L69.3333 73.3337L80 62.667" stroke="#0D8CFF" stroke-width="4" stroke-linecap="round" stroke-linejoin="round"/>
<path d="M125.937 15.5002C125.848 15.1542 125.667 14.8384 125.415 14.5856C125.162 14.3329 124.846 14.1525 124.5 14.0632L118.365 12.4812C118.26 12.4515 118.168 12.3885 118.103 12.3017C118.037 12.2149 118.001 12.1091 118.001 12.0002C118.001 11.8914 118.037 11.7856 118.103 11.6988C118.168 11.612 118.26 11.549 118.365 11.5192L124.5 9.93625C124.846 9.84706 125.162 9.66682 125.414 9.41429C125.667 9.16175 125.848 8.84614 125.937 8.50025L127.519 2.36525C127.548 2.26017 127.611 2.16759 127.698 2.10164C127.785 2.0357 127.891 2 128 2C128.11 2 128.216 2.0357 128.303 2.10164C128.39 2.16759 128.453 2.26017 128.482 2.36525L130.063 8.50025C130.152 8.84632 130.333 9.16215 130.585 9.41487C130.838 9.66759 131.154 9.84797 131.5 9.93725L137.635 11.5182C137.74 11.5473 137.833 11.6103 137.9 11.6973C137.966 11.7844 138.002 11.8908 138.002 12.0002C138.002 12.1097 137.966 12.2161 137.9 12.3032C137.833 12.3902 137.74 12.4531 137.635 12.4822L131.5 14.0632C131.154 14.1525 130.838 14.3329 130.585 14.5856C130.333 14.8384 130.152 15.1542 130.063 15.5002L128.481 21.6353C128.452 21.7403 128.389 21.8329 128.302 21.8989C128.215 21.9648 128.109 22.0005 127.999 22.0005C127.89 22.0005 127.784 21.9648 127.697 21.8989C127.61 21.8329 127.547 21.7403 127.518 21.6353L125.937 15.5002Z" stroke="#0D8CFF" stroke-width="2" stroke-linecap="round" stroke-linejoin="round"/>
<path d="M136 3V7" stroke="#0D8CFF" stroke-width="2" stroke-linecap="round" stroke-linejoin="round"/>
<path d="M138 5H134" stroke="#0D8CFF" stroke-width="2" stroke-linecap="round" stroke-linejoin="round"/>
<path d="M120 17V19" stroke="#0D8CFF" stroke-width="2" stroke-linecap="round" stroke-linejoin="round"/>
<path d="M121 18H119" stroke="#0D8CFF" stroke-width="2" stroke-linecap="round" stroke-linejoin="round"/>
<path d="M8.28086 132.916C8.20647 132.628 8.05615 132.365 7.84555 132.154C7.63494 131.943 7.37176 131.793 7.08336 131.719L1.97086 130.4C1.88364 130.376 1.80687 130.323 1.75221 130.251C1.69754 130.178 1.66797 130.09 1.66797 130C1.66797 129.909 1.69754 129.821 1.75221 129.748C1.80687 129.676 1.88364 129.623 1.97086 129.599L7.08336 128.28C7.37166 128.205 7.63477 128.055 7.84537 127.845C8.05596 127.634 8.20634 127.371 8.28086 127.083L9.5992 121.97C9.6237 121.883 9.67618 121.806 9.74863 121.751C9.82108 121.696 9.90951 121.666 10.0004 121.666C10.0914 121.666 10.1798 121.696 10.2523 121.751C10.3247 121.806 10.3772 121.883 10.4017 121.97L11.7192 127.083C11.7936 127.371 11.9439 127.634 12.1545 127.845C12.3651 128.056 12.6283 128.206 12.9167 128.28L18.0292 129.598C18.1171 129.622 18.1946 129.675 18.2499 129.747C18.3052 129.82 18.3351 129.908 18.3351 130C18.3351 130.091 18.3052 130.179 18.2499 130.252C18.1946 130.325 18.1171 130.377 18.0292 130.401L12.9167 131.719C12.6283 131.793 12.3651 131.943 12.1545 132.154C11.9439 132.365 11.7936 132.628 11.7192 132.916L10.4009 138.029C10.3764 138.116 10.3239 138.193 10.2514 138.248C10.179 138.303 10.0905 138.333 9.99961 138.333C9.90868 138.333 9.82025 138.303 9.7478 138.248C9.67535 138.193 9.62287 138.116 9.59836 138.029L8.28086 132.916Z" stroke="#0D8CFF" stroke-width="1.66667" stroke-linecap="round" stroke-linejoin="round"/>
<path d="M16.6665 122.5V125.833" stroke="#0D8CFF" stroke-width="1.66667" stroke-linecap="round" stroke-linejoin="round"/>
<path d="M18.3333 124.167H15" stroke="#0D8CFF" stroke-width="1.66667" stroke-linecap="round" stroke-linejoin="round"/>
<path d="M3.3335 134.167V135.834" stroke="#0D8CFF" stroke-width="1.66667" stroke-linecap="round" stroke-linejoin="round"/>
<path d="M4.16667 135H2.5" stroke="#0D8CFF" stroke-width="1.66667" stroke-linecap="round" stroke-linejoin="round"/>
</svg>
