<svg width="15" height="15" viewBox="0 0 15 15" fill="none" xmlns="http://www.w3.org/2000/svg">
<path d="M7.01722 0.863252C7.04643 0.804226 7.09156 0.754541 7.14752 0.719802C7.20347 0.685064 7.26802 0.666656 7.33388 0.666656C7.39974 0.666656 7.46429 0.685064 7.52025 0.719802C7.5762 0.754541 7.62133 0.804226 7.65055 0.863252L9.19055 3.98259C9.292 4.1879 9.44176 4.36552 9.62697 4.50022C9.81217 4.63492 10.0273 4.72266 10.2539 4.75592L13.6979 5.25992C13.7631 5.26937 13.8244 5.2969 13.8749 5.33939C13.9253 5.38187 13.9628 5.43762 13.9832 5.50032C14.0036 5.56303 14.0061 5.63019 13.9903 5.69421C13.9745 5.75823 13.9411 5.81655 13.8939 5.86259L11.4032 8.28792C11.239 8.44799 11.1161 8.64557 11.0451 8.86367C10.9741 9.08177 10.9573 9.31385 10.9959 9.53992L11.5839 12.9666C11.5954 13.0318 11.5884 13.099 11.5635 13.1604C11.5387 13.2218 11.4972 13.275 11.4436 13.3139C11.39 13.3528 11.3265 13.3759 11.2605 13.3805C11.1944 13.3851 11.1283 13.371 11.0699 13.3399L7.99122 11.7213C7.78836 11.6147 7.56267 11.5591 7.33355 11.5591C7.10443 11.5591 6.87874 11.6147 6.67588 11.7213L3.59788 13.3399C3.53944 13.3709 3.47348 13.3848 3.40752 13.3801C3.34155 13.3754 3.27823 13.3523 3.22475 13.3134C3.17126 13.2745 3.12977 13.2214 3.10499 13.1601C3.0802 13.0988 3.07312 13.0317 3.08455 12.9666L3.67188 9.54059C3.71068 9.31441 3.69387 9.08218 3.62291 8.86395C3.55194 8.64572 3.42895 8.44802 3.26455 8.28792L0.773882 5.86325C0.726278 5.81727 0.692544 5.75885 0.676524 5.69464C0.660503 5.63042 0.66284 5.563 0.683268 5.50005C0.703696 5.4371 0.741393 5.38115 0.792067 5.33857C0.84274 5.296 0.904351 5.26852 0.969882 5.25925L4.41322 4.75592C4.64005 4.72292 4.85547 4.63529 5.04094 4.50058C5.2264 4.36586 5.37635 4.1881 5.47788 3.98259L7.01722 0.863252Z" fill="#FACC15" stroke="#FACC15" stroke-width="1.33333" stroke-linecap="round" stroke-linejoin="round"/>
</svg>
