<svg width="16" height="16" viewBox="0 0 16 16" fill="none" xmlns="http://www.w3.org/2000/svg">
<path d="M4.66699 6.66797V14.668" stroke="#16A249" stroke-width="1.33333" stroke-linecap="round" stroke-linejoin="round"/>
<path d="M9.99967 3.9187L9.33301 6.66536H13.2197C13.4267 6.66536 13.6308 6.71356 13.816 6.80613C14.0011 6.8987 14.1621 7.0331 14.2863 7.1987C14.4105 7.36429 14.4945 7.55653 14.5315 7.76018C14.5685 7.96384 14.5576 8.17332 14.4997 8.37203L12.9463 13.7054C12.8656 13.9823 12.6971 14.2256 12.4663 14.3987C12.2355 14.5718 11.9548 14.6654 11.6663 14.6654H2.66634C2.31272 14.6654 1.97358 14.5249 1.72353 14.2748C1.47348 14.0248 1.33301 13.6857 1.33301 13.332V7.9987C1.33301 7.64508 1.47348 7.30594 1.72353 7.05589C1.97358 6.80584 2.31272 6.66536 2.66634 6.66536H4.50634C4.7544 6.66523 4.9975 6.59591 5.20831 6.46518C5.41912 6.33445 5.58929 6.14751 5.69967 5.92536L7.99967 1.33203C8.31406 1.33592 8.6235 1.41081 8.90488 1.5511C9.18625 1.69138 9.43229 1.89344 9.62461 2.14217C9.81693 2.3909 9.95055 2.67987 10.0155 2.9875C10.0804 3.29513 10.075 3.61345 9.99967 3.9187Z" stroke="#16A249" stroke-width="1.33333" stroke-linecap="round" stroke-linejoin="round"/>
</svg>
