<svg width="16" height="16" viewBox="0 0 16 16" fill="none" xmlns="http://www.w3.org/2000/svg">
<path d="M9.99984 8H6.6665" stroke="#1B294B" stroke-width="1.33333" stroke-linecap="round" stroke-linejoin="round"/>
<path d="M9.99984 5.33203H6.6665" stroke="#1B294B" stroke-width="1.33333" stroke-linecap="round" stroke-linejoin="round"/>
<path d="M12.6665 11.3333V3.33333C12.6665 2.97971 12.526 2.64057 12.276 2.39052C12.0259 2.14048 11.6868 2 11.3332 2H2.6665" stroke="#1B294B" stroke-width="1.33333" stroke-linecap="round" stroke-linejoin="round"/>
<path d="M5.3335 14H13.3335C13.6871 14 14.0263 13.8595 14.2763 13.6095C14.5264 13.3594 14.6668 13.0203 14.6668 12.6667V12C14.6668 11.8232 14.5966 11.6536 14.4716 11.5286C14.3465 11.4036 14.177 11.3333 14.0002 11.3333H7.3335C7.15669 11.3333 6.98712 11.4036 6.86209 11.5286C6.73707 11.6536 6.66683 11.8232 6.66683 12V12.6667C6.66683 13.0203 6.52635 13.3594 6.27631 13.6095C6.02626 13.8595 5.68712 14 5.3335 14ZM5.3335 14C4.97987 14 4.64074 13.8595 4.39069 13.6095C4.14064 13.3594 4.00016 13.0203 4.00016 12.6667V3.33333C4.00016 2.97971 3.85969 2.64057 3.60964 2.39052C3.35959 2.14048 3.02045 2 2.66683 2C2.31321 2 1.97407 2.14048 1.72402 2.39052C1.47397 2.64057 1.3335 2.97971 1.3335 3.33333V4.66667C1.3335 4.84348 1.40373 5.01305 1.52876 5.13807C1.65378 5.2631 1.82335 5.33333 2.00016 5.33333H4.00016" stroke="#1B294B" stroke-width="1.33333" stroke-linecap="round" stroke-linejoin="round"/>
</svg>
