<svg width="20" height="20" viewBox="0 0 20 20" fill="none" xmlns="http://www.w3.org/2000/svg">
<g clip-path="url(#clip0_1_40825)">
<path d="M17.8503 9.10131C17.9995 9.0355 18.1261 8.92737 18.2144 8.79032C18.3028 8.65326 18.3489 8.49331 18.3473 8.33026C18.3456 8.16722 18.2961 8.00825 18.2049 7.87305C18.1138 7.73785 17.985 7.63236 17.8345 7.56965L10.692 4.31631C10.4749 4.21727 10.239 4.16602 10.0003 4.16602C9.76166 4.16602 9.52579 4.21727 9.30865 4.31631L2.16699 7.56631C2.01863 7.63129 1.89242 7.73809 1.80379 7.87366C1.71517 8.00923 1.66797 8.16768 1.66797 8.32965C1.66797 8.49161 1.71517 8.65007 1.80379 8.78563C1.89242 8.9212 2.01863 9.028 2.16699 9.09298L9.30865 12.3496C9.52579 12.4487 9.76166 12.4999 10.0003 12.4999C10.239 12.4999 10.4749 12.4487 10.692 12.3496L17.8503 9.10131Z" stroke="#16A34A" stroke-width="1.66667" stroke-linecap="round" stroke-linejoin="round"/>
<path d="M18.333 8.33301V13.333" stroke="#16A34A" stroke-width="1.66667" stroke-linecap="round" stroke-linejoin="round"/>
<path d="M5 10.417V13.3337C5 13.9967 5.52678 14.6326 6.46447 15.1014C7.40215 15.5703 8.67392 15.8337 10 15.8337C11.3261 15.8337 12.5979 15.5703 13.5355 15.1014C14.4732 14.6326 15 13.9967 15 13.3337V10.417" stroke="#16A34A" stroke-width="1.66667" stroke-linecap="round" stroke-linejoin="round"/>
</g>
<defs>
<clipPath id="clip0_1_40825">
<rect width="20" height="20" fill="white"/>
</clipPath>
</defs>
</svg>
