<svg width="16" height="16" viewBox="0 0 16 16" fill="none" xmlns="http://www.w3.org/2000/svg">
<rect width="16" height="16" rx="8" fill="#0D8CFF"/>
<path d="M8.14648 13.1465C7.54102 13.1465 6.9707 13.0371 6.43555 12.8184C5.90039 12.5957 5.44141 12.2949 5.05859 11.916C4.67578 11.5371 4.37305 11.084 4.15039 10.5566C3.92773 10.0254 3.81641 9.45898 3.81641 8.85742C3.81641 8.05664 4.00391 7.33008 4.37891 6.67773C4.75781 6.02148 5.27734 5.50781 5.9375 5.13672C6.60156 4.76172 7.33789 4.57422 8.14648 4.57422C9.14648 4.57422 10.0234 4.85742 10.7773 5.42383C11.5312 5.98633 12.0195 6.71484 12.2422 7.60938H11.0762C10.8691 7.01562 10.5 6.53906 9.96875 6.17969C9.44141 5.81641 8.83398 5.63477 8.14648 5.63477C7.69727 5.63477 7.27344 5.7168 6.875 5.88086C6.48047 6.04492 6.14258 6.26953 5.86133 6.55469C5.58008 6.83984 5.35742 7.18164 5.19336 7.58008C5.0293 7.97852 4.94727 8.4043 4.94727 8.85742C4.94727 9.45898 5.08594 10.0078 5.36328 10.5039C5.64062 10.9961 6.02344 11.3828 6.51172 11.6641C7.00391 11.9453 7.54883 12.0859 8.14648 12.0859C8.83008 12.0859 9.4375 11.9043 9.96875 11.541C10.5 11.1777 10.8691 10.6992 11.0762 10.1055H12.2422C12.0195 11 11.5312 11.7305 10.7773 12.2969C10.0234 12.8633 9.14648 13.1465 8.14648 13.1465Z" fill="white"/>
</svg>
