<svg width="16" height="16" viewBox="0 0 16 16" fill="none" xmlns="http://www.w3.org/2000/svg">
<path d="M12 12C13.1046 12 14 11.1046 14 10C14 8.89543 13.1046 8 12 8C10.8954 8 10 8.89543 10 10C10 11.1046 10.8954 12 12 12Z" stroke="#65758B" stroke-width="1.33333" stroke-linecap="round" stroke-linejoin="round"/>
<path d="M6.00065 7.33333C7.47341 7.33333 8.66732 6.13943 8.66732 4.66667C8.66732 3.19391 7.47341 2 6.00065 2C4.52789 2 3.33398 3.19391 3.33398 4.66667C3.33398 6.13943 4.52789 7.33333 6.00065 7.33333Z" stroke="#65758B" stroke-width="1.33333" stroke-linecap="round" stroke-linejoin="round"/>
<path d="M6.66732 10H4.00065C3.29341 10 2.61513 10.281 2.11503 10.781C1.61494 11.2811 1.33398 11.9594 1.33398 12.6667V14" stroke="#65758B" stroke-width="1.33333" stroke-linecap="round" stroke-linejoin="round"/>
<path d="M14.4672 10.9334L13.8672 10.7334" stroke="#65758B" stroke-width="1.33333" stroke-linecap="round" stroke-linejoin="round"/>
<path d="M10.1332 9.26665L9.5332 9.06665" stroke="#65758B" stroke-width="1.33333" stroke-linecap="round" stroke-linejoin="round"/>
<path d="M11.0664 12.4667L11.2664 11.8667" stroke="#65758B" stroke-width="1.33333" stroke-linecap="round" stroke-linejoin="round"/>
<path d="M12.7324 8.13345L12.9324 7.53345" stroke="#65758B" stroke-width="1.33333" stroke-linecap="round" stroke-linejoin="round"/>
<path d="M13.0674 12.4667L12.8008 11.8" stroke="#65758B" stroke-width="1.33333" stroke-linecap="round" stroke-linejoin="round"/>
<path d="M11.2003 8.20011L10.9336 7.53345" stroke="#65758B" stroke-width="1.33333" stroke-linecap="round" stroke-linejoin="round"/>
<path d="M9.5332 11.0667L10.1999 10.8" stroke="#65758B" stroke-width="1.33333" stroke-linecap="round" stroke-linejoin="round"/>
<path d="M13.8008 9.20002L14.4674 8.93335" stroke="#65758B" stroke-width="1.33333" stroke-linecap="round" stroke-linejoin="round"/>
</svg>
