<svg width="12" height="12" viewBox="0 0 12 12" fill="none" xmlns="http://www.w3.org/2000/svg">
<path d="M8 10.5V9.5C8 8.96957 7.78929 8.46086 7.41421 8.08579C7.03914 7.71071 6.53043 7.5 6 7.5H3C2.46957 7.5 1.96086 7.71071 1.58579 8.08579C1.21071 8.46086 1 8.96957 1 9.5V10.5" stroke="white" stroke-linecap="round" stroke-linejoin="round"/>
<path d="M4.5 5.5C5.60457 5.5 6.5 4.60457 6.5 3.5C6.5 2.39543 5.60457 1.5 4.5 1.5C3.39543 1.5 2.5 2.39543 2.5 3.5C2.5 4.60457 3.39543 5.5 4.5 5.5Z" stroke="white" stroke-linecap="round" stroke-linejoin="round"/>
<path d="M11 10.5004V9.50043C10.9997 9.05729 10.8522 8.62682 10.5807 8.27659C10.3092 7.92636 9.92906 7.67621 9.5 7.56543" stroke="white" stroke-linecap="round" stroke-linejoin="round"/>
<path d="M8 1.56543C8.43021 1.67558 8.81152 1.92578 9.08382 2.27658C9.35612 2.62739 9.50392 3.05884 9.50392 3.50293C9.50392 3.94702 9.35612 4.37847 9.08382 4.72927C8.81152 5.08008 8.43021 5.33028 8 5.44043" stroke="white" stroke-linecap="round" stroke-linejoin="round"/>
</svg>
