<svg width="20" height="20" viewBox="0 0 20 20" fill="none" xmlns="http://www.w3.org/2000/svg">
<path d="M13.3332 17.5V15.8333C13.3332 14.9493 12.982 14.1014 12.3569 13.4763C11.7317 12.8512 10.8839 12.5 9.99984 12.5H4.99984C4.11578 12.5 3.26794 12.8512 2.64281 13.4763C2.01769 14.1014 1.6665 14.9493 1.6665 15.8333V17.5" stroke="#21C45D" stroke-width="1.66667" stroke-linecap="round" stroke-linejoin="round"/>
<path d="M7.49984 9.16667C9.34079 9.16667 10.8332 7.67428 10.8332 5.83333C10.8332 3.99238 9.34079 2.5 7.49984 2.5C5.65889 2.5 4.1665 3.99238 4.1665 5.83333C4.1665 7.67428 5.65889 9.16667 7.49984 9.16667Z" stroke="#21C45D" stroke-width="1.66667" stroke-linecap="round" stroke-linejoin="round"/>
<path d="M15.8335 6.66663V11.6666" stroke="#21C45D" stroke-width="1.66667" stroke-linecap="round" stroke-linejoin="round"/>
<path d="M18.3335 9.16663H13.3335" stroke="#21C45D" stroke-width="1.66667" stroke-linecap="round" stroke-linejoin="round"/>
</svg>
