<svg width="20" height="20" viewBox="0 0 20 20" fill="none" xmlns="http://www.w3.org/2000/svg">
<path d="M13.3337 17.5V15.8333C13.3337 14.9493 12.9825 14.1014 12.3573 13.4763C11.7322 12.8512 10.8844 12.5 10.0003 12.5H5.00033C4.11627 12.5 3.26842 12.8512 2.6433 13.4763C2.01818 14.1014 1.66699 14.9493 1.66699 15.8333V17.5" stroke="#1B294B" stroke-width="1.66667" stroke-linecap="round" stroke-linejoin="round"/>
<path d="M7.50033 9.16667C9.34127 9.16667 10.8337 7.67428 10.8337 5.83333C10.8337 3.99238 9.34127 2.5 7.50033 2.5C5.65938 2.5 4.16699 3.99238 4.16699 5.83333C4.16699 7.67428 5.65938 9.16667 7.50033 9.16667Z" stroke="#1B294B" stroke-width="1.66667" stroke-linecap="round" stroke-linejoin="round"/>
<path d="M18.333 17.501V15.8344C18.3325 15.0958 18.0866 14.3784 17.6341 13.7946C17.1817 13.2109 16.5481 12.794 15.833 12.6094" stroke="#1B294B" stroke-width="1.66667" stroke-linecap="round" stroke-linejoin="round"/>
<path d="M13.333 2.60938C14.05 2.79296 14.6855 3.20996 15.1394 3.79463C15.5932 4.37931 15.8395 5.0984 15.8395 5.83854C15.8395 6.57868 15.5932 7.29777 15.1394 7.88245C14.6855 8.46712 14.05 8.88412 13.333 9.06771" stroke="#1B294B" stroke-width="1.66667" stroke-linecap="round" stroke-linejoin="round"/>
</svg>
