<svg width="16" height="16" viewBox="0 0 16 16" fill="none" xmlns="http://www.w3.org/2000/svg">
<path d="M9.3335 11.9993V3.99935C9.3335 3.64573 9.19302 3.30659 8.94297 3.05654C8.69292 2.80649 8.35378 2.66602 8.00016 2.66602H2.66683C2.31321 2.66602 1.97407 2.80649 1.72402 3.05654C1.47397 3.30659 1.3335 3.64573 1.3335 3.99935V11.3327C1.3335 11.5095 1.40373 11.6791 1.52876 11.8041C1.65378 11.9291 1.82335 11.9993 2.00016 11.9993H3.3335" stroke="#6B7280" stroke-width="1.33333" stroke-linecap="round" stroke-linejoin="round"/>
<path d="M10 12H6" stroke="#6B7280" stroke-width="1.33333" stroke-linecap="round" stroke-linejoin="round"/>
<path d="M12.6668 12.0007H14.0002C14.177 12.0007 14.3465 11.9304 14.4716 11.8054C14.5966 11.6804 14.6668 11.5108 14.6668 11.334V8.90065C14.6666 8.74936 14.6148 8.60266 14.5202 8.48465L12.2002 5.58465C12.1378 5.50657 12.0587 5.44351 11.9687 5.40012C11.8787 5.35673 11.7801 5.33413 11.6802 5.33398H9.3335" stroke="#6B7280" stroke-width="1.33333" stroke-linecap="round" stroke-linejoin="round"/>
<path d="M11.3333 13.3327C12.0697 13.3327 12.6667 12.7357 12.6667 11.9993C12.6667 11.263 12.0697 10.666 11.3333 10.666C10.597 10.666 10 11.263 10 11.9993C10 12.7357 10.597 13.3327 11.3333 13.3327Z" stroke="#6B7280" stroke-width="1.33333" stroke-linecap="round" stroke-linejoin="round"/>
<path d="M4.66683 13.3327C5.40321 13.3327 6.00016 12.7357 6.00016 11.9993C6.00016 11.263 5.40321 10.666 4.66683 10.666C3.93045 10.666 3.3335 11.263 3.3335 11.9993C3.3335 12.7357 3.93045 13.3327 4.66683 13.3327Z" stroke="#6B7280" stroke-width="1.33333" stroke-linecap="round" stroke-linejoin="round"/>
</svg>
