<svg width="16" height="16" viewBox="0 0 16 16" fill="none" xmlns="http://www.w3.org/2000/svg">
<path d="M2.66699 9.33377C2.54083 9.3342 2.41714 9.29882 2.31029 9.23175C2.20344 9.16468 2.11781 9.06867 2.06335 8.95487C2.0089 8.84107 1.98785 8.71416 2.00265 8.58887C2.01746 8.46359 2.06751 8.34507 2.14699 8.2471L8.74699 1.4471C8.7965 1.38996 8.86396 1.35134 8.93831 1.33759C9.01266 1.32384 9.08947 1.33578 9.15614 1.37144C9.22281 1.4071 9.27538 1.46437 9.30521 1.53384C9.33504 1.60331 9.34037 1.68087 9.32032 1.75377L8.04032 5.7671C8.00258 5.86812 7.9899 5.97678 8.00338 6.08377C8.01686 6.19076 8.05609 6.29289 8.11771 6.38139C8.17933 6.46988 8.2615 6.54211 8.35717 6.59187C8.45284 6.64164 8.55915 6.66745 8.66699 6.6671H13.3337C13.4598 6.66667 13.5835 6.70205 13.6904 6.76912C13.7972 6.83619 13.8828 6.9322 13.9373 7.046C13.9917 7.1598 14.0128 7.28671 13.998 7.412C13.9832 7.53728 13.9331 7.6558 13.8537 7.75377L7.25365 14.5538C7.20415 14.6109 7.13668 14.6495 7.06233 14.6633C6.98798 14.677 6.91117 14.6651 6.8445 14.6294C6.77783 14.5938 6.72526 14.5365 6.69543 14.467C6.6656 14.3976 6.66027 14.32 6.68032 14.2471L7.96032 10.2338C7.99806 10.1328 8.01074 10.0241 7.99726 9.9171C7.98378 9.81011 7.94455 9.70798 7.88293 9.61948C7.82131 9.53099 7.73914 9.45876 7.64347 9.40899C7.5478 9.35923 7.44149 9.33342 7.33365 9.33377H2.66699Z" stroke="#F59F0A" stroke-width="1.33333" stroke-linecap="round" stroke-linejoin="round"/>
</svg>
