<svg width="14" height="14" viewBox="0 0 14 14" fill="none" xmlns="http://www.w3.org/2000/svg">
<path d="M12.8337 7.58301V3.49967C12.8337 3.19026 12.7107 2.89351 12.4919 2.67472C12.2732 2.45592 11.9764 2.33301 11.667 2.33301H2.33366C2.02424 2.33301 1.72749 2.45592 1.5087 2.67472C1.28991 2.89351 1.16699 3.19026 1.16699 3.49967V10.4997C1.16699 11.1413 1.69199 11.6663 2.33366 11.6663H7.00033" stroke="#0D8CFF" stroke-width="1.16667" stroke-linecap="round" stroke-linejoin="round"/>
<path d="M12.8337 4.08301L7.60116 7.40801C7.42107 7.52084 7.21284 7.58068 7.00033 7.58068C6.78781 7.58068 6.57958 7.52084 6.39949 7.40801L1.16699 4.08301" stroke="#0D8CFF" stroke-width="1.16667" stroke-linecap="round" stroke-linejoin="round"/>
<path d="M9.33301 11.0837L10.4997 12.2503L12.833 9.91699" stroke="#0D8CFF" stroke-width="1.16667" stroke-linecap="round" stroke-linejoin="round"/>
</svg>
