<svg width="64" height="64" viewBox="0 0 64 64" fill="none" xmlns="http://www.w3.org/2000/svg">
<mask id="path-1-inside-1_280_45791" fill="white">
<path d="M0 16C0 7.16344 7.16344 0 16 0H48C56.8366 0 64 7.16344 64 16V48C64 56.8366 56.8366 64 48 64H16C7.16344 64 0 56.8366 0 48V16Z"/>
</mask>
<path d="M0 16C0 7.16344 7.16344 0 16 0H48C56.8366 0 64 7.16344 64 16V48C64 56.8366 56.8366 64 48 64H16C7.16344 64 0 56.8366 0 48V16Z" fill="#3B82F6" fill-opacity="0.2"/>
<path d="M16 0V1H48V0V-1H16V0ZM64 16H63V48H64H65V16H64ZM48 64V63H16V64V65H48V64ZM0 48H1V16H0H-1V48H0ZM16 64V63C7.71573 63 1 56.2843 1 48H0H-1C-1 57.3888 6.61116 65 16 65V64ZM64 48H63C63 56.2843 56.2843 63 48 63V64V65C57.3888 65 65 57.3888 65 48H64ZM48 0V1C56.2843 1 63 7.71573 63 16H64H65C65 6.61116 57.3888 -1 48 -1V0ZM16 0V-1C6.61116 -1 -1 6.61116 -1 16H0H1C1 7.71573 7.71573 1 16 1V0Z" fill="#20AC6B" fill-opacity="0.2" mask="url(#path-1-inside-1_280_45791)"/>
<path d="M42.6663 33.3333C42.6663 39.9999 37.9997 43.3333 32.453 45.2666C32.1626 45.365 31.8471 45.3603 31.5597 45.2533C25.9997 43.3333 21.333 39.9999 21.333 33.3333V23.9999C21.333 23.6463 21.4735 23.3072 21.7235 23.0571C21.9736 22.8071 22.3127 22.6666 22.6663 22.6666C25.333 22.6666 28.6663 21.0666 30.9863 19.0399C31.2688 18.7986 31.6281 18.666 31.9997 18.666C32.3712 18.666 32.7305 18.7986 33.013 19.0399C35.3463 21.0799 38.6663 22.6666 41.333 22.6666C41.6866 22.6666 42.0258 22.8071 42.2758 23.0571C42.5259 23.3072 42.6663 23.6463 42.6663 23.9999V33.3333Z" stroke="#0D8CFF" stroke-width="2.66667" stroke-linecap="round" stroke-linejoin="round"/>
<path d="M28 31.9997L30.6667 34.6663L36 29.333" stroke="#0D8CFF" stroke-width="2.66667" stroke-linecap="round" stroke-linejoin="round"/>
</svg>
