<svg width="12" height="12" viewBox="0 0 12 12" fill="none" xmlns="http://www.w3.org/2000/svg">
<path d="M8 6.50001L10.6115 8.24101C10.6491 8.26606 10.6929 8.28043 10.7381 8.2826C10.7832 8.28476 10.8281 8.27463 10.868 8.25328C10.9079 8.23194 10.9412 8.20018 10.9644 8.16139C10.9877 8.1226 11 8.07823 11 8.03301V3.93501C11 3.89102 10.9884 3.84781 10.9664 3.80973C10.9444 3.77166 10.9127 3.74007 10.8745 3.71816C10.8364 3.69625 10.7931 3.68479 10.7492 3.68494C10.7052 3.68509 10.662 3.69684 10.624 3.71901L8 5.25001" stroke="#6B7280" stroke-linecap="round" stroke-linejoin="round"/>
<path d="M7 3H2C1.44772 3 1 3.44772 1 4V8C1 8.55228 1.44772 9 2 9H7C7.55228 9 8 8.55228 8 8V4C8 3.44772 7.55228 3 7 3Z" stroke="#6B7280" stroke-linecap="round" stroke-linejoin="round"/>
</svg>
