<svg width="10" height="10" viewBox="0 0 10 10" fill="none" xmlns="http://www.w3.org/2000/svg">
<g clip-path="url(#clip0_349_50918)">
<path d="M2.04102 7.95964C0.416016 6.33464 0.416016 3.66797 2.04102 2.04297" stroke="#6C7C93" stroke-width="0.833333" stroke-linecap="round" stroke-linejoin="round"/>
<path d="M3.25 6.7487C2.29167 5.79036 2.29167 4.20703 3.25 3.20703" stroke="#6C7C93" stroke-width="0.833333" stroke-linecap="round" stroke-linejoin="round"/>
<path d="M4.99935 5.83464C5.45959 5.83464 5.83268 5.46154 5.83268 5.0013C5.83268 4.54106 5.45959 4.16797 4.99935 4.16797C4.53911 4.16797 4.16602 4.54106 4.16602 5.0013C4.16602 5.46154 4.53911 5.83464 4.99935 5.83464Z" stroke="#6C7C93" stroke-width="0.833333" stroke-linecap="round" stroke-linejoin="round"/>
<path d="M6.75 3.25C7.70833 4.20833 7.70833 5.79167 6.75 6.79167" stroke="#6C7C93" stroke-width="0.833333" stroke-linecap="round" stroke-linejoin="round"/>
<path d="M7.95898 2.04297C9.58398 3.66797 9.58398 6.29297 7.95898 7.91797" stroke="#6C7C93" stroke-width="0.833333" stroke-linecap="round" stroke-linejoin="round"/>
</g>
<defs>
<clipPath id="clip0_349_50918">
<rect width="10" height="10" fill="white"/>
</clipPath>
</defs>
</svg>
