<svg width="16" height="16" viewBox="0 0 16 16" fill="none" xmlns="http://www.w3.org/2000/svg">
<path d="M13.3335 4.66602H7.3335" stroke="#6B7280" stroke-width="1.33333" stroke-linecap="round" stroke-linejoin="round"/>
<path d="M9.3335 11.334H3.3335" stroke="#6B7280" stroke-width="1.33333" stroke-linecap="round" stroke-linejoin="round"/>
<path d="M11.3335 13.334C12.4381 13.334 13.3335 12.4386 13.3335 11.334C13.3335 10.2294 12.4381 9.33398 11.3335 9.33398C10.2289 9.33398 9.3335 10.2294 9.3335 11.334C9.3335 12.4386 10.2289 13.334 11.3335 13.334Z" stroke="#6B7280" stroke-width="1.33333" stroke-linecap="round" stroke-linejoin="round"/>
<path d="M4.6665 6.66602C5.77107 6.66602 6.6665 5.77059 6.6665 4.66602C6.6665 3.56145 5.77107 2.66602 4.6665 2.66602C3.56193 2.66602 2.6665 3.56145 2.6665 4.66602C2.6665 5.77059 3.56193 6.66602 4.6665 6.66602Z" stroke="#6B7280" stroke-width="1.33333" stroke-linecap="round" stroke-linejoin="round"/>
</svg>
