<svg width="12" height="12" viewBox="0 0 12 12" fill="none" xmlns="http://www.w3.org/2000/svg">
<path d="M9 9C9.82843 9 10.5 8.32843 10.5 7.5C10.5 6.67157 9.82843 6 9 6C8.17157 6 7.5 6.67157 7.5 7.5C7.5 8.32843 8.17157 9 9 9Z" stroke="#0F1729" stroke-linecap="round" stroke-linejoin="round"/>
<path d="M4.5 5.5C5.60457 5.5 6.5 4.60457 6.5 3.5C6.5 2.39543 5.60457 1.5 4.5 1.5C3.39543 1.5 2.5 2.39543 2.5 3.5C2.5 4.60457 3.39543 5.5 4.5 5.5Z" stroke="#0F1729" stroke-linecap="round" stroke-linejoin="round"/>
<path d="M5 7.5H3C2.46957 7.5 1.96086 7.71071 1.58579 8.08579C1.21071 8.46086 1 8.96957 1 9.5V10.5" stroke="#0F1729" stroke-linecap="round" stroke-linejoin="round"/>
<path d="M10.8504 8.20078L10.4004 8.05078" stroke="#0F1729" stroke-linecap="round" stroke-linejoin="round"/>
<path d="M7.60039 6.95078L7.15039 6.80078" stroke="#0F1729" stroke-linecap="round" stroke-linejoin="round"/>
<path d="M8.2998 9.35039L8.4498 8.90039" stroke="#0F1729" stroke-linecap="round" stroke-linejoin="round"/>
<path d="M9.5498 6.10039L9.6998 5.65039" stroke="#0F1729" stroke-linecap="round" stroke-linejoin="round"/>
<path d="M9.79961 9.34961L9.59961 8.84961" stroke="#0F1729" stroke-linecap="round" stroke-linejoin="round"/>
<path d="M8.4002 6.15039L8.2002 5.65039" stroke="#0F1729" stroke-linecap="round" stroke-linejoin="round"/>
<path d="M7.15039 8.29961L7.65039 8.09961" stroke="#0F1729" stroke-linecap="round" stroke-linejoin="round"/>
<path d="M10.3496 6.89922L10.8496 6.69922" stroke="#0F1729" stroke-linecap="round" stroke-linejoin="round"/>
</svg>
