<svg width="16" height="16" viewBox="0 0 16 16" fill="none" xmlns="http://www.w3.org/2000/svg">
<path d="M4 1.33398L2 4.00065V13.334C2 13.6876 2.14048 14.0267 2.39052 14.2768C2.64057 14.5268 2.97971 14.6673 3.33333 14.6673H12.6667C13.0203 14.6673 13.3594 14.5268 13.6095 14.2768C13.8595 14.0267 14 13.6876 14 13.334V4.00065L12 1.33398H4Z" stroke="#14181F" stroke-width="1.33333" stroke-linecap="round" stroke-linejoin="round"/>
<path d="M2 4H14" stroke="#14181F" stroke-width="1.33333" stroke-linecap="round" stroke-linejoin="round"/>
<path d="M10.6673 6.66602C10.6673 7.37326 10.3864 8.05154 9.88627 8.55163C9.38617 9.05173 8.7079 9.33268 8.00065 9.33268C7.29341 9.33268 6.61513 9.05173 6.11503 8.55163C5.61494 8.05154 5.33398 7.37326 5.33398 6.66602" stroke="#14181F" stroke-width="1.33333" stroke-linecap="round" stroke-linejoin="round"/>
</svg>
