<svg width="14" height="14" viewBox="0 0 14 14" fill="none" xmlns="http://www.w3.org/2000/svg">
<path d="M9.04199 4.37565L10.3837 5.71732C10.4927 5.8242 10.6393 5.88407 10.792 5.88407C10.9447 5.88407 11.0913 5.8242 11.2003 5.71732L12.4253 4.49232C12.5322 4.38328 12.5921 4.23667 12.5921 4.08398C12.5921 3.9313 12.5322 3.78469 12.4253 3.67565L11.0837 2.33398" stroke="#6C7C93" stroke-width="1.16667" stroke-linecap="round" stroke-linejoin="round"/>
<path d="M12.2504 1.16602L6.65039 6.76602" stroke="#6C7C93" stroke-width="1.16667" stroke-linecap="round" stroke-linejoin="round"/>
<path d="M4.37533 12.2507C6.14724 12.2507 7.58366 10.8142 7.58366 9.04232C7.58366 7.2704 6.14724 5.83398 4.37533 5.83398C2.60341 5.83398 1.16699 7.2704 1.16699 9.04232C1.16699 10.8142 2.60341 12.2507 4.37533 12.2507Z" stroke="#6C7C93" stroke-width="1.16667" stroke-linecap="round" stroke-linejoin="round"/>
</svg>
