<svg width="16" height="16" viewBox="0 0 16 16" fill="none" xmlns="http://www.w3.org/2000/svg">
<path d="M10.334 4.99935L11.8673 6.53268C11.9919 6.65483 12.1595 6.72325 12.334 6.72325C12.5085 6.72325 12.676 6.65483 12.8007 6.53268L14.2007 5.13268C14.3228 5.00806 14.3912 4.84052 14.3912 4.66602C14.3912 4.49151 14.3228 4.32397 14.2007 4.19935L12.6673 2.66602" stroke="#D1D9E0" stroke-opacity="0.7" stroke-width="1.33333" stroke-linecap="round" stroke-linejoin="round"/>
<path d="M13.9996 1.33398L7.59961 7.73398" stroke="#D1D9E0" stroke-opacity="0.7" stroke-width="1.33333" stroke-linecap="round" stroke-linejoin="round"/>
<path d="M5.00065 13.9993C7.0257 13.9993 8.66732 12.3577 8.66732 10.3327C8.66732 8.30764 7.0257 6.66602 5.00065 6.66602C2.97561 6.66602 1.33398 8.30764 1.33398 10.3327C1.33398 12.3577 2.97561 13.9993 5.00065 13.9993Z" stroke="#D1D9E0" stroke-opacity="0.7" stroke-width="1.33333" stroke-linecap="round" stroke-linejoin="round"/>
</svg>
