<svg width="14" height="14" viewBox="0 0 14 14" fill="none" xmlns="http://www.w3.org/2000/svg">
<g clip-path="url(#clip0_337_51338)">
<path d="M3.5 12.8327V2.33268C3.5 2.02326 3.62292 1.72652 3.84171 1.50772C4.0605 1.28893 4.35725 1.16602 4.66667 1.16602H9.33333C9.64275 1.16602 9.9395 1.28893 10.1583 1.50772C10.3771 1.72652 10.5 2.02326 10.5 2.33268V12.8327H3.5Z" stroke="#2378E7" stroke-width="1.16667" stroke-linecap="round" stroke-linejoin="round"/>
<path d="M3.50033 7H2.33366C2.02424 7 1.72749 7.12292 1.5087 7.34171C1.28991 7.5605 1.16699 7.85725 1.16699 8.16667V11.6667C1.16699 11.9761 1.28991 12.2728 1.5087 12.4916C1.72749 12.7104 2.02424 12.8333 2.33366 12.8333H3.50033" stroke="#2378E7" stroke-width="1.16667" stroke-linecap="round" stroke-linejoin="round"/>
<path d="M10.5 5.25H11.6667C11.9761 5.25 12.2728 5.37292 12.4916 5.59171C12.7104 5.8105 12.8333 6.10725 12.8333 6.41667V11.6667C12.8333 11.9761 12.7104 12.2728 12.4916 12.4916C12.2728 12.7104 11.9761 12.8333 11.6667 12.8333H10.5" stroke="#2378E7" stroke-width="1.16667" stroke-linecap="round" stroke-linejoin="round"/>
<path d="M5.83301 3.5H8.16634" stroke="#2378E7" stroke-width="1.16667" stroke-linecap="round" stroke-linejoin="round"/>
<path d="M5.83301 5.83398H8.16634" stroke="#2378E7" stroke-width="1.16667" stroke-linecap="round" stroke-linejoin="round"/>
<path d="M5.83301 8.16602H8.16634" stroke="#2378E7" stroke-width="1.16667" stroke-linecap="round" stroke-linejoin="round"/>
<path d="M5.83301 10.5H8.16634" stroke="#2378E7" stroke-width="1.16667" stroke-linecap="round" stroke-linejoin="round"/>
</g>
<defs>
<clipPath id="clip0_337_51338">
<rect width="14" height="14" fill="white"/>
</clipPath>
</defs>
</svg>
