<svg width="16" height="16" viewBox="0 0 16 16" fill="none" xmlns="http://www.w3.org/2000/svg">
<g clip-path="url(#clip0_2351_28652)">
<path d="M4 5.33398C4 4.27312 4.42143 3.2557 5.17157 2.50556C5.92172 1.75541 6.93913 1.33398 8 1.33398C9.06087 1.33398 10.0783 1.75541 10.8284 2.50556C11.5786 3.2557 12 4.27312 12 5.33398C12 10.0007 14 11.334 14 11.334H2C2 11.334 4 10.0007 4 5.33398Z" stroke="#1A3366" stroke-width="1.33333" stroke-linecap="round" stroke-linejoin="round"/>
<path d="M6.86621 14C6.9778 14.203 7.14184 14.3722 7.3412 14.4901C7.54057 14.608 7.76793 14.6702 7.99954 14.6702C8.23116 14.6702 8.45852 14.608 8.65788 14.4901C8.85725 14.3722 9.02129 14.203 9.13288 14" stroke="#1A3366" stroke-width="1.33333" stroke-linecap="round" stroke-linejoin="round"/>
</g>
<defs>
<clipPath id="clip0_2351_28652">
<rect width="16" height="16" fill="white"/>
</clipPath>
</defs>
</svg>
