<svg width="20" height="20" viewBox="0 0 20 20" fill="none" xmlns="http://www.w3.org/2000/svg">
<path d="M13.3337 16.666V3.33268C13.3337 2.89065 13.1581 2.46673 12.8455 2.15417C12.5329 1.84161 12.109 1.66602 11.667 1.66602H8.33366C7.89163 1.66602 7.46771 1.84161 7.15515 2.15417C6.84259 2.46673 6.66699 2.89065 6.66699 3.33268V16.666" stroke="#2378E7" stroke-width="1.66667" stroke-linecap="round" stroke-linejoin="round"/>
<path d="M16.667 5H3.33366C2.41318 5 1.66699 5.74619 1.66699 6.66667V15C1.66699 15.9205 2.41318 16.6667 3.33366 16.6667H16.667C17.5875 16.6667 18.3337 15.9205 18.3337 15V6.66667C18.3337 5.74619 17.5875 5 16.667 5Z" stroke="#2378E7" stroke-width="1.66667" stroke-linecap="round" stroke-linejoin="round"/>
</svg>
