<svg width="32" height="32" viewBox="0 0 32 32" fill="none" xmlns="http://www.w3.org/2000/svg">
<path d="M19.3337 5.33398H12.667L9.33366 9.33398H5.33366C4.62641 9.33398 3.94814 9.61494 3.44804 10.115C2.94794 10.6151 2.66699 11.2934 2.66699 12.0007V24.0007C2.66699 24.7079 2.94794 25.3862 3.44804 25.8863C3.94814 26.3864 4.62641 26.6673 5.33366 26.6673H26.667C27.3742 26.6673 28.0525 26.3864 28.5526 25.8863C29.0527 25.3862 29.3337 24.7079 29.3337 24.0007V12.0007C29.3337 11.2934 29.0527 10.6151 28.5526 10.115C28.0525 9.61494 27.3742 9.33398 26.667 9.33398H22.667L19.3337 5.33398Z" stroke="#65758B" stroke-width="2.66667" stroke-linecap="round" stroke-linejoin="round"/>
<path d="M16 21.334C18.2091 21.334 20 19.5431 20 17.334C20 15.1248 18.2091 13.334 16 13.334C13.7909 13.334 12 15.1248 12 17.334C12 19.5431 13.7909 21.334 16 21.334Z" stroke="#65758B" stroke-width="2.66667" stroke-linecap="round" stroke-linejoin="round"/>
</svg>
