<svg width="14" height="14" viewBox="0 0 14 14" fill="none" xmlns="http://www.w3.org/2000/svg">
<path d="M11.6668 7.58294C11.6668 10.4996 9.62516 11.9579 7.1985 12.8038C7.07142 12.8468 6.93339 12.8448 6.80766 12.7979C4.37516 11.9579 2.3335 10.4996 2.3335 7.58294V3.49961C2.3335 3.3449 2.39495 3.19653 2.50435 3.08713C2.61375 2.97774 2.76212 2.91628 2.91683 2.91628C4.0835 2.91628 5.54183 2.21628 6.55683 1.32961C6.68041 1.22403 6.83762 1.16602 7.00016 1.16602C7.16271 1.16602 7.31991 1.22403 7.4435 1.32961C8.46433 2.22211 9.91683 2.91628 11.0835 2.91628C11.2382 2.91628 11.3866 2.97774 11.496 3.08713C11.6054 3.19653 11.6668 3.3449 11.6668 3.49961V7.58294Z" stroke="#131720" stroke-width="1.16667" stroke-linecap="round" stroke-linejoin="round"/>
<path d="M7 4.66602V6.99935" stroke="#131720" stroke-width="1.16667" stroke-linecap="round" stroke-linejoin="round"/>
<path d="M7 9.33398H7.00583" stroke="#131720" stroke-width="1.16667" stroke-linecap="round" stroke-linejoin="round"/>
</svg>
