<svg width="14" height="14" viewBox="0 0 14 14" fill="none" xmlns="http://www.w3.org/2000/svg">
<path d="M10.4997 1.16602H3.49967C2.85534 1.16602 2.33301 1.68835 2.33301 2.33268V11.666C2.33301 12.3103 2.85534 12.8327 3.49967 12.8327H10.4997C11.144 12.8327 11.6663 12.3103 11.6663 11.666V2.33268C11.6663 1.68835 11.144 1.16602 10.4997 1.16602Z" stroke="#65758B" stroke-width="1.16667" stroke-linecap="round" stroke-linejoin="round"/>
<path d="M5.25 12.8333V10.5H8.75V12.8333" stroke="#65758B" stroke-width="1.16667" stroke-linecap="round" stroke-linejoin="round"/>
<path d="M4.66699 3.5H4.67283" stroke="#65758B" stroke-width="1.16667" stroke-linecap="round" stroke-linejoin="round"/>
<path d="M9.33301 3.5H9.33884" stroke="#65758B" stroke-width="1.16667" stroke-linecap="round" stroke-linejoin="round"/>
<path d="M7 3.5H7.00583" stroke="#65758B" stroke-width="1.16667" stroke-linecap="round" stroke-linejoin="round"/>
<path d="M7 5.83398H7.00583" stroke="#65758B" stroke-width="1.16667" stroke-linecap="round" stroke-linejoin="round"/>
<path d="M7 8.16602H7.00583" stroke="#65758B" stroke-width="1.16667" stroke-linecap="round" stroke-linejoin="round"/>
<path d="M9.33301 5.83398H9.33884" stroke="#65758B" stroke-width="1.16667" stroke-linecap="round" stroke-linejoin="round"/>
<path d="M9.33301 8.16602H9.33884" stroke="#65758B" stroke-width="1.16667" stroke-linecap="round" stroke-linejoin="round"/>
<path d="M4.66699 5.83398H4.67283" stroke="#65758B" stroke-width="1.16667" stroke-linecap="round" stroke-linejoin="round"/>
<path d="M4.66699 8.16602H4.67283" stroke="#65758B" stroke-width="1.16667" stroke-linecap="round" stroke-linejoin="round"/>
</svg>
