<svg width="20" height="20" viewBox="0 0 20 20" fill="none" xmlns="http://www.w3.org/2000/svg">
<path d="M10 13.332H10.0083" stroke="#DC2828" stroke-width="1.66667" stroke-linecap="round" stroke-linejoin="round"/>
<path d="M10 6.66797V10.0013" stroke="#DC2828" stroke-width="1.66667" stroke-linecap="round" stroke-linejoin="round"/>
<path d="M12.7603 1.66797C13.2023 1.66806 13.6262 1.84372 13.9387 2.1563L17.8453 6.06297C18.1579 6.37546 18.3336 6.79931 18.3337 7.2413V12.7613C18.3336 13.2033 18.1579 13.6271 17.8453 13.9396L13.9387 17.8463C13.6262 18.1589 13.2023 18.3345 12.7603 18.3346H7.24033C6.79833 18.3345 6.37448 18.1589 6.06199 17.8463L2.15533 13.9396C1.84274 13.6271 1.66709 13.2033 1.66699 12.7613V7.2413C1.66709 6.79931 1.84274 6.37546 2.15533 6.06297L6.06199 2.1563C6.37448 1.84372 6.79833 1.66806 7.24033 1.66797H12.7603Z" stroke="#DC2828" stroke-width="1.66667" stroke-linecap="round" stroke-linejoin="round"/>
</svg>
