<svg width="20" height="20" viewBox="0 0 20 20" fill="none" xmlns="http://www.w3.org/2000/svg">
<path d="M1.7181 10.2908C1.64865 10.1037 1.64865 9.89788 1.7181 9.71079C2.39452 8.07067 3.5427 6.66832 5.01708 5.68154C6.49146 4.69475 8.22564 4.16797 9.99977 4.16797C11.7739 4.16797 13.5081 4.69475 14.9825 5.68154C16.4568 6.66832 17.605 8.07067 18.2814 9.71079C18.3509 9.89788 18.3509 10.1037 18.2814 10.2908C17.605 11.9309 16.4568 13.3333 14.9825 14.32C13.5081 15.3068 11.7739 15.8336 9.99977 15.8336C8.22564 15.8336 6.49146 15.3068 5.01708 14.32C3.5427 13.3333 2.39452 11.9309 1.7181 10.2908Z" stroke="#F59F0A" stroke-width="1.66667" stroke-linecap="round" stroke-linejoin="round"/>
<path d="M10 12.5C11.3807 12.5 12.5 11.3807 12.5 10C12.5 8.61929 11.3807 7.5 10 7.5C8.61929 7.5 7.5 8.61929 7.5 10C7.5 11.3807 8.61929 12.5 10 12.5Z" stroke="#F59F0A" stroke-width="1.66667" stroke-linecap="round" stroke-linejoin="round"/>
</svg>
