<svg width="20" height="20" viewBox="0 0 20 20" fill="none" xmlns="http://www.w3.org/2000/svg">
<path d="M12.5002 1.66602H5.00016C4.55814 1.66602 4.13421 1.84161 3.82165 2.15417C3.50909 2.46673 3.3335 2.89065 3.3335 3.33268V16.666C3.3335 17.108 3.50909 17.532 3.82165 17.8445C4.13421 18.1571 4.55814 18.3327 5.00016 18.3327H15.0002C15.4422 18.3327 15.8661 18.1571 16.1787 17.8445C16.4912 17.532 16.6668 17.108 16.6668 16.666V5.83268L12.5002 1.66602Z" stroke="#2463EB" stroke-width="1.66667" stroke-linecap="round" stroke-linejoin="round"/>
<path d="M11.6665 1.66602V4.99935C11.6665 5.44138 11.8421 5.8653 12.1547 6.17786C12.4672 6.49042 12.8911 6.66602 13.3332 6.66602H16.6665" stroke="#2463EB" stroke-width="1.66667" stroke-linecap="round" stroke-linejoin="round"/>
<path d="M8.33317 7.5H6.6665" stroke="#2463EB" stroke-width="1.66667" stroke-linecap="round" stroke-linejoin="round"/>
<path d="M13.3332 10.834H6.6665" stroke="#2463EB" stroke-width="1.66667" stroke-linecap="round" stroke-linejoin="round"/>
<path d="M13.3332 14.166H6.6665" stroke="#2463EB" stroke-width="1.66667" stroke-linecap="round" stroke-linejoin="round"/>
</svg>
