<svg width="16" height="16" viewBox="0 0 16 16" fill="none" xmlns="http://www.w3.org/2000/svg">
<path d="M4.00016 9.3334L5.00016 7.40006C5.10888 7.18416 5.27424 7.00187 5.47857 6.8727C5.6829 6.74352 5.9185 6.67233 6.16016 6.66673H13.3335M13.3335 6.66673C13.5372 6.66637 13.7382 6.71269 13.9213 6.80212C14.1043 6.89155 14.2643 7.02172 14.3892 7.18264C14.5141 7.34356 14.6004 7.53095 14.6416 7.73043C14.6828 7.92991 14.6778 8.13618 14.6268 8.3334L13.6002 12.3334C13.5259 12.6211 13.3576 12.8758 13.1221 13.0569C12.8866 13.2381 12.5973 13.3354 12.3002 13.3334H2.66683C2.31321 13.3334 1.97407 13.1929 1.72402 12.9429C1.47397 12.6928 1.3335 12.3537 1.3335 12.0001V3.3334C1.3335 2.97978 1.47397 2.64064 1.72402 2.39059C1.97407 2.14054 2.31321 2.00006 2.66683 2.00006H5.26683C5.48982 1.99788 5.7098 2.05166 5.90663 2.15648C6.10346 2.2613 6.27086 2.41381 6.3935 2.60006L6.9335 3.40006C7.0549 3.58442 7.22018 3.73574 7.4145 3.84047C7.60881 3.94519 7.82609 4.00003 8.04683 4.00006H12.0002C12.3538 4.00006 12.6929 4.14054 12.943 4.39059C13.193 4.64064 13.3335 4.97978 13.3335 5.3334V6.66673Z" stroke="#6B7280" stroke-width="1.33333" stroke-linecap="round" stroke-linejoin="round"/>
</svg>
