<svg width="20" height="20" viewBox="0 0 20 20" fill="none" xmlns="http://www.w3.org/2000/svg">
<path d="M16.6663 10.835C16.6663 15.0017 13.7497 17.085 10.283 18.2933C10.1015 18.3549 9.90429 18.3519 9.72467 18.285C6.24967 17.085 3.33301 15.0017 3.33301 10.835V5.00168C3.33301 4.78066 3.42081 4.5687 3.57709 4.41242C3.73337 4.25614 3.94533 4.16834 4.16634 4.16834C5.83301 4.16834 7.91634 3.16834 9.36634 1.90168C9.54289 1.75084 9.76747 1.66797 9.99967 1.66797C10.2319 1.66797 10.4565 1.75084 10.633 1.90168C12.0913 3.17668 14.1663 4.16834 15.833 4.16834C16.054 4.16834 16.266 4.25614 16.4223 4.41242C16.5785 4.5687 16.6663 4.78066 16.6663 5.00168V10.835Z" stroke="#EF4343" stroke-width="1.66667" stroke-linecap="round" stroke-linejoin="round"/>
<path d="M3.53613 4.33984L15.5278 14.7332" stroke="#EF4343" stroke-width="1.66667" stroke-linecap="round" stroke-linejoin="round"/>
</svg>
