<svg width="14" height="14" viewBox="0 0 14 14" fill="none" xmlns="http://www.w3.org/2000/svg">
<path d="M2.33398 1.16797V12.8346L3.50065 12.2513L4.66732 12.8346L5.83398 12.2513L7.00065 12.8346L8.16732 12.2513L9.33398 12.8346L10.5007 12.2513L11.6673 12.8346V1.16797L10.5007 1.7513L9.33398 1.16797L8.16732 1.7513L7.00065 1.16797L5.83398 1.7513L4.66732 1.16797L3.50065 1.7513L2.33398 1.16797Z" stroke="#65758B" stroke-width="1.16667" stroke-linecap="round" stroke-linejoin="round"/>
<path d="M9.33268 4.66797H5.83268C5.52326 4.66797 5.22652 4.79089 5.00772 5.00968C4.78893 5.22847 4.66602 5.52522 4.66602 5.83464C4.66602 6.14405 4.78893 6.4408 5.00772 6.65959C5.22652 6.87839 5.52326 7.0013 5.83268 7.0013H8.16602C8.47543 7.0013 8.77218 7.12422 8.99097 7.34301C9.20977 7.5618 9.33268 7.85855 9.33268 8.16797C9.33268 8.47739 9.20977 8.77413 8.99097 8.99293C8.77218 9.21172 8.47543 9.33464 8.16602 9.33464H4.66602" stroke="#65758B" stroke-width="1.16667" stroke-linecap="round" stroke-linejoin="round"/>
<path d="M7 10.2096V3.79297" stroke="#65758B" stroke-width="1.16667" stroke-linecap="round" stroke-linejoin="round"/>
</svg>
