<svg width="20" height="20" viewBox="0 0 20 20" fill="none" xmlns="http://www.w3.org/2000/svg">
<path d="M16.6667 6.66797H3.33333C2.8731 6.66797 2.5 7.04106 2.5 7.5013V9.16797C2.5 9.62821 2.8731 10.0013 3.33333 10.0013H16.6667C17.1269 10.0013 17.5 9.62821 17.5 9.16797V7.5013C17.5 7.04106 17.1269 6.66797 16.6667 6.66797Z" stroke="#0D8CFF" stroke-width="1.66667" stroke-linecap="round" stroke-linejoin="round"/>
<path d="M10 6.66797V17.5013" stroke="#0D8CFF" stroke-width="1.66667" stroke-linecap="round" stroke-linejoin="round"/>
<path d="M15.8334 10V15.8333C15.8334 16.2754 15.6578 16.6993 15.3453 17.0118C15.0327 17.3244 14.6088 17.5 14.1667 17.5H5.83341C5.39139 17.5 4.96746 17.3244 4.6549 17.0118C4.34234 16.6993 4.16675 16.2754 4.16675 15.8333V10" stroke="#0D8CFF" stroke-width="1.66667" stroke-linecap="round" stroke-linejoin="round"/>
<path d="M6.25008 6.66703C5.69755 6.66703 5.16764 6.44754 4.77694 6.05684C4.38624 5.66614 4.16675 5.13623 4.16675 4.5837C4.16675 4.03116 4.38624 3.50126 4.77694 3.11056C5.16764 2.71986 5.69755 2.50036 6.25008 2.50036C7.05399 2.48636 7.84177 2.87641 8.51069 3.61966C9.17962 4.36292 9.69864 5.42487 10.0001 6.66703C10.3015 5.42487 10.8205 4.36292 11.4895 3.61966C12.1584 2.87641 12.9462 2.48636 13.7501 2.50036C14.3026 2.50036 14.8325 2.71986 15.2232 3.11056C15.6139 3.50126 15.8334 4.03116 15.8334 4.5837C15.8334 5.13623 15.6139 5.66614 15.2232 6.05684C14.8325 6.44754 14.3026 6.66703 13.7501 6.66703" stroke="#0D8CFF" stroke-width="1.66667" stroke-linecap="round" stroke-linejoin="round"/>
</svg>
