<svg width="16" height="16" viewBox="0 0 16 16" fill="none" xmlns="http://www.w3.org/2000/svg">
<path d="M11.333 2.66797H9.99967C9.63148 2.66797 9.33301 2.96645 9.33301 3.33464V12.668C9.33301 13.0362 9.63148 13.3346 9.99967 13.3346H11.333C11.7012 13.3346 11.9997 13.0362 11.9997 12.668V3.33464C11.9997 2.96645 11.7012 2.66797 11.333 2.66797Z" stroke="#F59F0A" stroke-width="1.33333" stroke-linecap="round" stroke-linejoin="round"/>
<path d="M6 2.66797H4.66667C4.29848 2.66797 4 2.96645 4 3.33464V12.668C4 13.0362 4.29848 13.3346 4.66667 13.3346H6C6.36819 13.3346 6.66667 13.0362 6.66667 12.668V3.33464C6.66667 2.96645 6.36819 2.66797 6 2.66797Z" stroke="#F59F0A" stroke-width="1.33333" stroke-linecap="round" stroke-linejoin="round"/>
</svg>
