<svg width="16" height="16" viewBox="0 0 16 16" fill="none" xmlns="http://www.w3.org/2000/svg">
<path d="M10.667 6.66602H12.0003" stroke="#65758B" stroke-width="1.33333" stroke-linecap="round" stroke-linejoin="round"/>
<path d="M10.667 9.33398H12.0003" stroke="#65758B" stroke-width="1.33333" stroke-linecap="round" stroke-linejoin="round"/>
<path d="M4.11328 10.0004C4.25071 9.60971 4.50602 9.27134 4.84396 9.03198C5.18191 8.79262 5.58582 8.66406 5.99995 8.66406C6.41408 8.66406 6.81799 8.79262 7.15594 9.03198C7.49388 9.27134 7.74919 9.60971 7.88661 10.0004" stroke="#65758B" stroke-width="1.33333" stroke-linecap="round" stroke-linejoin="round"/>
<path d="M6.00033 8.66667C6.73671 8.66667 7.33366 8.06971 7.33366 7.33333C7.33366 6.59695 6.73671 6 6.00033 6C5.26395 6 4.66699 6.59695 4.66699 7.33333C4.66699 8.06971 5.26395 8.66667 6.00033 8.66667Z" stroke="#65758B" stroke-width="1.33333" stroke-linecap="round" stroke-linejoin="round"/>
<path d="M13.333 3.33398H2.66634C1.92996 3.33398 1.33301 3.93094 1.33301 4.66732V11.334C1.33301 12.0704 1.92996 12.6673 2.66634 12.6673H13.333C14.0694 12.6673 14.6663 12.0704 14.6663 11.334V4.66732C14.6663 3.93094 14.0694 3.33398 13.333 3.33398Z" stroke="#65758B" stroke-width="1.33333" stroke-linecap="round" stroke-linejoin="round"/>
</svg>
