<svg width="14" height="14" viewBox="0 0 14 14" fill="none" xmlns="http://www.w3.org/2000/svg">
<path d="M11.0833 4.08333V2.33333C11.0833 2.17862 11.0219 2.03025 10.9125 1.92085C10.8031 1.81146 10.6547 1.75 10.5 1.75H2.91667C2.60725 1.75 2.3105 1.87292 2.09171 2.09171C1.87292 2.3105 1.75 2.60725 1.75 2.91667C1.75 3.22609 1.87292 3.52283 2.09171 3.74162C2.3105 3.96042 2.60725 4.08333 2.91667 4.08333H11.6667C11.8214 4.08333 11.9697 4.14479 12.0791 4.25419C12.1885 4.36358 12.25 4.51196 12.25 4.66667V7M12.25 7H10.5C10.1906 7 9.89383 7.12292 9.67504 7.34171C9.45625 7.5605 9.33333 7.85725 9.33333 8.16667C9.33333 8.47609 9.45625 8.77283 9.67504 8.99162C9.89383 9.21042 10.1906 9.33333 10.5 9.33333H12.25C12.4047 9.33333 12.5531 9.27187 12.6625 9.16248C12.7719 9.05308 12.8333 8.90471 12.8333 8.75V7.58333C12.8333 7.42862 12.7719 7.28025 12.6625 7.17085C12.5531 7.06146 12.4047 7 12.25 7Z" stroke="#65758B" stroke-width="1.16667" stroke-linecap="round" stroke-linejoin="round"/>
<path d="M1.75 2.91602V11.0827C1.75 11.3921 1.87292 11.6888 2.09171 11.9076C2.3105 12.1264 2.60725 12.2493 2.91667 12.2493H11.6667C11.8214 12.2493 11.9697 12.1879 12.0791 12.0785C12.1885 11.9691 12.25 11.8207 12.25 11.666V9.33268" stroke="#65758B" stroke-width="1.16667" stroke-linecap="round" stroke-linejoin="round"/>
</svg>
