<svg width="14" height="14" viewBox="0 0 14 14" fill="none" xmlns="http://www.w3.org/2000/svg">
<path d="M11.6666 7.58294C11.6666 10.4996 9.62492 11.9579 7.19825 12.8038C7.07118 12.8468 6.93315 12.8448 6.80742 12.7979C4.37492 11.9579 2.33325 10.4996 2.33325 7.58294V3.49961C2.33325 3.3449 2.39471 3.19653 2.50411 3.08713C2.6135 2.97774 2.76188 2.91628 2.91659 2.91628C4.08325 2.91628 5.54159 2.21628 6.55659 1.32961C6.68017 1.22403 6.83737 1.16602 6.99992 1.16602C7.16246 1.16602 7.31967 1.22403 7.44325 1.32961C8.46409 2.22211 9.91659 2.91628 11.0833 2.91628C11.238 2.91628 11.3863 2.97774 11.4957 3.08713C11.6051 3.19653 11.6666 3.3449 11.6666 3.49961V7.58294Z" stroke="white" stroke-width="1.16667" stroke-linecap="round" stroke-linejoin="round"/>
<path d="M7 4.66699V7.00033" stroke="white" stroke-width="1.16667" stroke-linecap="round" stroke-linejoin="round"/>
<path d="M7 9.33301H7.00583" stroke="white" stroke-width="1.16667" stroke-linecap="round" stroke-linejoin="round"/>
</svg>
