<svg width="14" height="14" viewBox="0 0 14 14" fill="none" xmlns="http://www.w3.org/2000/svg">
<path d="M5.45508 0.277344C6.73341 0.0230675 8.05853 0.153564 9.2627 0.652344C10.4667 1.15104 11.4956 1.99564 12.2197 3.0791C12.9438 4.16282 13.3311 5.43783 13.3311 6.74121C13.329 8.48824 12.6338 10.1631 11.3984 11.3984C10.1631 12.6338 8.48824 13.329 6.74121 13.3311C5.43783 13.3311 4.16282 12.9438 3.0791 12.2197C1.99564 11.4956 1.15104 10.4667 0.652344 9.2627C0.153564 8.05853 0.0230675 6.73341 0.277344 5.45508C0.531627 4.17676 1.15944 3.00267 2.08105 2.08105C3.00267 1.15944 4.17676 0.531627 5.45508 0.277344ZM6.74023 1.32422C5.66919 1.32433 4.62203 1.64135 3.73145 2.23633C2.84064 2.83154 2.14632 3.67816 1.73633 4.66797C1.32636 5.65776 1.21873 6.7471 1.42773 7.79785C1.63677 8.84851 2.15268 9.81379 2.91016 10.5713C3.66763 11.3288 4.63296 11.8447 5.68359 12.0537C6.73432 12.2627 7.82371 12.1551 8.81348 11.7451C9.80329 11.3351 10.6499 10.6408 11.2451 9.75C11.8401 8.85939 12.1571 7.81229 12.1572 6.74121C12.1557 5.30499 11.5849 3.92767 10.5693 2.91211C9.55378 1.89658 8.17643 1.32575 6.74023 1.32422Z" fill="#586375" stroke="#687891" stroke-width="0.3"/>
<path d="M6.74023 3.22461C7.18513 3.22481 7.5459 3.5863 7.5459 4.03125C7.5457 4.47602 7.18501 4.83671 6.74023 4.83691C6.29529 4.83691 5.9338 4.47615 5.93359 4.03125C5.93359 3.58618 6.29516 3.22461 6.74023 3.22461Z" fill="#586375" stroke="#687891" stroke-width="0.3"/>
<path d="M7.47461 6.44336L7.47363 6.45215L7.1748 9.05762C7.23951 9.14368 7.32729 9.20968 7.42969 9.24512C7.45555 9.25403 7.48266 9.26094 7.50977 9.26465L7.72266 9.29395L7.62207 9.4834C7.54092 9.6366 7.41528 9.76132 7.26172 9.8418C7.10811 9.92229 6.93393 9.95506 6.76172 9.93457C6.70869 9.92838 6.65664 9.91645 6.60547 9.90137C6.59123 9.8999 6.57834 9.89671 6.56738 9.89258C6.5631 9.89095 6.55952 9.88761 6.55566 9.88574C6.37791 9.81885 6.22711 9.69585 6.12695 9.53418C6.02449 9.36872 5.98017 9.17374 6.00293 8.98047L6.30469 6.33984C6.25786 6.27908 6.20065 6.22745 6.13379 6.19043L6.0498 6.15234C6.02384 6.14325 5.99697 6.13664 5.96973 6.13281L5.75781 6.10352L5.85742 5.91406C5.93852 5.76098 6.06436 5.63614 6.21777 5.55566C6.37139 5.47515 6.54653 5.44337 6.71875 5.46387C6.75027 5.46756 6.78156 5.47264 6.8125 5.47949L6.90527 5.50488L6.9082 5.50586C7.09214 5.57098 7.24826 5.69678 7.35156 5.8623C7.45487 6.02798 7.49905 6.22402 7.47656 6.41797V6.41895C7.47627 6.42128 7.47496 6.42364 7.47461 6.42578V6.44336Z" fill="#586375" stroke="#687891" stroke-width="0.3"/>
</svg>
