<svg width="16" height="16" viewBox="0 0 16 16" fill="none" xmlns="http://www.w3.org/2000/svg">
<path d="M10.667 10.6673L12.667 5.33398L14.667 10.6673C14.087 11.1007 13.387 11.334 12.667 11.334C11.947 11.334 11.247 11.1007 10.667 10.6673Z" stroke="#F97415" stroke-width="1.33333" stroke-linecap="round" stroke-linejoin="round"/>
<path d="M1.33301 10.6673L3.33301 5.33398L5.33301 10.6673C4.75301 11.1007 4.05301 11.334 3.33301 11.334C2.61301 11.334 1.91301 11.1007 1.33301 10.6673Z" stroke="#F97415" stroke-width="1.33333" stroke-linecap="round" stroke-linejoin="round"/>
<path d="M4.66699 14H11.3337" stroke="#F97415" stroke-width="1.33333" stroke-linecap="round" stroke-linejoin="round"/>
<path d="M8 2V14" stroke="#F97415" stroke-width="1.33333" stroke-linecap="round" stroke-linejoin="round"/>
<path d="M2 4.66732H3.33333C4.66667 4.66732 6.66667 4.00065 8 3.33398C9.33333 4.00065 11.3333 4.66732 12.6667 4.66732H14" stroke="#F97415" stroke-width="1.33333" stroke-linecap="round" stroke-linejoin="round"/>
</svg>
