<svg width="16" height="16" viewBox="0 0 16 16" fill="none" xmlns="http://www.w3.org/2000/svg">
<path d="M5.99967 11.3327H4.66634C3.78229 11.3327 2.93444 10.9815 2.30932 10.3564C1.6842 9.73125 1.33301 8.8834 1.33301 7.99935C1.33301 7.11529 1.6842 6.26745 2.30932 5.64233C2.93444 5.01721 3.78229 4.66602 4.66634 4.66602H5.99967" stroke="#0B64F4" stroke-width="1.33333" stroke-linecap="round" stroke-linejoin="round"/>
<path d="M10 4.66602H11.3333C12.2174 4.66602 13.0652 5.01721 13.6904 5.64233C14.3155 6.26745 14.6667 7.11529 14.6667 7.99935C14.6667 8.8834 14.3155 9.73125 13.6904 10.3564C13.0652 10.9815 12.2174 11.3327 11.3333 11.3327H10" stroke="#0B64F4" stroke-width="1.33333" stroke-linecap="round" stroke-linejoin="round"/>
<path d="M5.33301 8H10.6663" stroke="#0B64F4" stroke-width="1.33333" stroke-linecap="round" stroke-linejoin="round"/>
</svg>
