<svg width="9" height="12" viewBox="0 0 9 12" fill="none" xmlns="http://www.w3.org/2000/svg">
<path d="M7.29134 5.27116C7.29134 7.09152 5.27191 8.98736 4.59379 9.57288C4.53062 9.62038 4.45372 9.64607 4.37467 9.64607C4.29563 9.64607 4.21873 9.62038 4.15556 9.57288C3.47744 8.98736 1.45801 7.09152 1.45801 5.27116C1.45801 4.49761 1.7653 3.75575 2.31228 3.20876C2.85926 2.66178 3.60113 2.35449 4.37467 2.35449C5.14822 2.35449 5.89009 2.66178 6.43707 3.20876C6.98405 3.75575 7.29134 4.49761 7.29134 5.27116Z" stroke="#6B7280" stroke-width="0.729167" stroke-linecap="round" stroke-linejoin="round"/>
<path d="M4.375 6.36426C4.97906 6.36426 5.46875 5.87457 5.46875 5.27051C5.46875 4.66645 4.97906 4.17676 4.375 4.17676C3.77094 4.17676 3.28125 4.66645 3.28125 5.27051C3.28125 5.87457 3.77094 6.36426 4.375 6.36426Z" stroke="#6B7280" stroke-width="0.729167" stroke-linecap="round" stroke-linejoin="round"/>
</svg>
