<svg width="14" height="14" viewBox="0 0 14 14" fill="none" xmlns="http://www.w3.org/2000/svg">
<path d="M11.6663 5.83268C11.6663 8.74527 8.43526 11.7786 7.35026 12.7154C7.24918 12.7914 7.12614 12.8325 6.99967 12.8325C6.87321 12.8325 6.75017 12.7914 6.64909 12.7154C5.56409 11.7786 2.33301 8.74527 2.33301 5.83268C2.33301 4.59501 2.82467 3.40802 3.69984 2.53285C4.57501 1.65768 5.762 1.16602 6.99967 1.16602C8.23735 1.16602 9.42434 1.65768 10.2995 2.53285C11.1747 3.40802 11.6663 4.59501 11.6663 5.83268Z" stroke="#65758B" stroke-width="1.16667" stroke-linecap="round" stroke-linejoin="round"/>
<path d="M7 7.58398C7.9665 7.58398 8.75 6.80048 8.75 5.83398C8.75 4.86749 7.9665 4.08398 7 4.08398C6.0335 4.08398 5.25 4.86749 5.25 5.83398C5.25 6.80048 6.0335 7.58398 7 7.58398Z" stroke="#65758B" stroke-width="1.16667" stroke-linecap="round" stroke-linejoin="round"/>
</svg>
