<svg width="16" height="16" viewBox="0 0 16 16" fill="none" xmlns="http://www.w3.org/2000/svg">
<g clip-path="url(#clip0_2221_26937)">
<path d="M12.6667 7.33398H3.33333C2.59695 7.33398 2 7.93094 2 8.66732V13.334C2 14.0704 2.59695 14.6673 3.33333 14.6673H12.6667C13.403 14.6673 14 14.0704 14 13.334V8.66732C14 7.93094 13.403 7.33398 12.6667 7.33398Z" stroke="#6B7280" stroke-width="1.33333" stroke-linecap="round" stroke-linejoin="round"/>
<path d="M4.66675 7.33344V4.66677C4.66592 3.84013 4.97227 3.04268 5.52633 2.42921C6.08039 1.81575 6.84264 1.43004 7.66509 1.34696C8.48754 1.26389 9.31151 1.48937 9.97707 1.97964C10.6426 2.46992 11.1023 3.19 11.2667 4.0001" stroke="#6B7280" stroke-width="1.33333" stroke-linecap="round" stroke-linejoin="round"/>
</g>
<defs>
<clipPath id="clip0_2221_26937">
<rect width="16" height="16" fill="white"/>
</clipPath>
</defs>
</svg>
