<svg width="14" height="14" viewBox="0 0 14 14" fill="none" xmlns="http://www.w3.org/2000/svg">
<g clip-path="url(#clip0_2452_6854)">
<path d="M12.8337 6.99935H11.387C11.1321 6.9988 10.884 7.08178 10.6806 7.23558C10.4773 7.38938 10.33 7.60555 10.2612 7.85102L8.89033 12.7277C8.88149 12.758 8.86307 12.7846 8.83783 12.8035C8.81258 12.8224 8.78188 12.8327 8.75033 12.8327C8.71877 12.8327 8.68807 12.8224 8.66283 12.8035C8.63758 12.7846 8.61916 12.758 8.61033 12.7277L5.39033 1.27102C5.38149 1.24072 5.36307 1.21411 5.33783 1.19518C5.31258 1.17625 5.28188 1.16602 5.25033 1.16602C5.21877 1.16602 5.18807 1.17625 5.16283 1.19518C5.13758 1.21411 5.11916 1.24072 5.11033 1.27102L3.73949 6.14768C3.67093 6.39219 3.52446 6.60765 3.32233 6.76136C3.12019 6.91506 2.87343 6.99862 2.61949 6.99935H1.16699" stroke="#6C7C93" stroke-width="1.16667" stroke-linecap="round" stroke-linejoin="round"/>
</g>
<defs>
<clipPath id="clip0_2452_6854">
<rect width="14" height="14" fill="white"/>
</clipPath>
</defs>
</svg>
