<svg width="14" height="14" viewBox="0 0 14 14" fill="none" xmlns="http://www.w3.org/2000/svg">
<g clip-path="url(#clip0_338_55312)">
<path d="M12.8332 6.99935H11.3865C11.1316 6.9988 10.8835 7.08178 10.6802 7.23558C10.4768 7.38938 10.3295 7.60555 10.2607 7.85102L8.88984 12.7277C8.881 12.758 8.86258 12.7846 8.83734 12.8035C8.81209 12.8224 8.78139 12.8327 8.74984 12.8327C8.71828 12.8327 8.68758 12.8224 8.66234 12.8035C8.63709 12.7846 8.61867 12.758 8.60984 12.7277L5.38984 1.27102C5.381 1.24072 5.36258 1.21411 5.33734 1.19518C5.31209 1.17625 5.28139 1.16602 5.24984 1.16602C5.21828 1.16602 5.18758 1.17625 5.16234 1.19518C5.13709 1.21411 5.11867 1.24072 5.10984 1.27102L3.739 6.14768C3.67044 6.39219 3.52398 6.60765 3.32184 6.76136C3.11971 6.91506 2.87294 6.99862 2.619 6.99935H1.1665" stroke="#131720" stroke-width="1.16667" stroke-linecap="round" stroke-linejoin="round"/>
</g>
<defs>
<clipPath id="clip0_338_55312">
<rect width="14" height="14" fill="white"/>
</clipPath>
</defs>
</svg>
