<svg width="16" height="16" viewBox="0 0 16 16" fill="none" xmlns="http://www.w3.org/2000/svg">
<path d="M9.33301 1.33398V4.00065C9.33301 4.35427 9.47348 4.69341 9.72353 4.94346C9.97358 5.19351 10.3127 5.33398 10.6663 5.33398H13.333" stroke="#65758B" stroke-width="1.33333" stroke-linecap="round" stroke-linejoin="round"/>
<path d="M2.84566 14.0007C2.9624 14.2029 3.13018 14.3709 3.33223 14.4878C3.53428 14.6048 3.76351 14.6667 3.99699 14.6673H12.0003C12.3539 14.6673 12.6931 14.5268 12.9431 14.2768C13.1932 14.0267 13.3337 13.6876 13.3337 13.334V4.66732L10.0003 1.33398H4.00033C3.6467 1.33398 3.30756 1.47446 3.05752 1.72451C2.80747 1.97456 2.66699 2.3137 2.66699 2.66732V4.66732" stroke="#65758B" stroke-width="1.33333" stroke-linecap="round" stroke-linejoin="round"/>
<path d="M6 12L5 11" stroke="#65758B" stroke-width="1.33333" stroke-linecap="round" stroke-linejoin="round"/>
<path d="M3.33301 11.334C4.43758 11.334 5.33301 10.4386 5.33301 9.33398C5.33301 8.22941 4.43758 7.33398 3.33301 7.33398C2.22844 7.33398 1.33301 8.22941 1.33301 9.33398C1.33301 10.4386 2.22844 11.334 3.33301 11.334Z" stroke="#65758B" stroke-width="1.33333" stroke-linecap="round" stroke-linejoin="round"/>
</svg>
