<svg width="10" height="10" viewBox="0 0 10 10" fill="none" xmlns="http://www.w3.org/2000/svg">
<g clip-path="url(#clip0_337_54254)">
<path d="M8.33366 5.4175C8.33366 7.50084 6.87533 8.54251 5.14199 9.14667C5.05123 9.17743 4.95263 9.17596 4.86283 9.14251C3.12533 8.54251 1.66699 7.50084 1.66699 5.4175V2.50084C1.66699 2.39033 1.71089 2.28435 1.78903 2.20621C1.86717 2.12807 1.97315 2.08417 2.08366 2.08417C2.91699 2.08417 3.95866 1.58417 4.68366 0.950838C4.77193 0.875421 4.88422 0.833984 5.00033 0.833984C5.11643 0.833984 5.22872 0.875421 5.31699 0.950838C6.04616 1.58834 7.08366 2.08417 7.91699 2.08417C8.0275 2.08417 8.13348 2.12807 8.21162 2.20621C8.28976 2.28435 8.33366 2.39033 8.33366 2.50084V5.4175Z" stroke="#131720" stroke-width="0.833333" stroke-linecap="round" stroke-linejoin="round"/>
</g>
<defs>
<clipPath id="clip0_337_54254">
<rect width="10" height="10" fill="white"/>
</clipPath>
</defs>
</svg>
