<svg width="16" height="16" viewBox="0 0 16 16" fill="none" xmlns="http://www.w3.org/2000/svg">
<path d="M7.33398 11.3327L8.66732 12.666C8.79864 12.7973 8.95454 12.9015 9.12612 12.9726C9.2977 13.0436 9.4816 13.0802 9.66732 13.0802C9.85303 13.0802 10.0369 13.0436 10.2085 12.9726C10.3801 12.9015 10.536 12.7973 10.6673 12.666C10.7986 12.5347 10.9028 12.3788 10.9739 12.2072C11.045 12.0356 11.0815 11.8517 11.0815 11.666C11.0815 11.4803 11.045 11.2964 10.9739 11.1248C10.9028 10.9532 10.7986 10.7973 10.6673 10.666" stroke="#D1D9E0" stroke-opacity="0.7" stroke-width="1.33333" stroke-linecap="round" stroke-linejoin="round"/>
<path d="M9.33348 9.33367L11.0002 11.0003C11.2654 11.2656 11.6251 11.4145 12.0002 11.4145C12.3752 11.4145 12.7349 11.2656 13.0002 11.0003C13.2654 10.7351 13.4144 10.3754 13.4144 10.0003C13.4144 9.62526 13.2654 9.26555 13.0002 9.00034L10.4135 6.41367C10.0385 6.03913 9.53015 5.82876 9.00015 5.82876C8.47015 5.82876 7.96182 6.03913 7.58682 6.41367L7.00015 7.00034C6.73493 7.26555 6.37522 7.41455 6.00015 7.41455C5.62508 7.41455 5.26537 7.26555 5.00015 7.00034C4.73493 6.73512 4.58594 6.37541 4.58594 6.00034C4.58594 5.62526 4.73493 5.26555 5.00015 5.00034L6.87348 3.127C7.48165 2.52043 8.27475 2.13404 9.12725 2.02898C9.97974 1.92393 10.8429 2.10622 11.5802 2.547L11.8935 2.73367C12.1773 2.90499 12.5148 2.96441 12.8402 2.90034L14.0002 2.667" stroke="#D1D9E0" stroke-opacity="0.7" stroke-width="1.33333" stroke-linecap="round" stroke-linejoin="round"/>
<path d="M14.0007 2L14.6673 9.33333H13.334" stroke="#D1D9E0" stroke-opacity="0.7" stroke-width="1.33333" stroke-linecap="round" stroke-linejoin="round"/>
<path d="M2.00065 2L1.33398 9.33333L5.66732 13.6667C5.93253 13.9319 6.29225 14.0809 6.66732 14.0809C7.04239 14.0809 7.4021 13.9319 7.66732 13.6667C7.93253 13.4015 8.08153 13.0417 8.08153 12.6667C8.08153 12.2916 7.93253 11.9319 7.66732 11.6667" stroke="#D1D9E0" stroke-opacity="0.7" stroke-width="1.33333" stroke-linecap="round" stroke-linejoin="round"/>
<path d="M2 2.66602H7.33333" stroke="#D1D9E0" stroke-opacity="0.7" stroke-width="1.33333" stroke-linecap="round" stroke-linejoin="round"/>
</svg>
