<svg width="16" height="16" viewBox="0 0 16 16" fill="none" xmlns="http://www.w3.org/2000/svg">
<path d="M11.333 2.66602H9.99967C9.63148 2.66602 9.33301 2.96449 9.33301 3.33268V12.666C9.33301 13.0342 9.63148 13.3327 9.99967 13.3327H11.333C11.7012 13.3327 11.9997 13.0342 11.9997 12.666V3.33268C11.9997 2.96449 11.7012 2.66602 11.333 2.66602Z" stroke="#F59F0A" stroke-width="1.33333" stroke-linecap="round" stroke-linejoin="round"/>
<path d="M6 2.66602H4.66667C4.29848 2.66602 4 2.96449 4 3.33268V12.666C4 13.0342 4.29848 13.3327 4.66667 13.3327H6C6.36819 13.3327 6.66667 13.0342 6.66667 12.666V3.33268C6.66667 2.96449 6.36819 2.66602 6 2.66602Z" stroke="#F59F0A" stroke-width="1.33333" stroke-linecap="round" stroke-linejoin="round"/>
</svg>
