<svg width="16" height="16" viewBox="0 0 16 16" fill="none" xmlns="http://www.w3.org/2000/svg">
<path d="M2.66602 1.33398V14.6673L3.99935 14.0007L5.33268 14.6673L6.66602 14.0007L7.99935 14.6673L9.33268 14.0007L10.666 14.6673L11.9993 14.0007L13.3327 14.6673V1.33398L11.9993 2.00065L10.666 1.33398L9.33268 2.00065L7.99935 1.33398L6.66602 2.00065L5.33268 1.33398L3.99935 2.00065L2.66602 1.33398Z" stroke="#6B7280" stroke-width="1.33333" stroke-linecap="round" stroke-linejoin="round"/>
<path d="M10.6673 5.33398H6.66732C6.3137 5.33398 5.97456 5.47446 5.72451 5.72451C5.47446 5.97456 5.33398 6.3137 5.33398 6.66732C5.33398 7.02094 5.47446 7.36008 5.72451 7.61013C5.97456 7.86018 6.3137 8.00065 6.66732 8.00065H9.33398C9.68761 8.00065 10.0267 8.14113 10.2768 8.39118C10.5268 8.64122 10.6673 8.98036 10.6673 9.33398C10.6673 9.68761 10.5268 10.0267 10.2768 10.2768C10.0267 10.5268 9.68761 10.6673 9.33398 10.6673H5.33398" stroke="#6B7280" stroke-width="1.33333" stroke-linecap="round" stroke-linejoin="round"/>
<path d="M8 11.6673V4.33398" stroke="#6B7280" stroke-width="1.33333" stroke-linecap="round" stroke-linejoin="round"/>
</svg>
