<svg width="20" height="20" viewBox="0 0 20 20" fill="none" xmlns="http://www.w3.org/2000/svg">
<path d="M17.5 6.25065V5.00065C17.5 4.55862 17.3244 4.1347 17.0118 3.82214C16.6993 3.50958 16.2754 3.33398 15.8333 3.33398H4.16667C3.72464 3.33398 3.30072 3.50958 2.98816 3.82214C2.67559 4.1347 2.5 4.55862 2.5 5.00065V16.6673C2.5 17.1093 2.67559 17.5333 2.98816 17.8458C3.30072 18.1584 3.72464 18.334 4.16667 18.334H7.08333" stroke="#0F172A" stroke-width="1.66667" stroke-linecap="round" stroke-linejoin="round"/>
<path d="M13.3335 1.66602V4.99935" stroke="#0F172A" stroke-width="1.66667" stroke-linecap="round" stroke-linejoin="round"/>
<path d="M6.6665 1.66602V4.99935" stroke="#0F172A" stroke-width="1.66667" stroke-linecap="round" stroke-linejoin="round"/>
<path d="M2.5 8.33398H6.66667" stroke="#0F172A" stroke-width="1.66667" stroke-linecap="round" stroke-linejoin="round"/>
<path d="M14.5835 14.5827L13.3335 13.5827V11.666" stroke="#0F172A" stroke-width="1.66667" stroke-linecap="round" stroke-linejoin="round"/>
<path d="M13.3335 18.334C16.0949 18.334 18.3335 16.0954 18.3335 13.334C18.3335 10.5726 16.0949 8.33398 13.3335 8.33398C10.5721 8.33398 8.3335 10.5726 8.3335 13.334C8.3335 16.0954 10.5721 18.334 13.3335 18.334Z" stroke="#0F172A" stroke-width="1.66667" stroke-linecap="round" stroke-linejoin="round"/>
</svg>
