<svg width="12" height="12" viewBox="0 0 12 12" fill="none" xmlns="http://www.w3.org/2000/svg">
<g clip-path="url(#clip0_2054_47629)">
<path d="M5.78072 1.63333C5.80231 1.59413 5.83401 1.56145 5.87253 1.53868C5.91105 1.51592 5.95498 1.50391 5.99972 1.50391C6.04447 1.50391 6.08839 1.51592 6.12692 1.53868C6.16544 1.56145 6.19714 1.59413 6.21872 1.63333L7.69472 4.43533C7.72992 4.50021 7.77905 4.55649 7.83858 4.60014C7.89811 4.64378 7.96656 4.6737 8.03902 4.68776C8.11149 4.70181 8.18616 4.69965 8.25769 4.68142C8.32922 4.66319 8.39582 4.62935 8.45272 4.58233L10.5912 2.75033C10.6323 2.71694 10.6829 2.69744 10.7357 2.69463C10.7885 2.69182 10.8409 2.70585 10.8853 2.7347C10.9296 2.76355 10.9637 2.80573 10.9826 2.85517C11.0014 2.90461 11.0041 2.95876 10.9902 3.00983L9.57322 8.13283C9.5443 8.23766 9.48199 8.33021 9.39573 8.39643C9.30947 8.46266 9.20397 8.49896 9.09522 8.49983H2.90472C2.79589 8.49907 2.69028 8.46282 2.60392 8.39658C2.51756 8.33035 2.45517 8.23774 2.42622 8.13283L1.00972 3.01033C0.995849 2.95926 0.998535 2.90511 1.01739 2.85567C1.03625 2.80623 1.07032 2.76405 1.11467 2.7352C1.15903 2.70635 1.2114 2.69232 1.26424 2.69513C1.31708 2.69794 1.36767 2.71744 1.40872 2.75083L3.54672 4.58283C3.60362 4.62985 3.67023 4.66369 3.74176 4.68192C3.81328 4.70015 3.88796 4.70231 3.96042 4.68826C4.03289 4.67421 4.10134 4.64428 4.16087 4.60064C4.2204 4.55699 4.26953 4.50071 4.30472 4.43583L5.78072 1.63333Z" stroke="white" stroke-linecap="round" stroke-linejoin="round"/>
<path d="M2.5 10.5H9.5" stroke="white" stroke-linecap="round" stroke-linejoin="round"/>
</g>
<defs>
<clipPath id="clip0_2054_47629">
<rect width="12" height="12" fill="white"/>
</clipPath>
</defs>
</svg>
