<svg width="20" height="20" viewBox="0 0 20 20" fill="none" xmlns="http://www.w3.org/2000/svg">
<path d="M3.33301 1.66602V18.3327L4.99967 17.4993L6.66634 18.3327L8.33301 17.4993L9.99967 18.3327L11.6663 17.4993L13.333 18.3327L14.9997 17.4993L16.6663 18.3327V1.66602L14.9997 2.49935L13.333 1.66602L11.6663 2.49935L9.99967 1.66602L8.33301 2.49935L6.66634 1.66602L4.99967 2.49935L3.33301 1.66602Z" stroke="#2463EB" stroke-width="1.66667" stroke-linecap="round" stroke-linejoin="round"/>
<path d="M13.3337 6.66602H8.33366C7.89163 6.66602 7.46771 6.84161 7.15515 7.15417C6.84259 7.46673 6.66699 7.89065 6.66699 8.33268C6.66699 8.77471 6.84259 9.19863 7.15515 9.51119C7.46771 9.82375 7.89163 9.99935 8.33366 9.99935H11.667C12.109 9.99935 12.5329 10.1749 12.8455 10.4875C13.1581 10.8001 13.3337 11.224 13.3337 11.666C13.3337 12.108 13.1581 12.532 12.8455 12.8445C12.5329 13.1571 12.109 13.3327 11.667 13.3327H6.66699" stroke="#2463EB" stroke-width="1.66667" stroke-linecap="round" stroke-linejoin="round"/>
<path d="M10 14.5827V5.41602" stroke="#2463EB" stroke-width="1.66667" stroke-linecap="round" stroke-linejoin="round"/>
</svg>
