<svg width="20" height="20" viewBox="0 0 20 20" fill="none" xmlns="http://www.w3.org/2000/svg">
<path d="M3.20849 7.18455C3.08686 6.63666 3.10554 6.06692 3.26279 5.52817C3.42004 4.98942 3.71078 4.49909 4.10805 4.10265C4.50532 3.70622 4.99625 3.41651 5.53533 3.26038C6.07441 3.10426 6.64419 3.08677 7.19183 3.20955C7.49325 2.73814 7.9085 2.35019 8.39929 2.08146C8.89008 1.81273 9.44062 1.67187 10.0002 1.67188C10.5597 1.67187 11.1102 1.81273 11.601 2.08146C12.0918 2.35019 12.5071 2.73814 12.8085 3.20955C13.357 3.08624 13.9277 3.10364 14.4677 3.26015C15.0076 3.41665 15.4992 3.70717 15.8967 4.10468C16.2942 4.50219 16.5847 4.99378 16.7412 5.53372C16.8977 6.07366 16.9151 6.64441 16.7918 7.19289C17.2632 7.49431 17.6512 7.90956 17.9199 8.40035C18.1886 8.89114 18.3295 9.44168 18.3295 10.0012C18.3295 10.5608 18.1886 11.1113 17.9199 11.6021C17.6512 12.0929 17.2632 12.5081 16.7918 12.8096C16.9146 13.3572 16.8971 13.927 16.741 14.466C16.5849 15.0051 16.2952 15.4961 15.8987 15.8933C15.5023 16.2906 15.012 16.5813 14.4732 16.7386C13.9345 16.8958 13.3647 16.9145 12.8168 16.7929C12.5158 17.2661 12.1002 17.6557 11.6086 17.9257C11.117 18.1956 10.5652 18.3371 10.0043 18.3371C9.44347 18.3371 8.89168 18.1956 8.40006 17.9257C7.90843 17.6557 7.49286 17.2661 7.19183 16.7929C6.64419 16.9157 6.07441 16.8982 5.53533 16.7421C4.99625 16.5859 4.50532 16.2962 4.10805 15.8998C3.71078 15.5033 3.42004 15.013 3.26279 14.4743C3.10554 13.9355 3.08686 13.3658 3.20849 12.8179C2.73346 12.5173 2.34217 12.1014 2.07103 11.6089C1.7999 11.1164 1.65771 10.5634 1.65771 10.0012C1.65771 9.43905 1.7999 8.88601 2.07103 8.39354C2.34217 7.90108 2.73346 7.48518 3.20849 7.18455Z" stroke="#0D8CFF" stroke-width="1.66667" stroke-linecap="round" stroke-linejoin="round"/>
<path d="M5.8335 10H10.0002" stroke="#0D8CFF" stroke-width="1.66667" stroke-linecap="round" stroke-linejoin="round"/>
<path d="M12.5002 7.83464C12.0573 7.31683 11.4664 6.9472 10.807 6.77551C10.1476 6.60383 9.45144 6.63835 8.81226 6.87442C8.17309 7.11049 7.62161 7.53677 7.23211 8.09584C6.8426 8.65491 6.63379 9.31992 6.63379 10.0013C6.63379 10.6827 6.8426 11.3477 7.23211 11.9068C7.62161 12.4658 8.17309 12.8921 8.81226 13.1282C9.45144 13.3643 10.1476 13.3988 10.807 13.2271C11.4664 13.0554 12.0573 12.6858 12.5002 12.168" stroke="#0D8CFF" stroke-width="1.66667" stroke-linecap="round" stroke-linejoin="round"/>
</svg>
