<svg width="16" height="16" viewBox="0 0 16 16" fill="none" xmlns="http://www.w3.org/2000/svg">
<g clip-path="url(#clip0_2218_28759)">
<path d="M13.3332 8.66762C13.3332 12.001 10.9998 13.6676 8.2265 14.6343C8.08128 14.6835 7.92353 14.6811 7.77984 14.6276C4.99984 13.6676 2.6665 12.001 2.6665 8.66762V4.00095C2.6665 3.82414 2.73674 3.65457 2.86177 3.52955C2.98679 3.40452 3.15636 3.33428 3.33317 3.33428C4.6665 3.33428 6.33317 2.53428 7.49317 1.52095C7.63441 1.40028 7.81407 1.33398 7.99984 1.33398C8.1856 1.33398 8.36527 1.40028 8.5065 1.52095C9.67317 2.54095 11.3332 3.33428 12.6665 3.33428C12.8433 3.33428 13.0129 3.40452 13.1379 3.52955C13.2629 3.65457 13.3332 3.82414 13.3332 4.00095V8.66762Z" stroke="#6B7280" stroke-width="1.33333" stroke-linecap="round" stroke-linejoin="round"/>
<path d="M9.66683 6.33398L6.3335 9.66732" stroke="#6B7280" stroke-width="1.33333" stroke-linecap="round" stroke-linejoin="round"/>
<path d="M6.3335 6.33398L9.66683 9.66732" stroke="#6B7280" stroke-width="1.33333" stroke-linecap="round" stroke-linejoin="round"/>
</g>
<defs>
<clipPath id="clip0_2218_28759">
<rect width="16" height="16" fill="white"/>
</clipPath>
</defs>
</svg>
