<svg width="16" height="16" viewBox="0 0 16 16" fill="none" xmlns="http://www.w3.org/2000/svg">
<g clip-path="url(#clip0_335_47727)">
<path d="M13.3332 8.66566C13.3332 11.999 10.9998 13.6657 8.2265 14.6323C8.08128 14.6815 7.92353 14.6792 7.77984 14.6257C4.99984 13.6657 2.6665 11.999 2.6665 8.66566V3.999C2.6665 3.82219 2.73674 3.65262 2.86177 3.52759C2.98679 3.40257 3.15636 3.33233 3.33317 3.33233C4.6665 3.33233 6.33317 2.53233 7.49317 1.519C7.63441 1.39833 7.81407 1.33203 7.99984 1.33203C8.1856 1.33203 8.36527 1.39833 8.5065 1.519C9.67317 2.539 11.3332 3.33233 12.6665 3.33233C12.8433 3.33233 13.0129 3.40257 13.1379 3.52759C13.2629 3.65262 13.3332 3.82219 13.3332 3.999V8.66566Z" stroke="#020817" stroke-width="1.33333" stroke-linecap="round" stroke-linejoin="round"/>
<path d="M6 8.0013L7.33333 9.33464L10 6.66797" stroke="#020817" stroke-width="1.33333" stroke-linecap="round" stroke-linejoin="round"/>
</g>
<defs>
<clipPath id="clip0_335_47727">
<rect width="16" height="16" fill="white"/>
</clipPath>
</defs>
</svg>
