<svg width="16" height="16" viewBox="0 0 16 16" fill="none" xmlns="http://www.w3.org/2000/svg">
<path d="M1.3335 1.33398L14.6668 14.6673" stroke="#F8FAFC" stroke-width="1.33333" stroke-linecap="round" stroke-linejoin="round"/>
<path d="M3.33317 3.33398C3.15636 3.33398 2.98679 3.40422 2.86177 3.52925C2.73674 3.65427 2.6665 3.82384 2.6665 4.00065V8.66732C2.6665 12.0007 4.99984 13.6673 7.77984 14.6273C7.92353 14.6808 8.08128 14.6832 8.2265 14.634C9.79317 14.0873 11.2132 13.3207 12.1598 12.1607" stroke="#F8FAFC" stroke-width="1.33333" stroke-linecap="round" stroke-linejoin="round"/>
<path d="M6.20605 2.43562C6.6637 2.17302 7.09483 1.8667 7.49339 1.52095C7.63462 1.40028 7.81429 1.33398 8.00005 1.33398C8.18582 1.33398 8.36548 1.40028 8.50672 1.52095C9.67339 2.54095 11.3334 3.33428 12.6667 3.33428C12.8435 3.33428 13.0131 3.40452 13.1381 3.52955C13.2632 3.65457 13.3334 3.82414 13.3334 4.00095V8.66762C13.3338 8.94936 13.316 9.23084 13.2801 9.51028" stroke="#F8FAFC" stroke-width="1.33333" stroke-linecap="round" stroke-linejoin="round"/>
</svg>
