<svg width="15" height="19" viewBox="0 0 15 19" fill="none" xmlns="http://www.w3.org/2000/svg">
<path d="M14.1663 10.001C14.1663 14.1677 11.2497 16.251 7.78301 17.4594C7.60148 17.5209 7.40429 17.5179 7.22467 17.451C3.74967 16.251 0.833008 14.1677 0.833008 10.001V4.16769C0.833008 3.94668 0.920805 3.73472 1.07709 3.57844C1.23337 3.42216 1.44533 3.33436 1.66634 3.33436C3.33301 3.33436 5.41634 2.33436 6.86634 1.06769C7.04289 0.916858 7.26747 0.833984 7.49967 0.833984C7.73188 0.833984 7.95646 0.916858 8.13301 1.06769C9.59134 2.34269 11.6663 3.33436 13.333 3.33436C13.554 3.33436 13.766 3.42216 13.9223 3.57844C14.0785 3.73472 14.1663 3.94668 14.1663 4.16769V10.001Z" stroke="#198653" stroke-width="1.66667" stroke-linecap="round" stroke-linejoin="round"/>
</svg>
