<svg width="12" height="15" viewBox="0 0 12 15" fill="none" xmlns="http://www.w3.org/2000/svg">
<path d="M11.3327 7.99965C11.3327 11.333 8.99935 12.9996 6.22602 13.9663C6.08079 14.0155 5.92304 14.0132 5.77935 13.9597C2.99935 12.9997 0.666016 11.333 0.666016 7.99965V3.33298C0.666016 3.15617 0.736254 2.9866 0.861278 2.86158C0.986302 2.73655 1.15587 2.66632 1.33268 2.66632C2.66602 2.66632 4.33268 1.86632 5.49268 0.852982C5.63392 0.732314 5.81358 0.666016 5.99935 0.666016C6.18511 0.666016 6.36478 0.732314 6.50602 0.852982C7.67268 1.87298 9.33268 2.66632 10.666 2.66632C10.8428 2.66632 11.0124 2.73655 11.1374 2.86158C11.2624 2.9866 11.3327 3.15617 11.3327 3.33298V7.99965Z" stroke="#0D8CFF" stroke-width="1.33333" stroke-linecap="round" stroke-linejoin="round"/>
</svg>
