<svg width="16" height="16" viewBox="0 0 16 16" fill="none" xmlns="http://www.w3.org/2000/svg">
<path d="M6.62479 10.3342C6.56527 10.1034 6.44502 9.89289 6.27653 9.72441C6.10805 9.55592 5.8975 9.43567 5.66679 9.37615L1.57679 8.32148C1.50701 8.30168 1.4456 8.25965 1.40186 8.20178C1.35813 8.14391 1.33447 8.07335 1.33447 8.00082C1.33447 7.92828 1.35813 7.85772 1.40186 7.79985C1.4456 7.74198 1.50701 7.69996 1.57679 7.68015L5.66679 6.62482C5.89742 6.56535 6.10792 6.4452 6.27639 6.27684C6.44486 6.10849 6.56517 5.89808 6.62479 5.66748L7.67946 1.57748C7.69906 1.50743 7.74105 1.44571 7.799 1.40175C7.85696 1.35778 7.92771 1.33398 8.00046 1.33398C8.0732 1.33398 8.14395 1.35778 8.20191 1.40175C8.25987 1.44571 8.30185 1.50743 8.32146 1.57748L9.37546 5.66748C9.43497 5.8982 9.55523 6.10875 9.72371 6.27723C9.89219 6.44571 10.1027 6.56597 10.3335 6.62548L14.4235 7.67948C14.4938 7.69888 14.5558 7.74082 14.6 7.79887C14.6442 7.85691 14.6682 7.92786 14.6682 8.00082C14.6682 8.07378 14.6442 8.14472 14.6 8.20277C14.5558 8.26081 14.4938 8.30275 14.4235 8.32215L10.3335 9.37615C10.1027 9.43567 9.89219 9.55592 9.72371 9.72441C9.55523 9.89289 9.43497 10.1034 9.37546 10.3342L8.32079 14.4242C8.30118 14.4942 8.2592 14.5559 8.20124 14.5999C8.14328 14.6439 8.07254 14.6677 7.99979 14.6677C7.92704 14.6677 7.85629 14.6439 7.79834 14.5999C7.74038 14.5559 7.69839 14.4942 7.67879 14.4242L6.62479 10.3342Z" stroke="#F59F0A" stroke-width="1.33333" stroke-linecap="round" stroke-linejoin="round"/>
<path d="M13.3335 2V4.66667" stroke="#F59F0A" stroke-width="1.33333" stroke-linecap="round" stroke-linejoin="round"/>
<path d="M14.6667 3.33398H12" stroke="#F59F0A" stroke-width="1.33333" stroke-linecap="round" stroke-linejoin="round"/>
<path d="M2.6665 11.334V12.6673" stroke="#F59F0A" stroke-width="1.33333" stroke-linecap="round" stroke-linejoin="round"/>
<path d="M3.33333 12H2" stroke="#F59F0A" stroke-width="1.33333" stroke-linecap="round" stroke-linejoin="round"/>
</svg>
