<svg width="16" height="16" viewBox="0 0 16 16" fill="none" xmlns="http://www.w3.org/2000/svg">
<path d="M8.33366 14.6673H12.0003C12.3539 14.6673 12.6931 14.5268 12.9431 14.2768C13.1932 14.0267 13.3337 13.6876 13.3337 13.334V4.66732L10.0003 1.33398H4.00033C3.6467 1.33398 3.30756 1.47446 3.05752 1.72451C2.80747 1.97456 2.66699 2.3137 2.66699 2.66732V9.00065" stroke="#0F1729" stroke-width="1.33333" stroke-linecap="round" stroke-linejoin="round"/>
<path d="M9.33301 1.33398V4.00065C9.33301 4.35427 9.47348 4.69341 9.72353 4.94346C9.97358 5.19351 10.3127 5.33398 10.6663 5.33398H13.333" stroke="#0F1729" stroke-width="1.33333" stroke-linecap="round" stroke-linejoin="round"/>
<path d="M8.91833 10.4174C9.04982 10.2859 9.15413 10.1298 9.2253 9.95802C9.29646 9.78621 9.33309 9.60206 9.33309 9.4161C9.33309 9.23013 9.29646 9.04599 9.2253 8.87418C9.15413 8.70237 9.04982 8.54626 8.91833 8.41477C8.78683 8.28327 8.63072 8.17896 8.45891 8.10779C8.2871 8.03663 8.10296 8 7.91699 8C7.73103 8 7.54688 8.03663 7.37507 8.10779C7.20327 8.17896 7.04716 8.28327 6.91566 8.41477L3.57566 11.7561C3.41716 11.9145 3.30114 12.1103 3.23833 12.3254L2.68033 14.2388C2.66359 14.2961 2.66259 14.3569 2.67742 14.4148C2.69225 14.4727 2.72237 14.5255 2.76462 14.5678C2.80688 14.6101 2.85971 14.6402 2.9176 14.655C2.97548 14.6698 3.03629 14.6688 3.09366 14.6521L5.00699 14.0941C5.2221 14.0313 5.41791 13.9153 5.57633 13.7568L8.91833 10.4174Z" stroke="#0F1729" stroke-width="1.33333" stroke-linecap="round" stroke-linejoin="round"/>
</svg>
