<svg width="14" height="14" viewBox="0 0 14 14" fill="none" xmlns="http://www.w3.org/2000/svg">
<path d="M11.6665 3.5H2.33317C1.68884 3.5 1.1665 4.02233 1.1665 4.66667V9.33333C1.1665 9.97767 1.68884 10.5 2.33317 10.5H11.6665C12.3108 10.5 12.8332 9.97767 12.8332 9.33333V4.66667C12.8332 4.02233 12.3108 3.5 11.6665 3.5Z" stroke="#64748B" stroke-width="1.16667" stroke-linecap="round" stroke-linejoin="round"/>
<path d="M7.00016 8.16536C7.64449 8.16536 8.16683 7.64303 8.16683 6.9987C8.16683 6.35437 7.64449 5.83203 7.00016 5.83203C6.35583 5.83203 5.8335 6.35437 5.8335 6.9987C5.8335 7.64303 6.35583 8.16536 7.00016 8.16536Z" stroke="#64748B" stroke-width="1.16667" stroke-linecap="round" stroke-linejoin="round"/>
<path d="M3.5 7H3.50583M10.5 7H10.5058" stroke="#64748B" stroke-width="1.16667" stroke-linecap="round" stroke-linejoin="round"/>
</svg>
