<svg width="20" height="20" viewBox="0 0 20 20" fill="none" xmlns="http://www.w3.org/2000/svg">
<path d="M13.333 8.33398H14.9997" stroke="#0DA2E7" stroke-width="1.66667" stroke-linecap="round" stroke-linejoin="round"/>
<path d="M13.333 11.666H14.9997" stroke="#0DA2E7" stroke-width="1.66667" stroke-linecap="round" stroke-linejoin="round"/>
<path d="M5.1416 12.5005C5.31338 12.0121 5.63252 11.5892 6.05495 11.29C6.47738 10.9908 6.98228 10.8301 7.49993 10.8301C8.01759 10.8301 8.52249 10.9908 8.94492 11.29C9.36735 11.5892 9.68648 12.0121 9.85827 12.5005" stroke="#0DA2E7" stroke-width="1.66667" stroke-linecap="round" stroke-linejoin="round"/>
<path d="M7.49967 10.8333C8.42015 10.8333 9.16634 10.0871 9.16634 9.16667C9.16634 8.24619 8.42015 7.5 7.49967 7.5C6.5792 7.5 5.83301 8.24619 5.83301 9.16667C5.83301 10.0871 6.5792 10.8333 7.49967 10.8333Z" stroke="#0DA2E7" stroke-width="1.66667" stroke-linecap="round" stroke-linejoin="round"/>
<path d="M16.667 4.16602H3.33366C2.41318 4.16602 1.66699 4.91221 1.66699 5.83268V14.166C1.66699 15.0865 2.41318 15.8327 3.33366 15.8327H16.667C17.5875 15.8327 18.3337 15.0865 18.3337 14.166V5.83268C18.3337 4.91221 17.5875 4.16602 16.667 4.16602Z" stroke="#0DA2E7" stroke-width="1.66667" stroke-linecap="round" stroke-linejoin="round"/>
</svg>
