<svg width="16" height="16" viewBox="0 0 16 16" fill="none" xmlns="http://www.w3.org/2000/svg">
<path d="M10.667 8.66749L14.149 10.9888C14.1992 11.0222 14.2575 11.0414 14.3177 11.0443C14.378 11.0472 14.4378 11.0336 14.491 11.0052C14.5441 10.9767 14.5886 10.9344 14.6196 10.8827C14.6506 10.8309 14.667 10.7718 14.667 10.7115V5.24749C14.667 5.18884 14.6516 5.13123 14.6222 5.08046C14.5928 5.02969 14.5506 4.98758 14.4997 4.95836C14.4488 4.92914 14.3912 4.91387 14.3325 4.91406C14.2739 4.91426 14.2163 4.92993 14.1657 4.95949L10.667 7.00083" stroke="#65758B" stroke-width="1.33333" stroke-linecap="round" stroke-linejoin="round"/>
<path d="M9.33301 4H2.66634C1.92996 4 1.33301 4.59695 1.33301 5.33333V10.6667C1.33301 11.403 1.92996 12 2.66634 12H9.33301C10.0694 12 10.6663 11.403 10.6663 10.6667V5.33333C10.6663 4.59695 10.0694 4 9.33301 4Z" stroke="#65758B" stroke-width="1.33333" stroke-linecap="round" stroke-linejoin="round"/>
</svg>
