<svg width="16" height="16" viewBox="0 0 16 16" fill="none" xmlns="http://www.w3.org/2000/svg">
<path d="M13.3337 8.66762C13.3337 12.001 11.0003 13.6676 8.22699 14.6343C8.08177 14.6835 7.92402 14.6811 7.78033 14.6276C5.00033 13.6676 2.66699 12.001 2.66699 8.66762V4.00095C2.66699 3.82414 2.73723 3.65457 2.86225 3.52955C2.98728 3.40452 3.15685 3.33428 3.33366 3.33428C4.66699 3.33428 6.33366 2.53428 7.49366 1.52095C7.6349 1.40028 7.81456 1.33398 8.00033 1.33398C8.18609 1.33398 8.36576 1.40028 8.50699 1.52095C9.67366 2.54095 11.3337 3.33428 12.667 3.33428C12.8438 3.33428 13.0134 3.40452 13.1384 3.52955C13.2634 3.65457 13.3337 3.82414 13.3337 4.00095V8.66762Z" stroke="#65758B" stroke-width="1.33333" stroke-linecap="round" stroke-linejoin="round"/>
</svg>
